<?xml version="1.0" encoding="utf-8"?>
<!-- Generator: Adobe Illustrator 22.1.0, SVG Export Plug-In . SVG Version: 6.00 Build 0)  -->
<svg version="1.1" id="Layer_1" xmlns="http://www.w3.org/2000/svg" xmlns:xlink="http://www.w3.org/1999/xlink" x="0px" y="0px"
	 viewBox="0 0 923.9 249.7" style="enable-background:new 0 0 923.9 249.7;" xml:space="preserve">
<style type="text/css">
	.st0{fill:#575756;}
	.st1{fill:#3C3C3B;}
	.st2{fill:#CE0E2D;}
	.st3{opacity:0.5;}
	.st4{fill:#020203;}
	.st5{fill:#FFFFFF;}
</style>
<g>
	<path class="st2" d="M64,222C25.7,222-1.7,195.2,0.1,159.5c1.4-28.4,20.7-40.3,45.8-27.3c9.1,4.7,15,6.9,24.6-0.3
		c12-9,27.1-10.1,41.7-4.2c12.7,5.2,19.5,14.8,19.1,28.7C130.5,189.3,96.9,221.9,64,222z M63.3,204.8c22,0.3,48-21.8,51.3-43.8
		c2-13.4-4.3-20.7-17.7-20c-7.4,0.4-15.6,2-20.1,7.4c-11.6,13.9-21.6,15.5-34.7,1.4c-3.6-3.8-13.5-7.5-19.7-3.6
		c-5.9,3.6-5.2,11.9-5.1,18.7C17.7,186.4,38.5,204.5,63.3,204.8z"/>
	<g id="XMLID_4_" class="st3">
		<g>
			<path class="st2" d="M82.8,152.8c11.4-0.6,16.9,5.7,15.1,17.1c-2.8,18.7-25,37.7-43.8,37.4c-21.1-0.3-38.9-15.7-39.4-34.1
				c-0.1-5.8-0.7-12.9,4.3-16c5.3-3.3,13.8-0.1,16.9,3.1c11.2,12,19.7,10.7,29.7-1.2C69.4,154.5,76.4,153.1,82.8,152.8z"/>
		</g>
	</g>
	<path class="st5" d="M61.6,125.4C78.8,96.2,91,64.2,97,30.8c1.8-10.1,4.5-23.8-7-29.1c-9.8-4.5-20.8,0.6-26.3,9.1
		c-13.5,21.1-11.6,54.8,12,67.5c22.6,12.2,50.1-2.7,54.4-27.5c-2.4,1-4.8,2-7.2,2.9c3.3,1.6,1.7,13.1,3.1,16.5
		c2.1,5.1,6.5,8.2,11.9,9.3c15.8,3.3,24.6-10.9,36.2-18.5c-2.4-1-4.8-2-7.2-2.9c1.6,11.7,12.2,18.3,23.2,19.8
		c15.4,2.1,28-7.3,42.2-11.2c29.4-8,57.9,18.9,86.8,4c5.6-2.9,0.7-11.4-5-8.5c-22.3,11.5-48.2-7.5-71.4-6.9
		c-12.3,0.3-22.6,5.9-33.8,10c-10.9,4-30.4,6-32.5-9.7c-0.4-3.1-4.8-4.5-7.2-2.9c-6.4,4.3-28.5,28.5-34.1,12.9
		c-2.6-7.4,1.9-16-7.1-20.2c-2.6-1.2-6.7-0.4-7.2,2.9c-3.4,19.6-24.6,31.5-42.2,20.2c-9-5.8-13.4-15.6-12.8-26.1
		c0.5-8.9,2.2-25.5,10.7-30.7c6.5-4,12.3,1.1,12.7,7.9c0.3,4.8-1.7,10.7-2.7,15.4c-2,9.6-4.4,19.1-7.4,28.4c-6.3,20-15,39-25.6,57
		C49.9,125.9,58.4,130.8,61.6,125.4L61.6,125.4z"/>
	<g>
		<path class="st5" d="M212.3,157.1c-2.6-2.7-5.4-4.8-8.3-6.2c-2.9-1.4-6.3-2.1-10.3-2.1c-3.9,0-7.3,0.7-10.2,2.1
			c-2.9,1.4-5.3,3.4-7.2,5.8c-1.9,2.5-3.4,5.3-4.4,8.5c-1,3.2-1.5,6.5-1.5,10s0.6,6.8,1.7,9.8c1.2,3.1,2.8,5.8,4.9,8.1
			c2.1,2.3,4.6,4.1,7.6,5.4c2.9,1.3,6.2,2,9.9,2c4,0,7.4-0.7,10.2-2.1c2.8-1.4,5.5-3.5,7.9-6.2l10.1,10.1c-3.7,4.1-8,7-12.8,8.8
			c-4.9,1.8-10.1,2.7-15.5,2.7c-5.8,0-11.1-0.9-15.8-2.8c-4.8-1.9-8.9-4.5-12.4-8c-3.5-3.4-6.1-7.5-8-12.3
			c-1.9-4.8-2.8-10.1-2.8-15.8c0-5.8,0.9-11.1,2.8-15.9c1.9-4.8,4.5-9,8-12.4c3.4-3.5,7.5-6.2,12.3-8.1c4.8-1.9,10.1-2.9,16-2.9
			c5.5,0,10.7,1,15.7,2.9c5,1.9,9.3,4.9,13,8.9L212.3,157.1z"/>
		<path class="st5" d="M226.9,92.8h14.2v55.9h0.3c1.8-4,4.9-7.2,9.3-9.7c4.4-2.5,9.5-3.7,15.3-3.7c3.6,0,7,0.6,10.3,1.7
			c3.3,1.1,6.2,2.8,8.7,5.1c2.5,2.3,4.4,5.3,5.9,8.9c1.5,3.6,2.2,7.9,2.2,12.8v48.1h-14.2v-44.1c0-3.5-0.5-6.4-1.4-8.9
			c-0.9-2.5-2.2-4.5-3.8-6c-1.6-1.5-3.4-2.6-5.4-3.3c-2-0.7-4.2-1-6.4-1c-2.9,0-5.7,0.5-8.2,1.4s-4.7,2.4-6.6,4.5
			c-1.9,2-3.4,4.6-4.4,7.8c-1.1,3.2-1.6,6.9-1.6,11.2v38.4h-14.2V92.8z"/>
		<path class="st5" d="M317.4,179.8c0,3.3,0.7,6.2,2.1,8.9c1.4,2.7,3.3,5,5.6,6.9s5,3.4,8,4.4c3,1.1,6.2,1.6,9.5,1.6
			c4.4,0,8.2-1,11.5-3.1c3.3-2,6.2-4.8,9-8.1l10.7,8.2c-7.9,10.2-18.9,15.3-33.1,15.3c-5.9,0-11.2-1-16-3c-4.8-2-8.8-4.8-12.1-8.3
			c-3.3-3.5-5.9-7.7-7.6-12.4c-1.8-4.8-2.7-10-2.7-15.5c0-5.6,1-10.7,2.9-15.5c1.9-4.8,4.6-8.9,8-12.4c3.4-3.5,7.5-6.3,12.2-8.3
			c4.7-2,9.9-3,15.4-3c6.6,0,12.2,1.2,16.8,3.5c4.6,2.3,8.3,5.3,11.3,9.1c2.9,3.7,5.1,7.9,6.4,12.6c1.3,4.7,2,9.4,2,14.3v5H317.4z
			 M362.1,168.4c-0.1-3.2-0.6-6-1.5-8.7c-0.9-2.6-2.2-4.9-4-6.9c-1.8-1.9-4-3.5-6.7-4.6c-2.7-1.1-5.8-1.7-9.4-1.7
			c-3.5,0-6.6,0.7-9.5,2c-2.9,1.3-5.3,3-7.3,5.1c-2,2.1-3.5,4.4-4.6,7c-1.1,2.6-1.7,5.1-1.7,7.6H362.1z"/>
		<path class="st5" d="M386.4,137.2h14.2v11.5h0.3c0.9-2,2.2-3.8,3.8-5.4c1.6-1.6,3.3-3,5.3-4.2c1.9-1.2,4.1-2.1,6.4-2.8
			c2.3-0.7,4.6-1,6.9-1c2.3,0,4.4,0.3,6.3,0.9l-0.6,15.3c-1.2-0.3-2.3-0.6-3.5-0.8c-1.2-0.2-2.3-0.3-3.5-0.3
			c-6.9,0-12.2,1.9-15.9,5.8c-3.7,3.9-5.5,9.9-5.5,18.1v37.5h-14.2V137.2z"/>
		<path class="st5" d="M436.8,137.2H451v11.5h0.3c0.9-2,2.2-3.8,3.8-5.4c1.6-1.6,3.3-3,5.3-4.2c1.9-1.2,4.1-2.1,6.4-2.8
			c2.3-0.7,4.6-1,6.9-1c2.3,0,4.4,0.3,6.3,0.9l-0.6,15.3c-1.2-0.3-2.3-0.6-3.5-0.8c-1.2-0.2-2.3-0.3-3.5-0.3
			c-6.9,0-12.2,1.9-15.9,5.8c-3.7,3.9-5.5,9.9-5.5,18.1v37.5h-14.2V137.2z"/>
		<path class="st5" d="M478.4,137.2h16.4l22.1,58.3h0.3l21.2-58.3h15.1L518.1,228c-1.3,3.3-2.6,6.2-3.9,8.9c-1.4,2.7-3,5-4.9,6.9
			c-1.9,1.9-4.2,3.4-6.8,4.4c-2.7,1-5.9,1.6-9.8,1.6c-2.1,0-4.2-0.1-6.4-0.4c-2.1-0.3-4.2-0.8-6.2-1.7l1.7-12.9
			c2.8,1.2,5.6,1.7,8.5,1.7c2.2,0,4-0.3,5.6-0.9c1.5-0.6,2.8-1.4,3.9-2.5c1.1-1.1,2-2.4,2.7-3.9c0.7-1.5,1.5-3.2,2.2-5l4.6-11.8
			L478.4,137.2z"/>
		<path class="st5" d="M555.8,135.3h22.7v10.4h0.3c0.7-1.5,1.8-2.9,3.1-4.4c1.4-1.5,3-2.8,4.9-3.9c1.9-1.2,4-2.1,6.5-2.8
			c2.4-0.7,5-1.1,7.9-1.1c5.4,0,10.1,1.1,14.3,3.3s7.3,5.7,9.4,10.4c2.7-4.9,6-8.5,9.9-10.6c3.9-2.1,8.7-3.2,14.3-3.2
			c5.1,0,9.5,0.9,13,2.6c3.5,1.7,6.3,4.1,8.4,7.1c2.1,3,3.5,6.5,4.4,10.6c0.9,4,1.3,8.4,1.3,13v45.2h-23.6v-44.6
			c0-3.6-0.8-6.6-2.3-9.2c-1.5-2.6-4.2-3.9-8.1-3.9c-2.7,0-5,0.4-6.9,1.3c-1.8,0.9-3.3,2.1-4.4,3.7c-1.1,1.6-1.9,3.4-2.4,5.5
			c-0.5,2.1-0.7,4.3-0.7,6.6v40.5h-23.6v-40.5c0-1.4-0.1-3-0.2-5c-0.1-2-0.5-3.9-1.1-5.7c-0.6-1.8-1.7-3.3-3.1-4.6
			c-1.4-1.3-3.5-1.9-6.2-1.9c-3,0-5.5,0.6-7.4,1.7c-1.9,1.1-3.3,2.6-4.3,4.4c-1,1.8-1.7,3.9-2,6.2c-0.3,2.3-0.5,4.7-0.5,7.2v38.1
			h-23.6V135.3z"/>
		<path class="st5" d="M757.5,198.7c-3.8,4.8-8.6,8.6-14.3,11.2c-5.8,2.6-11.8,3.9-18,3.9c-5.9,0-11.4-0.9-16.6-2.8
			c-5.2-1.9-9.7-4.6-13.6-8.1c-3.8-3.5-6.9-7.7-9.1-12.7c-2.2-4.9-3.3-10.5-3.3-16.5c0-6.1,1.1-11.6,3.3-16.5
			c2.2-4.9,5.2-9.2,9.1-12.7c3.8-3.5,8.4-6.2,13.6-8.1c5.2-1.9,10.7-2.8,16.6-2.8c5.5,0,10.4,0.9,14.9,2.8c4.5,1.9,8.2,4.6,11.3,8.1
			c3.1,3.5,5.5,7.7,7.2,12.7c1.7,4.9,2.5,10.5,2.5,16.5v7.4h-54.8c0.9,4.5,3,8.1,6.1,10.8c3.2,2.7,7,4,11.7,4c3.9,0,7.2-0.9,9.8-2.6
			c2.7-1.7,5-4,7-6.7L757.5,198.7z M737.5,165c0.1-4-1.2-7.4-3.9-10.2c-2.7-2.8-6.3-4.3-10.6-4.3c-2.6,0-4.9,0.4-6.9,1.3
			c-2,0.8-3.7,1.9-5.1,3.2c-1.4,1.3-2.5,2.8-3.3,4.6c-0.8,1.7-1.2,3.5-1.3,5.4H737.5z"/>
		<path class="st5" d="M767.6,135.3h22.7v10.4h0.3c0.7-1.5,1.8-2.9,3.2-4.4c1.4-1.5,3-2.8,4.9-3.9c1.9-1.2,4-2.1,6.5-2.8
			c2.4-0.7,5-1.1,7.9-1.1c6,0,10.8,0.9,14.5,2.8c3.7,1.8,6.5,4.4,8.6,7.6c2,3.3,3.4,7.1,4.2,11.5c0.7,4.4,1.1,9.2,1.1,14.3v42.2
			h-23.6v-37.5c0-2.2-0.1-4.5-0.2-6.9c-0.2-2.4-0.6-4.5-1.4-6.5c-0.8-2-2-3.6-3.6-4.9c-1.6-1.3-4-1.9-7-1.9c-3,0-5.5,0.6-7.4,1.7
			c-1.9,1.1-3.3,2.6-4.3,4.4c-1,1.8-1.7,3.9-2,6.2c-0.3,2.3-0.5,4.7-0.5,7.2v38.1h-23.6V135.3z"/>
		<path class="st5" d="M923.9,211.9h-22.7v-10.4h-0.3c-0.8,1.5-1.9,2.9-3.2,4.4c-1.3,1.5-2.9,2.8-4.8,3.9c-1.9,1.2-4,2.1-6.5,2.8
			c-2.4,0.7-5,1.1-7.9,1.1c-6,0-10.8-0.9-14.6-2.8c-3.7-1.8-6.6-4.4-8.7-7.6c-2-3.3-3.4-7.1-4.1-11.5c-0.7-4.4-1-9.2-1-14.3v-42.2
			h23.6v37.5c0,2.2,0.1,4.5,0.2,6.9c0.2,2.4,0.6,4.5,1.4,6.5c0.8,2,2,3.6,3.6,4.9c1.6,1.3,4,1.9,7,1.9c3,0,5.5-0.6,7.4-1.7
			c1.9-1.1,3.3-2.6,4.3-4.4c1-1.8,1.7-3.9,2-6.2c0.3-2.3,0.5-4.7,0.5-7.2v-38.1h23.6V211.9z"/>
	</g>
</g>
</svg>
