<?xml version="1.0" encoding="UTF-8"?>
<svg version="1.1" viewBox="0 0 24 24" xmlns="http://www.w3.org/2000/svg" xmlns:xlink="http://www.w3.org/1999/xlink">
    <!--Generated by IJSVG (https://github.com/iconjar/IJSVG)-->
    <g fill="#000">
        <path d="M12,22.5c-0.128,0 -0.256,-0.049 -0.354,-0.146l-11,-11c-0.195,-0.195 -0.195,-0.512 0,-0.707c0.195,-0.195 0.512,-0.195 0.707,0l10.647,10.646l10.646,-10.646c0.195,-0.195 0.512,-0.195 0.707,0c0.195,0.195 0.195,0.512 0,0.707l-11,11c-0.097,0.097 -0.225,0.146 -0.353,0.146Z"></path>
        <path d="M12,13.5c-0.128,0 -0.256,-0.049 -0.354,-0.146l-11,-11c-0.195,-0.195 -0.195,-0.512 0,-0.707c0.195,-0.195 0.512,-0.195 0.707,0l10.647,10.646l10.646,-10.647c0.195,-0.195 0.512,-0.195 0.707,-8.88178e-16c0.195,0.195 0.195,0.512 0,0.707l-11,11c-0.097,0.098 -0.225,0.147 -0.353,0.147Z"></path>
    </g>
</svg>