<svg fill="none" height="24" viewBox="0 0 24 24" width="24" xmlns="http://www.w3.org/2000/svg"><g stroke="#A9A9A9" stroke-linecap="round" stroke-linejoin="round" stroke-width="1.5"><path d="m14.5457 4.95548c.075.30916.0948.63824.049.97519l-.822 6.04433m.773-7.01952c-.632-2.60731-4.4594-2.60731-5.09145 0m5.09145 0c1.5673-1.60844 4.3804-.00716 4.4543 2.00367m0 0c1 .16776 3 1.10495 3 3.51165 0 2.1735-2.6072 4.4692-5.1831 6.2939-.5821.4124-.8732.6186-1.0594.7679-.5746.4609-.9374.8346-1.381 1.4226-.1437.1905-.2927.4145-.5905.8625l-.2324.3496c-.3458.5201-.929.8327-1.5536.8327s-1.2078-.3126-1.5536-.8327l-.2324-.3496c-.29783-.448-.44675-.672-.59048-.8625-.44362-.588-.80643-.9617-1.38102-1.4226-.18616-.1493-.47728-.3555-1.05942-.7679-2.57589-1.8247-5.18308-4.1204-5.18308-6.2939 0-2.4067 2-3.34389 3-3.51165m14 0c.0676 1.83966-1.1896 4.30925-2.3024 6.01855m-7.24335-8.02222c-.07494.30916-.09473.63824-.04891.97519l.82196 6.04433m-.77305-7.01952c-1.56729-1.60844-4.38036-.00716-4.45425 2.00367m0 0c-.06761 1.83966 1.18965 4.30925 2.30238 6.01855"/><path d="m18 16-.7588 3.7942c-.1403.7011-.7559 1.2058-1.4709 1.2058h-7.54059c-.71503 0-1.33065-.5047-1.47088-1.2058l-.75883-3.7942"/></g></svg>