<?xml version="1.0" encoding="UTF-8"?>
<svg version="1.1" viewBox="0 0 24 24" xmlns="http://www.w3.org/2000/svg" xmlns:xlink="http://www.w3.org/1999/xlink">
    <!--Generated by IJSVG (https://github.com/iconjar/IJSVG)-->
    <path d="M15.537,18.162c-0.156,-0.202 -0.439,-0.251 -0.655,-0.12c-1.025,0.627 -2.194,0.958 -3.382,0.958c-3.584,0 -6.5,-2.916 -6.5,-6.5c0,-3.208 2.395,-5.97 5.571,-6.425c0.246,-0.036 0.429,-0.246 0.429,-0.495v-4.08c0,-0.276 -0.224,-0.5 -0.5,-0.5c-5.79,0 -10.5,5.159 -10.5,11.5c0,6.341 5.159,11.5 11.5,11.5c2.837,0 4.372,-0.514 6.317,-2.114c0.209,-0.172 0.243,-0.479 0.077,-0.693l-2.357,-3.031Zm-4.037,4.838c-5.79,0 -10.5,-4.71 -10.5,-10.5c0,-5.604 3.993,-10.197 9,-10.486v3.145c-3.449,0.703 -6,3.785 -6,7.341c0,4.136 3.364,7.5 7.5,7.5c1.224,0 2.43,-0.304 3.514,-0.881l1.788,2.298c-1.579,1.205 -2.896,1.583 -5.302,1.583Zm1,-18c3.584,0 6.5,2.916 6.5,6.5c0,0.276 0.224,0.5 0.5,0.5h4c0.276,0 0.5,-0.224 0.5,-0.5c0,-6.341 -5.159,-11.5 -11.5,-11.5c-0.276,0 -0.5,0.224 -0.5,0.5v4c0,0.276 0.224,0.5 0.5,0.5Zm0.5,-3.988c5.393,0.254 9.734,4.595 9.988,9.988h-3.005c-0.247,-3.738 -3.246,-6.736 -6.983,-6.983v-3.005Zm10.5,11.988h-4.079c-0.249,0 -0.46,0.183 -0.496,0.429c-0.225,1.576 -1.02,3.009 -2.236,4.037c-0.208,0.175 -0.237,0.485 -0.066,0.696l2.988,3.699c0.087,0.109 0.215,0.175 0.354,0.185c0.012,0.001 0.023,0.001 0.035,0.001c0.126,0 0.248,-0.048 0.341,-0.134c2.325,-2.169 3.659,-5.235 3.659,-8.413c0,-0.276 -0.224,-0.5 -0.5,-0.5Zm-3.457,7.804l-2.345,-2.903c1.094,-1.053 1.841,-2.412 2.144,-3.901h3.146c-0.123,2.542 -1.175,4.973 -2.945,6.804Z" fill="#4A4A4A"></path>
</svg>