<?xml version="1.0" encoding="UTF-8"?>
<svg width="33px" height="40px" viewBox="0 0 33 40" version="1.1" xmlns="http://www.w3.org/2000/svg" xmlns:xlink="http://www.w3.org/1999/xlink">
    <!-- Generator: Sketch 52.6 (67491) - http://www.bohemiancoding.com/sketch -->
    <title>2878038-android-device-media-social-web</title>
    <desc>Created with Sketch.</desc>
    <g id="Page-1" stroke="none" stroke-width="1" fill="none" fill-rule="evenodd">
        <g id="Download-buttons" transform="translate(-764.000000, -443.000000)">
            <g id="2878038-android-device-media-social-web" transform="translate(764.000000, 443.000000)">
                <path d="M5,25.375 L3.75,25.375 C2.375,25.375 1.25,24.25 1.25,22.875 L1.25,17.0416667 C1.25,15.6666667 2.375,14.5416667 3.75,14.5416667 L3.79166667,13.375 C4.5,13.375 5.04166667,13.9166667 5.04166667,14.625 L5,25.375 Z" id="Path" fill="#A4F4C4"></path>
                <path d="M27.5,25.375 L28.75,25.375 C30.125,25.375 31.25,24.25 31.25,22.875 L31.25,17.0416667 C31.25,15.6666667 30.125,14.5416667 28.75,14.5416667 L27.5,14.5416667 L27.5,25.375 Z" id="Path" fill="#06A18C"></path>
                <path d="M20.5,4.41666667 L19.125,3.95833333 C18.2083333,3.75 17.25,3.625 16.2916667,3.625 C15.3333333,3.625 14.375,3.75 13.4583333,3.95833333 L12.0833333,4.375 C8.66666667,5.66666667 6.33333333,8.5 6.33333333,11.7916667 C6.33333333,11.8333333 26.2916667,11.7916667 26.2916667,11.7916667 C26.25,8.54166667 23.875,5.70833333 20.5,4.41666667 Z" id="Path" fill="#8FE5B5"></path>
                <path d="M13.4583333,5.20833333 C13.125,5.20833333 12.8333333,5.08333333 12.5833333,4.83333333 L10.0833333,2.33333333 C9.58333333,1.83333333 9.58333333,1.04166667 10.0833333,0.583333333 C10.5833333,0.0833333333 11.375,0.0833333333 11.8333333,0.583333333 L14.3333333,3.08333333 C14.8333333,3.58333333 14.8333333,4.375 14.3333333,4.83333333 C14.0833333,5.08333333 13.75,5.20833333 13.4583333,5.20833333 Z" id="Path" fill="#444B54"></path>
                <g id="Group" transform="translate(11.250000, 2.916667)">
                    <g opacity="0.5" transform="translate(2.916667, 0.000000)" fill="#06A18C" id="Path">
                        <path d="M5.79166667,0.208333333 L4.95833333,1.04166667 C4.95833333,1.04166667 4.95833333,1.04166667 4.95833333,1.04166667 C4.04166667,0.833333333 3.08333333,0.708333333 2.125,0.708333333 C1.41666667,0.708333333 0.708333333,0.791666667 0.0416666667,0.875 C6.04166667,1.04166667 7.91666667,5.625 7.91666667,8.875 C7.91666667,8.875 11.5416667,8.875 12.0416667,8.875 C12.0833333,8.875 12.0833333,8.875 12.0833333,8.875 C12.0833333,8.66666667 12.0833333,8.45833333 12.0416667,8.25 C12.0416667,8.04166667 12,7.83333333 11.9583333,7.66666667 C11.875,7.29166667 11.7916667,6.875 11.625,6.5 C11.4166667,5.95833333 11.125,5.41666667 10.7916667,4.91666667 C10.125,3.91666667 9.16666667,3.04166667 8.08333333,2.33333333 C7.54166667,2 6.91666667,1.70833333 6.29166667,1.45833333 L5.79166667,0.208333333 Z"></path>
                    </g>
                    <path d="M1.91666667,0.75 L0.0416666667,0.708333333 C0.333333333,0.708333333 1.58333333,0.708333333 1.91666667,0.75 Z" id="Path" fill="#8FE5B5"></path>
                </g>
                <circle id="Oval" fill="#FFFFFF" cx="13.3333333" cy="8.29166667" r="1.16666667"></circle>
                <circle id="Oval" fill="#FFFFFF" cx="19.2083333" cy="8.29166667" r="1.16666667"></circle>
                <path d="M6.29166667,27.0416667 C6.29166667,28.9583333 7.875,30.5416667 9.79166667,30.5416667 L9.79166667,36.7083333 C9.79166667,37.8333333 10.8333333,38.75 12.125,38.75 C13.4166667,38.75 14.4583333,37.8333333 14.4583333,36.7083333 L14.4583333,30.5416667 L18,30.5416667 L18,36.7083333 C18,37.8333333 19.0416667,38.75 20.3333333,38.75 C21.625,38.75 22.6666667,37.8333333 22.6666667,36.7083333 L22.6666667,30.5416667 C24.625,30.5416667 26.2083333,28.9583333 26.2083333,27.0416667 L26.2083333,14.6666667 C26.2083333,13.9583333 25.6666667,13.4166667 24.9583333,13.4166667 L7.54166667,13.4166667 C6.83333333,13.4166667 6.29166667,13.9583333 6.29166667,14.6666667 L6.29166667,27.0416667 Z M9.79166667,30.5416667 L9.79166667,36.7083333 C9.79166667,37.8333333 10.8333333,38.75 12.125,38.75 L9.79166667,30.5416667 Z" id="Shape" fill="#8FE5B5" fill-rule="nonzero"></path>
                <g id="Group" opacity="0.5" transform="translate(9.583333, 13.333333)" fill="#06A18C">
                    <g transform="translate(0.000000, 17.083333)" id="Path">
                        <path d="M0.208333333,4.33333333 L0.208333333,6.29166667 C0.208333333,7.41666667 1.25,8.33333333 2.54166667,8.33333333 C3.83333333,8.33333333 4.875,7.41666667 4.875,6.29166667 L4.875,0.208333333 C3.29166667,1.875 1.70833333,3.25 0.208333333,4.33333333 Z"></path>
                    </g>
                    <g transform="translate(5.000000, 0.000000)" id="Path">
                        <path d="M10.2083333,0.0833333333 L7.5,0.0833333333 C7.5,5.29166667 5.75,10.375 2.45833333,14.4166667 C1.625,15.4583333 0.791666667,16.375 7.10542736e-15,17.2083333 L3.45833333,17.2083333 L3.45833333,23.375 C3.45833333,23.7083333 3.54166667,24.0416667 3.70833333,24.3333333 C3.79166667,24.5 3.91666667,24.625 4.04166667,24.7916667 C4.04166667,24.7916667 4.04166667,24.7916667 4.08333333,24.8333333 C4.20833333,24.9583333 4.375,25.0833333 4.54166667,25.1666667 C4.54166667,25.1666667 4.58333333,25.1666667 4.58333333,25.2083333 C4.66666667,25.25 4.75,25.2916667 4.79166667,25.3333333 C4.79166667,25.3333333 4.83333333,25.3333333 4.83333333,25.3333333 C4.91666667,25.375 5,25.4166667 5.125,25.4166667 C5.125,25.4166667 5.16666667,25.4166667 5.16666667,25.4166667 C5.25,25.4166667 5.33333333,25.4583333 5.41666667,25.4583333 C5.45833333,25.4583333 5.45833333,25.4583333 5.5,25.4583333 C5.58333333,25.4583333 5.70833333,25.4583333 5.79166667,25.4583333 C7.08333333,25.4583333 8.125,24.5416667 8.125,23.4166667 L8.125,17.2083333 C10.0833333,17.2083333 11.6666667,15.625 11.6666667,13.7083333 L11.6666667,1.33333333 C11.6666667,0.625 11.125,0.0833333333 10.4166667,0.0833333333 L10.2083333,0.0833333333 Z"></path>
                    </g>
                </g>
                <path d="M20.375,40 C18.375,40 16.7916667,38.5 16.7916667,36.7083333 L16.7916667,31.7916667 L15.75,31.7916667 L15.75,36.7083333 C15.75,38.5416667 14.125,40 12.1666667,40 C11.4583333,40 10.9166667,39.4583333 10.9166667,38.75 C10.9166667,38.0416667 11.4583333,37.5 12.1666667,37.5 C12.75,37.5 13.25,37.125 13.25,36.7083333 L13.25,30.5416667 C13.25,29.8333333 13.7916667,29.2916667 14.5,29.2916667 L18.0416667,29.2916667 C18.75,29.2916667 19.2916667,29.8333333 19.2916667,30.5416667 L19.2916667,36.7083333 C19.2916667,37.125 19.7916667,37.5 20.375,37.5 C20.9583333,37.5 21.4583333,37.125 21.4583333,36.7083333 L21.4583333,30.5416667 C21.4583333,29.8333333 22,29.2916667 22.7083333,29.2916667 C23.9583333,29.2916667 25,28.2916667 25,27.0416667 L25,25.375 C25,25.375 25,25.375 25,25.375 L25,18.7083333 C25,18 25.5416667,17.4583333 26.25,17.4583333 C26.9583333,17.4583333 27.5,18 27.5,18.7083333 L27.5,24.125 L28.875,24.125 C29.4583333,24.125 29.9583333,23.75 29.9583333,23.3333333 L29.9583333,17.0416667 C29.9583333,16.7083333 29.8333333,16.375 29.5833333,16.1666667 C29.3333333,15.9166667 29.0416667,15.7916667 28.7083333,15.7916667 C28.7083333,15.7916667 28.7083333,15.7916667 28.7083333,15.7916667 C28,15.7916667 27.4583333,15.25 27.4583333,14.5416667 C27.4583333,13.8333333 28,13.2916667 28.7083333,13.2916667 C28.7083333,13.2916667 28.7083333,13.2916667 28.7083333,13.2916667 C29.7083333,13.2916667 30.6666667,13.6666667 31.375,14.375 C32.0833333,15.0833333 32.4583333,16.0416667 32.4583333,17.0416667 L32.4583333,23.3333333 C32.4583333,25.1666667 30.8333333,26.625 28.875,26.625 L27.5,26.625 L27.5,27.0416667 C27.5,29.25 26,31.0833333 23.9583333,31.625 L23.9583333,36.7083333 C23.9583333,38.5 22.3333333,40 20.375,40 Z M9.79166667,31.7916667 C9.79166667,31.7916667 9.79166667,31.7916667 9.79166667,31.7916667 C7.16666667,31.7916667 5.04166667,29.6666667 5.04166667,27.0416667 L5,18.75 C5,18.0416667 5.54166667,17.5 6.25,17.5 C6.25,17.5 6.25,17.5 6.25,17.5 C6.95833333,17.5 7.5,18.0416667 7.5,18.75 L7.54166667,27.0416667 C7.54166667,28.2916667 8.54166667,29.2916667 9.79166667,29.2916667 C10.5,29.2916667 11.0416667,29.875 11.0416667,30.5416667 C11.0416667,31.25 10.5,31.7916667 9.79166667,31.7916667 Z M26.125,11.875 C25.5416667,11.875 25,11.4583333 24.9166667,10.8333333 C24.5,8.58333333 22.7083333,6.58333333 20.0833333,5.58333333 L18.7916667,5.16666667 C17.1666667,4.79166667 15.4583333,4.79166667 13.7916667,5.16666667 L12.4583333,5.58333333 C9.83333333,6.58333333 8.04166667,8.54166667 7.625,10.8333333 C7.5,11.5 6.83333333,11.9583333 6.16666667,11.8333333 C5.5,11.7083333 5.04166667,11.0416667 5.16666667,10.375 C5.75,7.25 8.16666667,4.58333333 11.5833333,3.25 C11.625,3.25 11.625,3.25 11.6666667,3.20833333 L13.0416667,2.79166667 C13.0833333,2.79166667 13.0833333,2.79166667 13.125,2.75 C15.1666667,2.25 17.3333333,2.25 19.375,2.75 C19.4166667,2.75 19.4166667,2.75 19.4583333,2.79166667 L20.8333333,3.25 C20.875,3.25 20.875,3.25 20.9166667,3.29166667 C24.375,4.625 26.75,7.29166667 27.3333333,10.4583333 C27.4583333,11.125 27,11.7916667 26.3333333,11.9166667 C26.2916667,11.8333333 26.2083333,11.875 26.125,11.875 Z" id="Shape" fill="#444B54" fill-rule="nonzero"></path>
                <path d="M19.125,5.20833333 C18.7916667,5.20833333 18.5,5.08333333 18.25,4.83333333 C17.75,4.33333333 17.75,3.54166667 18.25,3.08333333 L20.7916667,0.583333333 C21.2916667,0.0833333333 22.0833333,0.0833333333 22.5416667,0.583333333 C23,1.08333333 23.0416667,1.875 22.5416667,2.33333333 L20,4.83333333 C19.75,5.08333333 19.4166667,5.20833333 19.125,5.20833333 Z" id="Path" fill="#444B54"></path>
                <path d="M6.25,26.6666667 L3.75,26.6666667 C1.66666667,26.6666667 0,25 0,22.9166667 L0,17.0833333 C0,15 1.66666667,13.3333333 3.75,13.3333333 C4.45833333,13.3333333 5,13.875 5,14.5833333 C5,15.2916667 4.45833333,15.8333333 3.75,15.8333333 C3.04166667,15.8333333 2.5,16.375 2.5,17.0833333 L2.5,22.9166667 C2.5,23.625 3.04166667,24.1666667 3.75,24.1666667 L6.25,24.1666667 C6.95833333,24.1666667 7.5,24.7083333 7.5,25.4166667 C7.5,26.125 6.95833333,26.6666667 6.25,26.6666667 Z" id="Path" fill="#444B54"></path>
                <path d="M12.125,40 C10.125,40 8.54166667,38.5 8.54166667,36.7083333 L8.54166667,30.5416667 C8.54166667,29.8333333 9.08333333,29.2916667 9.79166667,29.2916667 C10.5,29.2916667 11.0416667,29.8333333 11.0416667,30.5416667 L11.0416667,36.7083333 C11.0416667,37.125 11.5416667,37.5 12.125,37.5 C12.8333333,37.5 13.375,38.0416667 13.375,38.75 C13.375,39.4583333 12.8333333,40 12.125,40 Z" id="Path" fill="#444B54"></path>
            </g>
        </g>
    </g>
</svg>