<?xml version="1.0" encoding="UTF-8"?>
<svg width="35px" height="40px" viewBox="0 0 35 40" version="1.1" xmlns="http://www.w3.org/2000/svg" xmlns:xlink="http://www.w3.org/1999/xlink">
    <!-- Generator: Sketch 52.6 (67491) - http://www.bohemiancoding.com/sketch -->
    <title>2878037-apple-device-media-social-web</title>
    <desc>Created with Sketch.</desc>
    <g id="Page-1" stroke="none" stroke-width="1" fill="none" fill-rule="evenodd">
        <g id="Download-buttons" transform="translate(-439.000000, -441.000000)">
            <g id="2878037-apple-device-media-social-web" transform="translate(439.000000, 441.000000)">
                <path d="M24.9896907,9.64948454 C21.6907216,9.64948454 20.2886598,11.257732 17.9793814,11.257732 C15.628866,11.257732 13.814433,9.64948454 10.9278351,9.64948454 C8.12371134,9.64948454 5.11340206,11.4226804 3.21649485,14.4329897 C0.536082474,18.6804124 0.989690722,26.6804124 5.31958763,33.4845361 C6.88659794,35.9175258 8.94845361,38.6391753 11.6701031,38.6804124 C11.6701031,38.6804124 11.7113402,38.6804124 11.7113402,38.6804124 C14.0618557,38.6804124 14.7628866,37.0721649 18.0206186,37.0721649 C18.0206186,37.0721649 18.0618557,37.0721649 18.0618557,37.0721649 C21.2371134,37.0721649 21.8969072,38.6804124 24.2474227,38.6804124 C24.2474227,38.6804124 24.2886598,38.6804124 24.2886598,38.6804124 C27.0103093,38.6391753 29.1958763,35.628866 30.7216495,33.1958763 C31.8350515,31.4639175 32.2474227,30.556701 33.1134021,28.6185567 C26.8453608,26.185567 25.8556701,17.0309278 32.0412371,13.5257732 C30.1443299,11.0927835 27.4639175,9.64948454 24.9896907,9.64948454 Z" id="Path" fill="#E4E7E7"></path>
                <path d="M5.81443299,34.2680412 C5.97938144,34.5154639 6.1443299,34.7628866 6.30927835,34.9690722 C6.30927835,34.9690722 6.30927835,34.9690722 6.30927835,34.9690722 C4.24742268,29.443299 4.45360825,23.9175258 6.51546392,20.6185567 C8.41237113,17.6082474 11.4226804,15.8350515 14.2268041,15.8350515 C14.3505155,15.8350515 14.4742268,15.8350515 14.5979381,15.8350515 C18.2680412,15.7938144 21.9793814,16.5360825 25.2783505,18.185567 C26.1443299,18.5979381 27.0927835,18.9690722 28,19.1340206 C28.2061856,18.0618557 28.6185567,17.0309278 29.2371134,16.0824742 C29.2783505,15.9587629 29.3195876,15.9175258 29.3608247,15.9175258 C29.5257732,15.7113402 29.6907216,15.5051546 29.8556701,15.2989691 C29.8969072,15.257732 29.8969072,15.257732 29.8969072,15.2164948 C30.1030928,15.0103093 30.2680412,14.8041237 30.4742268,14.5979381 C30.4742268,14.5979381 30.4742268,14.5979381 30.4742268,14.5979381 C30.6804124,14.4329897 30.8865979,14.2680412 31.0927835,14.1030928 C31.1340206,14.0618557 31.2164948,14.0206186 31.257732,13.9793814 C31.5051546,13.814433 31.7113402,13.6494845 31.9587629,13.5257732 C31.5876289,13.0721649 31.2164948,12.6597938 30.8041237,12.2474227 C29.9793814,11.4639175 29.1134021,10.8865979 28.2061856,10.4329897 C28.0412371,10.3505155 27.9175258,10.3092784 27.7525773,10.2268041 C26.8041237,9.8556701 25.8556701,9.64948454 24.9072165,9.64948454 C23.0515464,9.64948454 21.7731959,10.1443299 20.6185567,10.5979381 C19.7113402,10.9278351 18.8865979,11.257732 17.8556701,11.257732 C15.5051546,11.257732 13.6907216,9.64948454 10.8041237,9.64948454 C10.2680412,9.64948454 9.73195876,9.73195876 9.19587629,9.81443299 C8.32989691,10.0206186 7.42268041,10.3917526 6.59793814,10.8865979 C5.93814433,11.2989691 5.27835052,11.7938144 4.70103093,12.371134 C4.12371134,12.9484536 3.54639175,13.6494845 3.09278351,14.3917526 C1.93814433,16.2474227 1.36082474,18.8041237 1.44329897,21.6907216 C1.56701031,24.9896907 2.51546392,28.6597938 4.45360825,32.1237113 C4.70103093,32.5773196 4.94845361,32.9896907 5.2371134,33.4020619 C5.40206186,33.6494845 5.5257732,33.8556701 5.69072165,34.1030928 C5.77319588,34.185567 5.77319588,34.2268041 5.81443299,34.2680412 Z" id="Path" fill="#FFFFFF"></path>
                <path d="M11.6701031,39.9175258 L11.628866,39.9175258 C8.32989691,39.8762887 5.93814433,36.8247423 4.24742268,34.1443299 C-0.0824742268,27.2989691 -0.989690722,18.7628866 2.1443299,13.7731959 C4.24742268,10.4742268 7.58762887,8.41237113 10.8865979,8.41237113 C12.6185567,8.41237113 13.9793814,8.90721649 15.1752577,9.36082474 C16.1649485,9.73195876 17.0309278,10.0206186 17.9381443,10.0206186 C18.7628866,10.0206186 19.4639175,9.73195876 20.3298969,9.40206186 C21.4845361,8.94845361 22.9278351,8.41237113 24.9484536,8.41237113 C27.8762887,8.41237113 30.8865979,10.0206186 32.9896907,12.742268 C33.4020619,13.2783505 33.3195876,14.0618557 32.7835052,14.4742268 C32.2474227,14.8865979 31.4639175,14.8041237 31.0515464,14.2680412 C29.4020619,12.1649485 27.1340206,10.8865979 24.9896907,10.8865979 C23.4226804,10.8865979 22.3092784,11.2989691 21.2783505,11.7113402 C20.2886598,12.0824742 19.257732,12.4948454 17.9793814,12.4948454 C16.6185567,12.4948454 15.5051546,12.0824742 14.3917526,11.6701031 C13.2783505,11.257732 12.2474227,10.8865979 10.9690722,10.8865979 C8.49484536,10.8865979 5.93814433,12.4948454 4.28865979,15.0927835 C2.06185567,18.5979381 2.06185567,25.9793814 6.39175258,32.7835052 C7.75257732,34.9278351 9.56701031,37.4020619 11.7113402,37.4020619 L11.7525773,37.4020619 C12.5773196,37.4020619 13.1134021,37.1546392 13.8556701,36.8247423 C14.8453608,36.371134 16.0412371,35.8350515 18.0618557,35.7938144 L18.1030928,35.7938144 C20.0824742,35.7938144 21.2783505,36.371134 22.2268041,36.7835052 C22.9690722,37.1134021 23.4639175,37.3608247 24.2886598,37.3608247 L24.3298969,37.3608247 C26.3505155,37.3195876 28.2886598,34.7216495 29.7319588,32.4536082 C30.556701,31.1340206 31.0103093,30.3505155 31.5463918,29.1134021 C28.5773196,27.4226804 26.6804124,24.0824742 26.6804124,20.4123711 C26.6804124,19.7113402 27.2164948,19.1752577 27.9175258,19.1752577 C28.6185567,19.1752577 29.1546392,19.7525773 29.1546392,20.4123711 C29.1546392,22.9690722 30.5154639,26.1443299 33.6082474,27.3402062 C33.9381443,27.4639175 34.185567,27.7113402 34.3092784,28 C34.4329897,28.3298969 34.4329897,28.6597938 34.3092784,28.9484536 C33.443299,30.9690722 32.9896907,31.9175258 31.8350515,33.7319588 C29.9381443,36.7010309 27.5463918,39.7525773 24.371134,39.7938144 L24.2886598,39.7938144 C22.9278351,39.7938144 22.0206186,39.3402062 21.1958763,38.9690722 C20.371134,38.556701 19.5463918,38.185567 18.1030928,38.185567 L18.0618557,38.185567 C16.5773196,38.185567 15.7525773,38.556701 14.8865979,38.9690722 C13.9793814,39.5051546 13.0309278,39.9175258 11.6701031,39.9175258 Z" id="Path" fill="#444B54"></path>
                <path d="M18.7216495,7.54639175 C18.3092784,7.54639175 17.9381443,7.34020619 17.6907216,7.01030928 C17.3195876,6.43298969 17.443299,5.69072165 18.0206186,5.27835052 C19.2989691,4.41237113 20.5773196,2.80412371 21.3608247,1.07216495 C21.6494845,0.453608247 22.3917526,0.164948454 23.0103093,0.453608247 C23.628866,0.742268041 23.9175258,1.48453608 23.628866,2.10309278 C22.6391753,4.28865979 21.0721649,6.22680412 19.3814433,7.34020619 C19.1752577,7.46391753 18.9690722,7.54639175 18.7216495,7.54639175 Z" id="Path" fill="#444B54"></path>
            </g>
        </g>
    </g>
</svg>