<?xml version="1.0" encoding="UTF-8"?>
<svg width="35px" height="33px" viewBox="0 0 35 33" version="1.1" xmlns="http://www.w3.org/2000/svg" xmlns:xlink="http://www.w3.org/1999/xlink">
    <!-- Generator: Sketch 52.6 (67491) - http://www.bohemiancoding.com/sketch -->
    <title>Chat help</title>
    <desc>Created with Sketch.</desc>
    <g id="Page-1" stroke="none" stroke-width="1" fill="none" fill-rule="evenodd">
        <g id="Pricing" transform="translate(-965.000000, -1258.000000)" fill="#4A4A4A">
            <g id="Chat-help" transform="translate(965.000000, 1258.000000)">
                <path d="M17.49996,6.29165 C13.0768451,6.29165 9.479145,9.88935011 9.479145,14.312465 C9.479145,18.7355799 13.0768451,22.33328 17.49996,22.33328 C21.9230749,22.33328 25.520775,18.7355799 25.520775,14.312465 C25.520775,9.88935011 21.9230749,6.29165 17.49996,6.29165 Z M17.49996,20.87495 C13.8818433,20.87495 10.937475,17.9305817 10.937475,14.312465 C10.937475,10.6943483 13.8818433,7.74998 17.49996,7.74998 C21.1180767,7.74998 24.062445,10.6943483 24.062445,14.312465 C24.062445,17.9305817 21.1180767,20.87495 17.49996,20.87495 Z" id="Shape" fill-rule="nonzero"></path>
                <path d="M16.9895445,18.1624562 C16.8437115,18.3082892 16.770795,18.4978721 16.770795,18.687455 C16.770795,18.8770379 16.8437115,19.0666208 16.9895445,19.1978705 C17.1207942,19.3437035 17.3103771,19.41662 17.49996,19.41662 C17.6895429,19.41662 17.8791258,19.3437035 18.0103755,19.1978705 C18.1562085,19.0666208 18.229125,18.8770379 18.229125,18.687455 C18.229125,18.4978721 18.1562085,18.3082892 18.0103755,18.1770395 C17.7478761,17.8999568 17.2666272,17.8999568 16.9895445,18.1624562 Z" id="Path"></path>
                <path d="M17.49996,9.20831 C15.5545478,9.20831 13.9883014,10.374974 13.85851,11.9237205 C13.8249684,12.3247612 14.1224677,12.6776771 14.5235085,12.7112187 C14.9260075,12.7593436 15.2774651,12.4472609 15.3110067,12.0462202 C15.3737149,11.2849719 16.3566293,10.66664 17.4985017,10.66664 C18.684124,10.66664 19.687455,11.3345551 19.687455,12.12497 C19.687455,12.8351767 18.9962066,13.2945507 17.513085,13.5687167 L17.354127,13.5993416 C17.0157944,13.6693415 16.7722533,13.9668408 16.7722533,14.312465 L16.770795,15.770795 C16.770795,16.1718358 17.0960026,16.49996 17.49996,16.49996 C17.9024591,16.49996 18.229125,16.1747524 18.229125,15.770795 L18.2320417,14.9074636 C20.1672456,14.4524647 21.1472433,13.5176752 21.1472433,12.12497 C21.1472433,10.516432 19.5109971,9.20831 17.49996,9.20831 Z" id="Path"></path>
                <path d="M17.49996,0.45833 C8.25268947,0.45833 0.729165,6.67373246 0.729165,14.312465 C0.729165,18.0282898 2.5666608,21.6099483 5.78811177,24.2130674 L3.67353327,31.6126338 C3.58603347,31.9203414 3.70853319,32.2484657 3.97686591,32.4234653 C4.09936563,32.5022151 4.23644865,32.54159 4.37499,32.54159 C4.54123962,32.54159 4.70748924,32.4847151 4.8416556,32.3738821 L11.1372662,27.1268107 C13.1716366,27.8166008 15.3095483,28.1666 17.49996,28.1666 C26.7472305,28.1666 34.270755,21.9511975 34.270755,14.312465 C34.270755,6.67373246 26.7472305,0.45833 17.49996,0.45833 Z M17.49996,26.70827 C15.3372566,26.70827 13.2299698,26.3407708 11.237891,25.6159808 C10.9943499,25.5255644 10.7216422,25.5751476 10.5218509,25.7399389 L5.72540358,29.7372214 L7.32519159,24.1401509 C7.4083164,23.8514015 7.30477497,23.5407772 7.06415052,23.358486 C3.91853271,20.9799498 2.187495,17.7672488 2.187495,14.312465 C2.187495,7.47727229 9.0562293,1.91666 17.49996,1.91666 C25.9436907,1.91666 32.812425,7.47727229 32.812425,14.312465 C32.812425,21.1476577 25.9436907,26.70827 17.49996,26.70827 Z" id="Shape" fill-rule="nonzero"></path>
            </g>
        </g>
    </g>
</svg>