<?xml version="1.0" encoding="UTF-8"?>
<svg version="1.1" viewBox="0 0 24 24" xmlns="http://www.w3.org/2000/svg" xmlns:xlink="http://www.w3.org/1999/xlink">
    <!--Generated by IJSVG (https://github.com/iconjar/IJSVG)-->
    <g fill="#4A4A4A">
        <path d="M12,24c-6.617,0 -12,-5.383 -12,-12c0,-6.617 5.383,-12 12,-12c6.617,0 12,5.383 12,12c0,6.617 -5.383,12 -12,12Zm0,-23c-6.065,0 -11,4.935 -11,11c0,6.065 4.935,11 11,11c6.065,0 11,-4.935 11,-11c0,-6.065 -4.935,-11 -11,-11Z"></path>
        <path d="M16.5,19c-0.097,0 -0.193,-0.028 -0.277,-0.084l-4.223,-2.815l-4.223,2.815c-0.173,0.116 -0.4,0.111 -0.57,-0.01c-0.169,-0.122 -0.245,-0.336 -0.19,-0.537l1.413,-5.179l-4.237,-3.295c-0.169,-0.131 -0.235,-0.355 -0.166,-0.557c0.069,-0.202 0.26,-0.338 0.473,-0.338h5.162l1.874,-4.686c0.152,-0.38 0.776,-0.38 0.929,0l1.873,4.686h5.162c0.213,0 0.404,0.136 0.473,0.338c0.069,0.202 0.002,0.426 -0.166,0.557l-4.237,3.295l1.412,5.179c0.055,0.201 -0.021,0.415 -0.19,0.537c-0.087,0.062 -0.189,0.094 -0.292,0.094Zm-4.5,-4c0.097,0 0.193,0.028 0.277,0.084l3.389,2.259l-1.149,-4.212c-0.053,-0.194 0.016,-0.402 0.175,-0.526l3.351,-2.605h-4.043c-0.205,0 -0.388,-0.125 -0.464,-0.314l-1.536,-3.84l-1.536,3.839c-0.076,0.19 -0.259,0.315 -0.464,0.315h-4.043l3.35,2.605c0.159,0.124 0.229,0.332 0.175,0.526l-1.149,4.212l3.389,-2.259c0.085,-0.056 0.181,-0.084 0.278,-0.084Z"></path>
    </g>
</svg>