<?xml version="1.0" encoding="UTF-8"?>
<svg version="1.1" viewBox="0 0 24 24" xmlns="http://www.w3.org/2000/svg" xmlns:xlink="http://www.w3.org/1999/xlink">
    <!--Generated by IJSVG (https://github.com/iconjar/IJSVG)-->
    <g fill="#4A4A4A">
        <path d="M24,1.701c0,-0.937 -0.764,-1.7 -1.702,-1.7c-0.687,0 -1.302,0.409 -1.568,1.043l-1.53,3.655c-0.456,-0.429 -1.051,-0.7 -1.7,-0.7h-15c-1.378,0 -2.5,1.122 -2.5,2.5v15c0,1.378 1.122,2.5 2.5,2.5h15c1.378,0 2.5,-1.122 2.5,-2.5v-10.945l3.84,-8.101c0.105,-0.223 0.16,-0.471 0.16,-0.752Zm-5,19.798c0,0.827 -0.673,1.5 -1.5,1.5h-15c-0.827,0 -1.5,-0.673 -1.5,-1.5v-15c0,-0.827 0.673,-1.5 1.5,-1.5h15c0.527,0 0.999,0.286 1.269,0.73l-1.769,4.228v-2.458c0,-0.276 -0.224,-0.5 -0.5,-0.5h-13c-0.276,0 -0.5,0.224 -0.5,0.5v4c0,0.276 0.224,0.5 0.5,0.5h12.645l-0.419,1h-4.226c-0.276,0 -0.5,0.224 -0.5,0.5v6c0,0.013 0.006,0.024 0.007,0.037c-0.411,0.365 -0.663,0.487 -0.681,0.494c-0.158,0.059 -0.276,0.192 -0.314,0.357c-0.038,0.168 0.012,0.344 0.134,0.466c0.724,0.724 1.723,1 2.7,1c1.249,0 2.46,-0.452 3.006,-1c0.786,-0.786 1.362,-2.344 0.927,-3.505l2.221,-4.684v8.835Zm-6.355,-4.852c-0.311,0.311 -0.504,0.634 -0.645,0.947v-3.594h3.308l-0.767,1.832c-0.668,-0.012 -1.339,0.257 -1.896,0.815Zm-0.667,3.354c0.418,-0.419 0.566,-0.901 0.708,-1.367c0.138,-0.454 0.269,-0.884 0.667,-1.282c0.707,-0.707 1.586,-0.707 2.293,0c0.633,0.633 0.15,2.143 -0.5,2.793c-0.542,0.541 -2.469,1.063 -3.762,0.387c0.172,-0.134 0.37,-0.307 0.594,-0.531Zm4.126,-3.563c-0.185,-0.15 -0.376,-0.278 -0.576,-0.372l1.346,-3.217l0.756,0.371l-1.526,3.218Zm-0.104,-8.439v3h-12v-3h12Zm6.935,-5.972l-4.878,10.29l-0.797,-0.391l2.535,-6.058c0,0 0,0 0,0l1.857,-4.438c0.109,-0.261 0.363,-0.429 0.647,-0.429c0.386,0 0.7,0.314 0.7,0.734c3.55271e-15,0.1 -0.022,0.203 -0.064,0.292Z"></path>
        <path d="M8.5,12.999h-5c-0.276,0 -0.5,0.224 -0.5,0.5v7c0,0.276 0.224,0.5 0.5,0.5h5c0.276,0 0.5,-0.224 0.5,-0.5v-7c0,-0.276 -0.224,-0.5 -0.5,-0.5Zm-0.5,7h-4v-6h4v6Z"></path>
    </g>
</svg>