<?xml version="1.0" encoding="UTF-8"?>
<svg width="20" height="20" version="1.1" viewBox="0 0 20 20" xmlns="http://www.w3.org/2000/svg" xmlns:xlink="http://www.w3.org/1999/xlink">
    <!--Generated by IJSVG (https://github.com/iconjar/IJSVG)-->
    <g transform="scale(0.833333)">
        <path fill="#000" d="M21.5,20h-19c-1.379,0 -2.5,-1.122 -2.5,-2.5v-11c0,-1.378 1.121,-2.5 2.5,-2.5h19c1.379,0 2.5,1.122 2.5,2.5v11c0,1.378 -1.121,2.5 -2.5,2.5Zm-19,-15c-0.827,0 -1.5,0.673 -1.5,1.5v11c0,0.827 0.673,1.5 1.5,1.5h19c0.827,0 1.5,-0.673 1.5,-1.5v-11c0,-0.827 -0.673,-1.5 -1.5,-1.5h-19Z"></path>
        <path fill="#000" d="M23.5,11h-23c-0.276,0 -0.5,-0.224 -0.5,-0.5v-3c0,-0.276 0.224,-0.5 0.5,-0.5h23c0.276,0 0.5,0.224 0.5,0.5v3c0,0.276 -0.224,0.5 -0.5,0.5Zm-22.5,-1h22v-2h-22v2Z"></path>
    </g>
</svg>