<?xml version="1.0" encoding="UTF-8"?>
<svg width="27px" height="27px" viewBox="0 0 27 27" version="1.1" xmlns="http://www.w3.org/2000/svg" xmlns:xlink="http://www.w3.org/1999/xlink">
    <!-- Generator: Sketch 52.3 (67297) - http://www.bohemiancoding.com/sketch -->
    <title>Group</title>
    <desc>Created with Sketch.</desc>
    <g id="Page-1" stroke="none" stroke-width="1" fill="none" fill-rule="evenodd" stroke-linecap="round" stroke-linejoin="round">
        <g id="Billing-page" transform="translate(-307.000000, -358.000000)" stroke="#FFFFFF">
            <g id="Group" transform="translate(303.000000, 354.000000)">
                <path d="M26.199831,8.7887076 C31.0096725,13.5985491 31.0096725,21.3968315 26.199831,26.206673 C21.3899896,31.0165145 13.5917071,31.0165145 8.78186566,26.206673 C3.97202417,21.3968315 3.97202417,13.5985491 8.78186566,8.7887076 C13.5917071,3.97886611 21.3899896,3.97886611 26.199831,8.7887076" id="Path" stroke-width="1.00000528" transform="translate(17.490848, 17.497690) rotate(45.000000) translate(-17.490848, -17.497690) "></path>
                <path d="M23.3844335,11.6039765 C26.6394905,14.8590335 26.6394905,20.1365311 23.3844335,23.3916021 C20.1293765,26.6466591 14.8518788,26.6466591 11.5968078,23.3916021 C8.34175083,20.1365451 8.34175083,14.8590475 11.5968078,11.6039765 C14.8518648,8.34891946 20.1293625,8.34891946 23.3844335,11.6039765" id="Path" stroke-width="1.00000528" transform="translate(17.490621, 17.497789) rotate(45.000000) translate(-17.490621, -17.497789) "></path>
                <path d="M23.3842,23.3912 L26.191186,26.198186" id="Path" stroke-width="1.00000497"></path>
                <path d="M8.78962,8.7976 L11.596606,11.604586" id="Path" stroke-width="1.00000497"></path>
                <path d="M11.59662,23.3912 L8.789634,26.198186" id="Path" stroke-width="1.00000497"></path>
                <path d="M26.1912,8.7976 L23.384214,11.604586" id="Path" stroke-width="1.00000497"></path>
            </g>
        </g>
    </g>
</svg>