<?xml version="1.0" encoding="UTF-8"?>
<svg width="12px" height="18px" viewBox="0 0 12 18" version="1.1" xmlns="http://www.w3.org/2000/svg" xmlns:xlink="http://www.w3.org/1999/xlink">
    <!-- Generator: Sketch 52.3 (67297) - http://www.bohemiancoding.com/sketch -->
    <title>Registry List</title>
    <desc>Created with Sketch.</desc>
    <g id="Page-1" stroke="none" stroke-width="1" fill="none" fill-rule="evenodd">
        <g id="Billing-page" transform="translate(-989.000000, -161.000000)" fill="#000000">
            <g id="Registry-List" transform="translate(989.000000, 161.000000)">
                <path d="M11.5499943,17.9999928 L10.7999946,17.9999928 C10.5929947,17.9999928 10.4249947,17.8319929 10.4249947,17.6249929 C10.4249947,17.417993 10.2562448,17.2499931 10.0499949,17.2499931 C9.84374498,17.2499931 9.67499505,17.417993 9.67499505,17.6249929 C9.67499505,17.8319929 9.50699512,17.9999928 9.2999952,17.9999928 C9.09299528,17.9999928 8.92499535,17.8319929 8.92499535,17.6249929 C8.92499535,17.417993 8.75624542,17.2499931 8.5499955,17.2499931 C8.34374558,17.2499931 8.17499565,17.417993 8.17499565,17.6249929 C8.17499565,17.8319929 8.00699572,17.9999928 7.7999958,17.9999928 C7.59299588,17.9999928 7.42499595,17.8319929 7.42499595,17.6249929 C7.42499595,17.417993 7.25624602,17.2499931 7.0499961,17.2499931 C6.84374618,17.2499931 6.67499625,17.417993 6.67499625,17.6249929 C6.67499625,17.8319929 6.50699632,17.9999928 6.2999964,17.9999928 C6.09299648,17.9999928 5.92499655,17.8319929 5.92499655,17.6249929 C5.92499655,17.417993 5.75624662,17.2499931 5.5499967,17.2499931 C5.34374678,17.2499931 5.17499685,17.417993 5.17499685,17.6249929 C5.17499685,17.8319929 5.00699692,17.9999928 4.799997,17.9999928 C4.59299708,17.9999928 4.42499715,17.8319929 4.42499715,17.6249929 C4.42499715,17.417993 4.25624722,17.2499931 4.0499973,17.2499931 C3.84374738,17.2499931 3.67499745,17.417993 3.67499745,17.6249929 C3.67499745,17.8319929 3.50699752,17.9999928 3.2999976,17.9999928 C3.09299768,17.9999928 2.92499775,17.8319929 2.92499775,17.6249929 C2.92499775,17.417993 2.75624782,17.2499931 2.5499979,17.2499931 C2.34374798,17.2499931 2.17499805,17.417993 2.17499805,17.6249929 C2.17499805,17.8319929 2.00699812,17.9999928 1.7999982,17.9999928 L1.0499985,17.9999928 C0.842998583,17.9999928 0.67499865,17.8319929 0.67499865,17.6249929 L0.67499865,0.37499985 C0.67499865,0.167999933 0.842998583,0 1.0499985,0 L1.7999982,0 C2.00699812,0 2.17499805,0.167999933 2.17499805,0.37499985 C2.17499805,0.581999767 2.34374798,0.7499997 2.5499979,0.7499997 C2.75624782,0.7499997 2.92499775,0.581999767 2.92499775,0.37499985 C2.92499775,0.167999933 3.09299768,0 3.2999976,0 C3.50699752,0 3.67499745,0.167999933 3.67499745,0.37499985 C3.67499745,0.581999767 3.84374738,0.7499997 4.0499973,0.7499997 C4.25624722,0.7499997 4.42499715,0.581999767 4.42499715,0.37499985 C4.42499715,0.167999933 4.59299708,0 4.799997,0 C5.00699692,0 5.17499685,0.167999933 5.17499685,0.37499985 C5.17499685,0.581999767 5.34374678,0.7499997 5.5499967,0.7499997 C5.75624662,0.7499997 5.92499655,0.581999767 5.92499655,0.37499985 C5.92499655,0.167999933 6.09299648,0 6.2999964,0 C6.50699632,0 6.67499625,0.167999933 6.67499625,0.37499985 C6.67499625,0.581999767 6.84374618,0.7499997 7.0499961,0.7499997 C7.25624602,0.7499997 7.42499595,0.581999767 7.42499595,0.37499985 C7.42499595,0.167999933 7.59299588,0 7.7999958,0 C8.00699572,0 8.17499565,0.167999933 8.17499565,0.37499985 C8.17499565,0.581999767 8.34374558,0.7499997 8.5499955,0.7499997 C8.75624542,0.7499997 8.92499535,0.581999767 8.92499535,0.37499985 C8.92499535,0.167999933 9.09299528,0 9.2999952,0 C9.50699512,0 9.67499505,0.167999933 9.67499505,0.37499985 C9.67499505,0.581999767 9.84374498,0.7499997 10.0499949,0.7499997 C10.2562448,0.7499997 10.4249947,0.581999767 10.4249947,0.37499985 C10.4249947,0.167999933 10.5929947,0 10.7999946,0 L11.5499943,0 C11.7569942,0 11.9249941,0.167999933 11.9249941,0.37499985 L11.9249941,17.6249929 C11.9249941,17.8319929 11.7569942,17.9999928 11.5499943,17.9999928 Z M11.1104945,17.2499931 L11.1749944,17.2499931 L11.1749944,0.7499997 L11.1104945,0.7499997 C10.9559945,1.18649953 10.5389947,1.4999994 10.0499949,1.4999994 C9.76199502,1.4999994 9.49949512,1.39124944 9.2999952,1.21274951 C8.90174536,1.56974937 8.19824564,1.56974937 7.7999958,1.21274951 C7.40174596,1.56974937 6.69824624,1.56974937 6.2999964,1.21274951 C5.90174656,1.56974937 5.19824684,1.56974937 4.799997,1.21274951 C4.40174716,1.56974937 3.69824744,1.56974937 3.2999976,1.21274951 C3.10049768,1.39124944 2.83799778,1.4999994 2.5499979,1.4999994 C2.0609981,1.4999994 1.64399826,1.18649953 1.48949832,0.7499997 L1.42499835,0.7499997 L1.42499835,17.2499931 L1.48949832,17.2499931 C1.64399826,16.8134933 2.0609981,16.4999934 2.5499979,16.4999934 C2.83799778,16.4999934 3.10049768,16.6087434 3.2999976,16.7872433 C3.69824744,16.4302434 4.40174716,16.4302434 4.799997,16.7872433 C5.19824684,16.4302434 5.90174656,16.4302434 6.2999964,16.7872433 C6.69824624,16.4302434 7.40174596,16.4302434 7.7999958,16.7872433 C8.19824564,16.4302434 8.90174536,16.4302434 9.2999952,16.7872433 C9.49949512,16.6087434 9.76199502,16.4999934 10.0499949,16.4999934 C10.5389947,16.4999934 10.9559945,16.8134933 11.1104945,17.2499931 Z" id="Shape" fill-rule="nonzero"></path>
                <path d="M5.5499967,2.9999988 L2.5499979,2.9999988 C2.34299798,2.9999988 2.17499805,2.83199887 2.17499805,2.62499895 C2.17499805,2.41799903 2.34299798,2.2499991 2.5499979,2.2499991 L5.5499967,2.2499991 C5.75699662,2.2499991 5.92499655,2.41799903 5.92499655,2.62499895 C5.92499655,2.83199887 5.75699662,2.9999988 5.5499967,2.9999988 Z" id="Path"></path>
                <path d="M10.0499949,5.2499979 L2.5499979,5.2499979 C2.34299798,5.2499979 2.17499805,5.08199797 2.17499805,4.87499805 C2.17499805,4.66799813 2.34299798,4.4999982 2.5499979,4.4999982 L10.0499949,4.4999982 C10.2569948,4.4999982 10.4249947,4.66799813 10.4249947,4.87499805 C10.4249947,5.08199797 10.2569948,5.2499979 10.0499949,5.2499979 Z" id="Path"></path>
                <path d="M10.0499949,7.499997 L2.5499979,7.499997 C2.34299798,7.499997 2.17499805,7.33199707 2.17499805,7.12499715 C2.17499805,6.91799723 2.34299798,6.7499973 2.5499979,6.7499973 L10.0499949,6.7499973 C10.2569948,6.7499973 10.4249947,6.91799723 10.4249947,7.12499715 C10.4249947,7.33199707 10.2569948,7.499997 10.0499949,7.499997 Z" id="Path"></path>
                <path d="M6.2999964,9.7499961 L2.5499979,9.7499961 C2.34299798,9.7499961 2.17499805,9.58199617 2.17499805,9.37499625 C2.17499805,9.16799633 2.34299798,8.9999964 2.5499979,8.9999964 L6.2999964,8.9999964 C6.50699632,8.9999964 6.67499625,9.16799633 6.67499625,9.37499625 C6.67499625,9.58199617 6.50699632,9.7499961 6.2999964,9.7499961 Z" id="Path"></path>
                <path d="M5.5499967,11.9999952 L2.5499979,11.9999952 C2.34299798,11.9999952 2.17499805,11.8319953 2.17499805,11.6249953 C2.17499805,11.4179954 2.34299798,11.2499955 2.5499979,11.2499955 L5.5499967,11.2499955 C5.75699662,11.2499955 5.92499655,11.4179954 5.92499655,11.6249953 C5.92499655,11.8319953 5.75699662,11.9999952 5.5499967,11.9999952 Z" id="Path"></path>
                <path d="M5.5499967,14.2499943 L2.5499979,14.2499943 C2.34299798,14.2499943 2.17499805,14.0819944 2.17499805,13.8749944 C2.17499805,13.6679945 2.34299798,13.4999946 2.5499979,13.4999946 L5.5499967,13.4999946 C5.75699662,13.4999946 5.92499655,13.6679945 5.92499655,13.8749944 C5.92499655,14.0819944 5.75699662,14.2499943 5.5499967,14.2499943 Z" id="Path"></path>
                <path d="M8.5499955,15.7499937 C8.34299558,15.7499937 8.17499565,15.5819938 8.17499565,15.3749939 L8.17499565,9.37499625 C8.17499565,9.16799633 8.34299558,8.9999964 8.5499955,8.9999964 C8.75699542,8.9999964 8.92499535,9.16799633 8.92499535,9.37499625 L8.92499535,15.3749939 C8.92499535,15.5819938 8.75699542,15.7499937 8.5499955,15.7499937 Z" id="Path"></path>
            </g>
        </g>
    </g>
</svg>