<?xml version="1.0" encoding="UTF-8"?>
<svg width="20" height="20" version="1.1" viewBox="0 0 20 20" xmlns="http://www.w3.org/2000/svg" xmlns:xlink="http://www.w3.org/1999/xlink">
    <!--Generated by IJSVG (https://github.com/iconjar/IJSVG)-->
    <path d="M7.854,16.147c-0.046,-0.046 -0.102,-0.083 -0.163,-0.108c-0.035,-0.014 -0.073,-0.016 -0.109,-0.022c-0.028,-0.005 -0.053,-0.017 -0.082,-0.017c-0.038,0 -0.072,0.014 -0.108,0.022c-0.027,0.006 -0.055,0.006 -0.081,0.016c-0.063,0.026 -0.12,0.064 -0.167,0.111l-1.497,1.497c-0.195,0.195 -0.195,0.512 0,0.707c0.195,0.195 0.512,0.195 0.707,0l0.646,-0.645v1.792c0,0.276 0.224,0.5 0.5,0.5c0.276,0 0.5,-0.224 0.5,-0.5v-1.792l0.646,0.646c0.098,0.097 0.226,0.146 0.354,0.146c0.128,0 0.256,-0.049 0.354,-0.146c0.195,-0.195 0.195,-0.512 0,-0.707l-1.5,-1.5c0,0 0,0 0,0Zm5.195,6.413l-1.049,0.286v-21.692l10.001,2.728v8.878c0,0.276 0.224,0.5 0.5,0.5c0.276,0 0.5,-0.224 0.5,-0.5v-9.26c0,-0.225 -0.151,-0.422 -0.369,-0.482l-11,-3c-0.014,-0.004 -0.029,0.003 -0.043,0c-0.03,-0.006 -0.057,-0.018 -0.089,-0.018c-0.032,0 -0.059,0.012 -0.089,0.018c-0.014,0.003 -0.028,-0.004 -0.042,0l-11,3c-0.218,0.059 -0.369,0.256 -0.369,0.482v17c0,0.225 0.151,0.422 0.369,0.482l11,3c0.043,0.012 0.087,0.018 0.131,0.018c0.044,0 0.088,-0.006 0.132,-0.017l1.68,-0.458c0.267,-0.073 0.424,-0.348 0.351,-0.614c-0.073,-0.267 -0.351,-0.422 -0.614,-0.351Zm-9.048,-19.496l2.999,-0.818v9.047l-0.5,0.5l-0.646,-0.646c-0.195,-0.195 -0.512,-0.195 -0.707,0l-0.646,0.646l-0.5,-0.5v-8.229Zm6.999,19.781l-9.999,-2.727v-16.236l2,-0.546v8.164c0,0.133 0.052,0.26 0.146,0.354l1,1c0.195,0.195 0.512,0.195 0.707,0l0.646,-0.646l0.646,0.646c0.098,0.097 0.226,0.146 0.354,0.146c0.128,0 0.256,-0.049 0.354,-0.146l1,-1c0.093,-0.094 0.146,-0.221 0.146,-0.354v-9.5c0,-0.009 -0.005,-0.017 -0.005,-0.026l3.005,-0.819v21.69Zm10.852,-6.698c-0.195,-0.195 -0.512,-0.195 -0.707,0l-3.646,3.646l-1.646,-1.646c-0.195,-0.195 -0.512,-0.195 -0.707,0c-0.195,0.195 -0.195,0.512 0,0.707l2,2c0.098,0.097 0.226,0.146 0.354,0.146c0.128,0 0.256,-0.049 0.352,-0.146l4,-4c0.195,-0.195 0.195,-0.512 0,-0.707Zm-3.352,-3.147c-3.033,0 -5.5,2.467 -5.5,5.5c0,3.033 2.467,5.5 5.5,5.5c3.033,0 5.5,-2.467 5.5,-5.5c0,-3.033 -2.467,-5.5 -5.5,-5.5Zm0,10c-2.481,0 -4.5,-2.019 -4.5,-4.5c0,-2.481 2.019,-4.5 4.5,-4.5c2.481,0 4.5,2.019 4.5,4.5c0,2.481 -2.019,4.5 -4.5,4.5Z" transform="scale(0.833333)" fill="#59666E"></path>
</svg>