<?xml version="1.0" encoding="UTF-8"?>
<svg width="20" height="20" version="1.1" viewBox="0 0 20 20" xmlns="http://www.w3.org/2000/svg" xmlns:xlink="http://www.w3.org/1999/xlink">
    <!--Generated by IJSVG (https://github.com/iconjar/IJSVG)-->
    <path d="M18,10h-9.5v-3.5c0,-1.93 1.57,-3.5 3.5,-3.5c1.93,0 3.5,1.57 3.5,3.5v2c0,0.276 0.224,0.5 0.5,0.5h2c0.276,0 0.5,-0.224 0.5,-0.5v-2c0,-3.584 -2.916,-6.5 -6.5,-6.5c-3.584,0 -6.5,2.916 -6.5,6.5v3.551c-1.14,0.232 -2,1.243 -2,2.449v9c0,1.378 1.121,2.5 2.5,2.5h12c1.379,0 2.5,-1.122 2.5,-2.5v-9c0,-1.378 -1.121,-2.5 -2.5,-2.5Zm-11.5,-3.5c0,-3.033 2.468,-5.5 5.5,-5.5c3.032,0 5.5,2.467 5.5,5.5v1.5h-1v-1.5c0,-2.481 -2.019,-4.5 -4.5,-4.5c-2.481,0 -4.5,2.019 -4.5,4.5v3.5h-1v-3.5Zm13,15c0,0.827 -0.673,1.5 -1.5,1.5h-12c-0.827,0 -1.5,-0.673 -1.5,-1.5v-9c0,-0.827 0.673,-1.5 1.5,-1.5h12c0.827,0 1.5,0.673 1.5,1.5v9Zm-7.5,-8.5c-1.379,0 -2.5,1.122 -2.5,2.5c0,0.95 0.555,1.813 1.391,2.231l-0.386,2.699c-0.021,0.143 0.022,0.289 0.117,0.398c0.095,0.109 0.233,0.172 0.378,0.172h2c0.145,0 0.283,-0.064 0.378,-0.173c0.095,-0.109 0.138,-0.254 0.117,-0.398l-0.386,-2.699c0.836,-0.417 1.391,-1.28 1.391,-2.23c-1.77636e-15,-1.378 -1.121,-2.5 -2.5,-2.5Zm0.418,3.931c-0.238,0.07 -0.389,0.305 -0.354,0.551l0.36,2.518h-0.848l0.36,-2.518c0.036,-0.246 -0.116,-0.481 -0.354,-0.551c-0.647,-0.189 -1.082,-0.764 -1.082,-1.431c0,-0.827 0.673,-1.5 1.5,-1.5c0.827,0 1.5,0.673 1.5,1.5c0,0.667 -0.435,1.242 -1.082,1.431Z" transform="scale(0.833333)" fill="#59666E"></path>
</svg>