<?xml version="1.0" encoding="UTF-8"?>
<svg width="20" height="20" version="1.1" viewBox="0 0 20 20" xmlns="http://www.w3.org/2000/svg" xmlns:xlink="http://www.w3.org/1999/xlink">
    <!--Generated by IJSVG (https://github.com/iconjar/IJSVG)-->
    <defs>
        <path d="M-155.801,-47.1384v-150.835" id="a"></path>
        <path d="M18.2391,-367.222l95.2036,-87.9284" id="f"></path>
        <path d="M18.2391,-367.222l95.2036,87.9284" id="g"></path>
        <path d="M-155.801,-197.973l43.4817,44.4238" id="c"></path>
        <path d="M-158.467,96.6716l38.8891,38.0512" id="d"></path>
        <path d="M-179.326,-367.222l95.2036,62.4843" id="i"></path>
        <path d="M-158.467,96.6716l38.8891,-38.0511" id="e"></path>
        <path d="M-155.801,-197.973l-43.4817,44.4238" id="b"></path>
        <path d="M-179.326,-367.222l95.2036,-62.4843" id="h"></path>
    </defs>
    <g transform="scale(0.107987)">
        <g transform="matrix(1,0,0,1,244.173,202.685)">
            <g transform="matrix(1,0,0,1,106.908,902.208)">
                <path fill="none" stroke="#59666E" stroke-linecap="round" stroke-linejoin="round" stroke-width="9.26042" d="M-172.905,-1050.92c3.39877,-2.5377 2.99925,-7.8285 0,-10.8277l-36.2039,-36.2043c-2.99924,-2.9992 -7.82831,-2.9992 -10.8276,0l-58.7168,58.6149l-58.6379,58.5359c-3.02589,18.7716 -6.1309,37.6222 -9.15691,56.3938l56.1819,-9.36844c30.3725,-30.3728 44.725,-44.6709 59.2112,-59.1027c14.4861,-14.4319 28.7335,-28.6246 58.15,-58.0414Z"></path>
                <path fill="#59666E" stroke="none" stroke-linecap="round" stroke-linejoin="round" d="M-601.165,865.359h11.0673v67.3069h-11.0673Z" transform="matrix(-0.707103,0.707111,-0.707103,-0.707111,0,0)"></path>
                <path fill="#59666E" stroke="none" d="M-312.874,-925.234l-32.2981,-32.2985l-1.2759,33.1223Z"></path>
                <path fill="#59666E" stroke="none" stroke-linecap="round" stroke-linejoin="round" d="M-467.454,865.783h11.0673v67.3069h-11.0673Z" transform="matrix(-0.707103,0.707111,-0.707103,-0.707111,0,0)"></path>
            </g>
            <g transform="matrix(1,0,0,1,-22.7253,-737.991)">
                <path fill="#59666E" stroke="none" stroke-linecap="round" stroke-linejoin="round" d="M-348.783,-1720.09c2.08312,2.08617 2.08312,5.46853 0,7.5547c-2.08312,2.08617 -5.46051,2.08617 -7.54363,0c-2.08312,-2.08617 -2.08312,-5.46853 0,-7.5547c2.08312,-2.08617 5.46051,-2.08617 7.54363,0"></path>
                <path fill="none" stroke="#59666E" stroke-linecap="round" stroke-linejoin="round" stroke-width="9.26042" d="M-352.555,-1698.49v37.8585"></path>
                <path fill="none" stroke="#59666E" stroke-linecap="round" stroke-linejoin="round" stroke-width="9.26042" d="M-436.722,-1743.29c-2.10926,0 -3.80747,1.7045 -3.80747,3.8223v103.568c0,2.1178 1.69821,3.8231 3.80747,3.8231h23.2405v36.2859l71.3745,-36.2859h31.6345h42.0833c2.10914,0 3.80758,-1.7053 3.80758,-3.8231v-103.568c0,-2.1178 -1.69844,-3.8223 -3.80758,-3.8223Z"></path>
            </g>
            <g transform="matrix(1,0,0,1,556.426,-843.569)">
                <path fill="none" stroke="#59666E" stroke-linecap="round" stroke-linejoin="round" stroke-width="9.26042" d="M-1849.96,-304.31h41.1225l69.633,-108.803h23.9087h41.1225"></path>
                <path fill="none" stroke="#59666E" stroke-linecap="round" stroke-linejoin="round" stroke-width="9.26042" d="M-1674.18,-413.113l-39.6587,-19.9931"></path>
                <path fill="none" stroke="#59666E" stroke-linecap="round" stroke-linejoin="round" stroke-width="9.26042" d="M-1674.18,-413.113l-39.6587,19.9932"></path>
                <path fill="none" stroke="#59666E" stroke-linecap="round" stroke-linejoin="round" stroke-width="9.26042" d="M-1674.18,-304.31l-39.6587,-19.9932"></path>
                <path fill="none" stroke="#59666E" stroke-linecap="round" stroke-linejoin="round" stroke-width="9.26042" d="M-1674.18,-304.31l-39.6587,19.9932"></path>
                <path fill="none" stroke="#59666E" stroke-linecap="round" stroke-linejoin="round" stroke-width="9.26042" d="M-1850.01,-413.105h41.1225l69.6331,108.803h23.9086h41.1226"></path>
            </g>
            <g transform="matrix(1,0,0,1,-396.859,-1264.92)">
                <path fill="none" stroke="#59666E" stroke-linecap="round" stroke-linejoin="round" stroke-width="9.26042" d="M-867.121,-414.187h104.674c3.37276,0 6.08811,2.70492 6.08811,6.06485v144.094c0,3.35992 -2.71535,6.06484 -6.08811,6.06484h-104.674c-3.37287,0 -6.08822,-2.70492 -6.08822,-6.06484v-144.094c0,-3.35993 2.71535,-6.06485 6.08822,-6.06485Z"></path>
                <path fill="none" stroke="#59666E" stroke-linecap="round" stroke-linejoin="round" stroke-width="9.26042" d="M-872.764,-428.604h116.317"></path>
                <path fill="none" stroke="#59666E" stroke-linecap="round" stroke-linejoin="round" stroke-width="9.26042" d="M-847.834,-394.011v115.871"></path>
                <path fill="none" stroke="#59666E" stroke-linecap="round" stroke-linejoin="round" stroke-width="9.26042" d="M-814.784,-394.011v115.871"></path>
                <path fill="none" stroke="#59666E" stroke-linecap="round" stroke-linejoin="round" stroke-width="9.26042" d="M-781.734,-394.011v115.871"></path>
                <path fill="none" stroke="#59666E" stroke-linecap="round" stroke-linejoin="round" stroke-width="9.26042" d="M-831.685,-433.911h34.1593"></path>
            </g>
            <g transform="matrix(1,0,0,1,-1842.22,-908.827)">
                <path fill="none" stroke="#59666E" stroke-linecap="round" stroke-linejoin="round" stroke-width="9.26042" d="M-508.094,-666.261l-0.00027,50.6349c0,1.26357 -0.84285,2.2808 -1.89013,2.2808h-172.173c-1.04714,0 -1.89013,-1.01723 -1.89013,-2.2808v-50.6349"></path>
                <g transform="matrix(1,0,0,-1,-440.27,-837.778)">
                    <use fill="none" stroke="#59666E" stroke-linecap="round" stroke-linejoin="round" stroke-width="9.26042" xlink:href="#a"></use>
                    <use fill="none" stroke="#59666E" stroke-linecap="round" stroke-linejoin="round" stroke-width="9.26042" xlink:href="#b"></use>
                    <use fill="none" stroke="#59666E" stroke-linecap="round" stroke-linejoin="round" stroke-width="9.26042" xlink:href="#c"></use>
                </g>
            </g>
            <g transform="matrix(1,0,0,1,-1852.4,-902.058)">
                <path fill="none" stroke="#59666E" stroke-linecap="round" stroke-linejoin="round" stroke-width="9.26042" d="M-190.138,-620.904l-0.00016,-175.782"></path>
                <path fill="none" stroke="#59666E" stroke-linecap="round" stroke-linejoin="round" stroke-width="9.26042" d="M-154.995,-620.804l-70.2865,-0.00015"></path>
                <path fill="none" stroke="#59666E" stroke-linecap="round" stroke-linejoin="round" stroke-width="9.26042" d="M-154.995,-796.785l-70.2865,-0.00015"></path>
            </g>
            <g transform="matrix(1,0,0,1,150.4,-731.41)">
                <path fill="none" stroke="#59666E" stroke-linecap="round" stroke-linejoin="round" stroke-width="9.26042" d="M-1004.94,-1676.12h175.823"></path>
                <path fill="none" stroke="#59666E" stroke-linecap="round" stroke-linejoin="round" stroke-width="9.26042" d="M-1004.94,-1735.3h175.823"></path>
                <path fill="none" stroke="#59666E" stroke-linecap="round" stroke-linejoin="round" stroke-width="9.26042" d="M-1004.94,-1616.93h175.823"></path>
            </g>
            <g transform="matrix(1.40223,0,0,1.45557,666.007,-1856.04)">
                <path fill="none" stroke="#59666E" stroke-linecap="round" stroke-linejoin="round" stroke-width="6.48193" d="M-127.05,-111.185v84.9399h-97.2036v-120.685v0h59.7601"></path>
                <path fill="none" stroke="#59666E" stroke-linecap="round" stroke-linejoin="round" stroke-width="6.48193" d="M-128.344,-109.95h-36.1495c-0.71698,0 -1.2941,-0.55098 -1.2941,-1.23539v-34.5101c0,-0.6844 0.57712,-1.23539 1.2941,-1.23539l37.4436,35.7455c0,0.68441 -0.57721,1.23539 -1.29411,1.23539Z"></path>
            </g>
            <g transform="matrix(1.40338,0,0,1.39531,-518.943,-1492.03)">
                <g transform="matrix(0.820349,0,0,0.81915,-1000.82,8.59087)">
                    <path fill="none" stroke="#59666E" stroke-linecap="round" stroke-linejoin="round" stroke-width="8.07283" d="M1064.03,-145.824v108.35h-118.37v-153.947v0h72.7732"></path>
                    <path fill="none" stroke="#59666E" stroke-linecap="round" stroke-linejoin="round" stroke-width="8.07283" d="M1062.46,-144.248h-44.0213c-0.8731,0 -1.5759,-0.70284 -1.5759,-1.57588v-44.0213c0,-0.87303 0.7028,-1.57588 1.5759,-1.57588l45.5972,45.5972c0,0.87304 -0.7029,1.57588 -1.5759,1.57588Z"></path>
                </g>
                <path fill="none" stroke="#59666E" stroke-linecap="round" stroke-linejoin="round" stroke-width="6.61769" d="M-203.727,-65.8359h56.1502"></path>
                <path fill="none" stroke="#59666E" stroke-linecap="round" stroke-linejoin="round" stroke-width="6.61769" d="M-203.727,-86.5883h56.1502"></path>
                <path fill="none" stroke="#59666E" stroke-linecap="round" stroke-linejoin="round" stroke-width="6.61769" d="M-203.727,-45.0836h56.1502"></path>
            </g>
            <g transform="matrix(1,0,0,1,604.6,-721.44)">
                <path fill="none" stroke="#59666E" stroke-linejoin="round" stroke-width="9.26042" d="M-1479.3,-1348.61c43.987,0 87.974,0 131.961,0c14.6624,14.6623 29.3246,29.3246 43.9869,43.9869c0,43.987 0,87.974 0,131.961c-58.6493,0 -117.299,0 -175.948,0c0,-58.6493 0,-117.299 0,-175.948Z"></path>
                <path fill="none" stroke="#59666E" stroke-linejoin="round" stroke-width="9.26042" d="M-1427.67,-1348.61h72.6773v47.4251h-72.6773Z"></path>
                <path fill="none" stroke="#59666E" stroke-linecap="round" stroke-linejoin="round" stroke-width="9.26042" d="M-1377.39,-1332.88v15.4954"></path>
                <g transform="matrix(1.15223,0,0,1.15223,2485.57,-1321.02)">
                    <path fill="none" stroke="#59666E" stroke-linejoin="round" stroke-width="8.03697" d="M-3414,67.1808h98.6012v61.5702h-98.6012Z"></path>
                    <path fill="none" stroke="#59666E" stroke-linecap="round" stroke-linejoin="round" stroke-width="8.03697" d="M-3332.23,86.8156h-64.9352"></path>
                    <path fill="none" stroke="#59666E" stroke-linecap="round" stroke-linejoin="round" stroke-width="8.03697" d="M-3332.23,109.116h-64.9352"></path>
                </g>
            </g>
            <g transform="matrix(1,0,0,1,1226.36,-2041.94)">
                <path fill="none" stroke="#59666E" stroke-linejoin="round" stroke-width="9.26042" d="M-270.941,-413.339v22.4936m-104.457,0v-62.7206v0h64.2195"></path>
                <path fill="none" stroke="#59666E" stroke-linecap="round" stroke-linejoin="round" stroke-width="9.26042" d="M-272.332,-411.949h-38.8471c-0.77048,0 -1.39067,-0.62007 -1.39067,-1.39028v-38.8367c0,-0.77021 0.62019,-1.39028 1.39067,-1.39028l40.2378,40.227c0,0.77021 -0.62029,1.39028 -1.39067,1.39028Z"></path>
                <path fill="none" stroke="#59666E" stroke-linecap="round" stroke-linejoin="round" stroke-width="9.26042" d="M-263.929,-373.522h12.7517"></path>
                <path fill="none" stroke="#59666E" stroke-linejoin="round" stroke-width="9.26042" d="M-374.822,-325.246h-36.3214v-64.5036v0h175.948v64.5036h-33.4919"></path>
                <g transform="matrix(1,0,0,1,-171.601,-248.728)">
                    <path fill="none" stroke="#59666E" stroke-linecap="round" stroke-linejoin="round" stroke-width="9.26042" d="M-181.739,-68.8596h60.3402"></path>
                    <path fill="none" stroke="#59666E" stroke-linecap="round" stroke-linejoin="round" stroke-width="9.26042" d="M-181.739,-50.0072h60.3402"></path>
                    <path fill="none" stroke="#59666E" stroke-linejoin="round" stroke-width="9.26042" d="M-204.636,-89.977h106.135v61.0872h-106.135Z"></path>
                </g>
            </g>
            <g transform="matrix(1,0,0,1,-651.262,-907.691)">
                <path fill="none" stroke="#59666E" stroke-linecap="round" stroke-linejoin="round" stroke-width="9.26042" d="M-1479.2,143.768l175.854,-175.854"></path>
                <path fill="none" stroke="#59666E" stroke-linecap="round" stroke-linejoin="round" stroke-width="9.26042" d="M-1479.2,-32.0866l175.854,175.854"></path>
            </g>
            <g transform="matrix(1,0,0,1,238.126,-1067.78)">
                <path fill="none" stroke="#59666E" stroke-linecap="round" stroke-linejoin="round" stroke-width="9.26042" d="M-304.098,-2323.04c22.405,22.0393 22.405,57.772 0,79.8113c-22.405,22.0393 -58.7306,22.0393 -81.1356,0c-22.405,-22.0393 -22.405,-57.772 0,-79.8113c22.405,-22.0393 58.7306,-22.0393 81.1356,0" transform="matrix(0.707041,-0.707173,0.707041,0.707173,0,0)"></path>
                <path fill="none" stroke="#59666E" stroke-linecap="round" stroke-linejoin="round" stroke-width="9.26042" d="M-1738.94,-1251.82l-79.1058,-79.1204"></path>
            </g>
            <g transform="matrix(1,0,0,1,986.163,-854.725)">
                <path fill="none" stroke="#59666E" stroke-linecap="round" stroke-linejoin="round" stroke-width="9.26042" d="M-925.982,-1197.01h-35.1485v-18.3158v0h35.1485Z"></path>
                <g transform="matrix(1,0,0,1,-791.988,-1017.27)">
                    <path fill="none" stroke="#59666E" stroke-linecap="round" stroke-linejoin="round" stroke-width="9.26042" d="M-80.1333,-22.1064h-142.87v-157.632v0h142.87Z"></path>
                    <path fill="none" stroke="#59666E" stroke-linecap="round" stroke-linejoin="round" stroke-width="9.26042" d="M-106.552,-167.136h-90.0327v-6.88925v0h90.0327Z"></path>
                </g>
                <g transform="matrix(1.16492,0,0,1.16273,3430.17,-880.554)">
                    <path fill="none" stroke="#59666E" stroke-linecap="round" stroke-linejoin="round" stroke-width="7.95688" d="M-3788.42,-212.559h68.3772"></path>
                    <path fill="none" stroke="#59666E" stroke-linecap="round" stroke-linejoin="round" stroke-width="7.95688" d="M-3788.42,-237.183h68.3772"></path>
                    <path fill="none" stroke="#59666E" stroke-linecap="round" stroke-linejoin="round" stroke-width="7.95688" d="M-3788.42,-187.934h68.3772"></path>
                    <path fill="none" stroke="#59666E" stroke-linecap="round" stroke-linejoin="round" stroke-width="7.95688" d="M-3788.99,-163.309h68.3772"></path>
                </g>
            </g>
            <g transform="matrix(1,0,0,1,-1784.91,-907.88)">
                <path fill="none" stroke="#59666E" stroke-linecap="round" stroke-linejoin="round" stroke-width="9.26111" d="M721.179,-275.54c9.36353,9.30311 9.36353,24.3864 0,33.6895c-9.36353,9.30311 -24.5448,9.30311 -33.9083,0c-9.36353,-9.30311 -9.36353,-24.3864 0,-33.6895c9.36353,-9.30311 24.5448,-9.30311 33.9083,0" transform="matrix(0.507505,-0.861649,0.870294,0.492532,0,0)"></path>
                <path fill="none" stroke="#59666E" stroke-linecap="round" stroke-linejoin="round" stroke-width="9.26042" d="M185.263,-702.973l-32.8421,-18.5866"></path>
                <path fill="none" stroke="#59666E" stroke-linecap="round" stroke-linejoin="round" stroke-width="9.26111" d="M-502.59,438.091c9.36353,9.30311 9.36353,24.3864 0,33.6895c-9.36353,9.30311 -24.5448,9.30311 -33.9083,0c-9.36353,-9.30311 -9.36353,-24.3864 0,-33.6895c9.36353,-9.30311 24.5448,-9.30311 33.9083,0" transform="matrix(0.507505,0.861649,0.870294,-0.492532,0,0)"></path>
                <path fill="none" stroke="#59666E" stroke-linecap="round" stroke-linejoin="round" stroke-width="9.26042" d="M185.263,-702.973l-32.8421,18.5866"></path>
                <path fill="none" stroke="#59666E" stroke-linecap="round" stroke-linejoin="round" stroke-width="9.26042" d="M185.27,-702.969l98.805,-29.7773"></path>
                <path fill="none" stroke="#59666E" stroke-linecap="round" stroke-linejoin="round" stroke-width="9.26042" d="M185.27,-702.969l98.805,29.7773"></path>
            </g>
            <g transform="matrix(1,0,0,1,-375.209,-976.967)">
                <g transform="matrix(1.5227,0,0,1.52124,447.422,-646.112)">
                    <path fill="none" stroke="#59666E" stroke-linecap="round" stroke-linejoin="round" stroke-width="22.9966" d="M-5468.3,2139.31l-0.0001,-72.6955" transform="matrix(0.264583,0,0,0.264583,-244.173,-97.6071)"></path>
                    <path fill="none" stroke="#59666E" stroke-linecap="round" stroke-linejoin="round" stroke-width="22.9966" d="M-5468.3,2503.45l-0.0002,-246.957" transform="matrix(0.264583,0,0,0.264583,-244.173,-97.6071)"></path>
                    <path fill="none" stroke="#59666E" stroke-linecap="round" stroke-linejoin="bevel" stroke-width="6.08451" d="M-1680.03,472.96c6.05376,6.05376 6.05376,15.8689 0,21.9226c-6.05376,6.05376 -15.8689,6.05376 -21.9226,0c-6.05376,-6.05376 -6.05376,-15.8689 0,-21.9226c6.05376,-6.05376 15.8689,-6.05376 21.9226,0"></path>
                </g>
                <g transform="matrix(1.5227,0,0,1.52124,449.929,-646.112)">
                    <path fill="none" stroke="#59666E" stroke-linecap="round" stroke-linejoin="round" stroke-width="22.9966" d="M-5314.76,2305.24l-0.0001,-238.62" transform="matrix(0.264583,0,0,0.264583,-244.173,-97.6071)"></path>
                    <path fill="none" stroke="#59666E" stroke-linecap="round" stroke-linejoin="round" stroke-width="22.9966" d="M-5314.75,2503.45l-0.0002,-81.0333" transform="matrix(0.264583,0,0,0.264583,-244.173,-97.6071)"></path>
                    <path fill="none" stroke="#59666E" stroke-linecap="round" stroke-linejoin="bevel" stroke-width="6.08451" d="M-1639.41,516.861c6.05376,6.05376 6.05376,15.8689 0,21.9226c-6.05376,6.05376 -15.8689,6.05376 -21.9226,0c-6.05376,-6.05376 -6.05376,-15.8689 0,-21.9226c6.05376,-6.05376 15.8689,-6.05376 21.9226,0"></path>
                </g>
                <g transform="matrix(1.5227,0,0,1.52124,405.229,-644.485)">
                    <path fill="none" stroke="#59666E" stroke-linecap="round" stroke-linejoin="round" stroke-width="22.9966" d="M-5044.03,2186.72v-124.144" transform="matrix(0.264583,0,0,0.264583,-244.173,-97.6071)"></path>
                    <path fill="none" stroke="#59666E" stroke-linecap="round" stroke-linejoin="round" stroke-width="22.9966" d="M-5044.03,2499.41v-195.509" transform="matrix(0.264583,0,0,0.264583,-244.173,-97.6071)"></path>
                    <path fill="none" stroke="#59666E" stroke-linecap="round" stroke-linejoin="bevel" stroke-width="6.08451" d="M-1567.78,485.503c6.05376,6.05376 6.05376,15.8689 0,21.9226c-6.05376,6.05376 -15.8689,6.05376 -21.9226,0c-6.05376,-6.05376 -6.05376,-15.8689 0,-21.9226c6.05376,-6.05376 15.8689,-6.05376 21.9226,0"></path>
                </g>
            </g>
            <g transform="matrix(1,0,0,1,-228.226,-219.406)">
                <path fill="none" stroke="#59666E" stroke-linecap="round" stroke-linejoin="round" stroke-width="9.26042" d="M-2262.12,-1850.65h116.03v175.953h-116.03Z"></path>
                <path fill="none" stroke="#59666E" stroke-linecap="round" stroke-linejoin="round" stroke-width="9.26042" d="M-2212.11,-1762.67h132.042"></path>
                <path fill="none" stroke="#59666E" stroke-linecap="round" stroke-linejoin="round" stroke-width="9.26042" d="M-2080.07,-1762.67l-38.8891,38.0512"></path>
                <path fill="none" stroke="#59666E" stroke-linecap="round" stroke-linejoin="round" stroke-width="9.26042" d="M-2080.07,-1762.67l-38.8891,-38.0511"></path>
            </g>
            <g transform="matrix(1,0,0,1,-215.526,-196.222)">
                <path fill="none" stroke="#59666E" stroke-linecap="round" stroke-linejoin="round" stroke-width="9.26042" d="M-1895.17,-1873.83h116.03v175.953h-116.03Z"></path>
                <path fill="none" stroke="#59666E" stroke-linecap="round" stroke-linejoin="round" stroke-width="9.26042" d="M-1713.12,-1785.86h-132.042"></path>
                <path fill="none" stroke="#59666E" stroke-linecap="round" stroke-linejoin="round" stroke-width="9.26042" d="M-1845.16,-1785.86l38.8891,38.0512"></path>
                <path fill="none" stroke="#59666E" stroke-linecap="round" stroke-linejoin="round" stroke-width="9.26042" d="M-1845.16,-1785.86l38.8891,-38.0511"></path>
            </g>
            <g transform="matrix(1,0,0,1,-1893.25,-908.484)">
                <path fill="none" stroke="#59666E" stroke-linecap="round" stroke-linejoin="round" stroke-width="9.26042" d="M-822.946,-666.604l-0.00027,50.6349c0,1.26358 -0.84285,2.28081 -1.89013,2.28081h-172.173c-1.04714,0 -1.89013,-1.01723 -1.89013,-2.28081v-50.6349"></path>
                <g transform="matrix(1,0,0,1,-755.121,-593.01)">
                    <use fill="none" stroke="#59666E" stroke-linecap="round" stroke-linejoin="round" stroke-width="9.26042" xlink:href="#a"></use>
                    <use fill="none" stroke="#59666E" stroke-linecap="round" stroke-linejoin="round" stroke-width="9.26042" xlink:href="#b"></use>
                    <use fill="none" stroke="#59666E" stroke-linecap="round" stroke-linejoin="round" stroke-width="9.26042" xlink:href="#c"></use>
                </g>
            </g>
            <path fill="none" stroke="#59666E" stroke-linecap="round" stroke-linejoin="round" stroke-width="9.26042" d="M292.199,-1203.88h175.782"></path>
            <g transform="matrix(1,0,0,1,152.4,-1113.37)">
                <path fill="none" stroke="#59666E" stroke-linecap="round" stroke-linejoin="round" stroke-width="9.26042" d="M-239.46,-110.08h175.782"></path>
                <path fill="none" stroke="#59666E" stroke-linecap="round" stroke-linejoin="round" stroke-width="9.26042" d="M-151.568,-197.971v175.782"></path>
            </g>
            <g transform="matrix(1,0,0,1,-401.075,-1192.87)">
                <path fill="none" stroke="#59666E" stroke-linecap="round" stroke-linejoin="round" stroke-width="9.26042" d="M-800.032,-2642.1c22.405,22.0393 22.405,57.772 0,79.8113c-22.405,22.0393 -58.7306,22.0393 -81.1356,0c-22.405,-22.0393 -22.405,-57.772 0,-79.8113c22.405,-22.0393 58.7306,-22.0393 81.1356,0" transform="matrix(0.707041,-0.707173,0.707041,0.707173,0,0)"></path>
                <path fill="none" stroke="#59666E" stroke-linecap="round" stroke-linejoin="round" stroke-width="9.26042" d="M-2315.17,-1126.74l-79.1057,-79.1204"></path>
                <path fill="none" stroke="#59666E" stroke-linecap="round" stroke-linejoin="round" stroke-width="9.26042" d="M-2472.25,-1245.75h76.0993"></path>
                <path fill="none" stroke="#59666E" stroke-linecap="round" stroke-linejoin="round" stroke-width="9.26042" d="M-2434.2,-1283.8v76.0993"></path>
            </g>
            <g transform="matrix(1,0,0,1,63.3609,-1101.99)">
                <path fill="none" stroke="#59666E" stroke-linecap="round" stroke-linejoin="round" stroke-width="9.26042" d="M-525.608,-2496.18c22.405,22.0393 22.405,57.772 0,79.8113c-22.405,22.0393 -58.7306,22.0393 -81.1356,0c-22.405,-22.0393 -22.405,-57.772 0,-79.8113c22.405,-22.0393 58.7306,-22.0393 81.1356,0" transform="matrix(0.707041,-0.707173,0.707041,0.707173,0,0)"></path>
                <path fill="none" stroke="#59666E" stroke-linecap="round" stroke-linejoin="round" stroke-width="9.26042" d="M-2017.97,-1217.61l-79.1057,-79.1203"></path>
                <path fill="none" stroke="#59666E" stroke-linecap="round" stroke-linejoin="round" stroke-width="9.26042" d="M-2175.04,-1336.62h76.0993"></path>
            </g>
            <g transform="matrix(1,0,0,1,-7.44964,-822.125)">
                <path fill="none" stroke="#59666E" stroke-linecap="round" stroke-linejoin="round" stroke-width="9.26042" d="M-557.521,-2923.85c22.405,22.0393 22.405,57.772 0,79.8113c-22.405,22.0393 -58.7306,22.0393 -81.1356,0c-22.405,-22.0393 -22.405,-57.772 0,-79.8113c22.405,-22.0393 58.7306,-22.0393 81.1356,0" transform="matrix(0.707041,-0.707173,0.707041,0.707173,0,0)"></path>
                <path fill="none" stroke="#59666E" stroke-linecap="round" stroke-linejoin="round" stroke-width="9.26042" d="M-2342.92,-1497.48l-79.1058,-79.1204"></path>
            </g>
            <g transform="matrix(1,0,0,1,-3120.86,-421.046)">
                <path fill="none" stroke="#59666E" stroke-linecap="round" stroke-linejoin="round" stroke-width="9.26042" d="M228.714,-496.777h153.947v153.947h-153.947Z"></path>
                <path fill="none" stroke="#59666E" stroke-linecap="round" stroke-linejoin="round" stroke-width="9.26042" d="M250.714,-496.777v-22.0007v0h153.947v153.947h-22.0007"></path>
            </g>
            <g transform="matrix(1,0,0,1,-312.384,-1532.92)">
                <path fill="none" stroke="#59666E" stroke-linecap="round" stroke-linejoin="round" stroke-width="9.26042" d="M392.743,-12.2795h-71.2103c-61.0347,0 -61.0347,-93.2077 5.20191,-93.2077h90.482h35.0689"></path>
                <path fill="none" stroke="#59666E" stroke-linecap="round" stroke-linejoin="round" stroke-width="9.26042" d="M452.285,-105.487l-38.8891,38.0511"></path>
                <path fill="none" stroke="#59666E" stroke-linecap="round" stroke-linejoin="round" stroke-width="9.26042" d="M452.285,-105.487l-38.8891,-38.0511"></path>
            </g>
            <g transform="matrix(1,0,0,1,56.7547,-1230.3)">
                <path fill="none" stroke="#59666E" stroke-linecap="round" stroke-linejoin="round" stroke-width="9.26042" d="M-460.409,-314.904h71.2103c61.0347,0 61.0347,-93.2077 -5.20191,-93.2077h-90.482h-35.0689"></path>
                <path fill="none" stroke="#59666E" stroke-linecap="round" stroke-linejoin="round" stroke-width="9.26042" d="M-519.952,-408.112l38.8891,38.0512"></path>
                <path fill="none" stroke="#59666E" stroke-linecap="round" stroke-linejoin="round" stroke-width="9.26042" d="M-519.952,-408.112l38.8891,-38.0512"></path>
            </g>
            <g transform="matrix(1,0,0,1,-1808.65,-1076.8)">
                <path fill="none" stroke="#59666E" stroke-linecap="round" stroke-linejoin="round" stroke-width="9.26042" d="M184.027,-110.906l-95.2036,87.9284"></path>
                <path fill="none" stroke="#59666E" stroke-linecap="round" stroke-linejoin="round" stroke-width="9.26042" d="M184.027,-110.906l-95.2036,-87.9284"></path>
            </g>
            <g transform="matrix(1,0,0,1,-2672.45,-836.66)">
                <path fill="none" stroke="#59666E" stroke-linecap="round" stroke-linejoin="round" stroke-width="9.26042" d="M-179.326,-367.222l95.2036,87.9284"></path>
                <path fill="none" stroke="#59666E" stroke-linecap="round" stroke-linejoin="round" stroke-width="9.26042" d="M-179.326,-367.222l95.2036,-87.9284"></path>
            </g>
            <g transform="matrix(1,0,0,1,164.238,-1072.36)">
                <g transform="matrix(1.02602,0,0,1.02564,-467.165,-277.974)">
                    <use fill="none" stroke="#59666E" stroke-linecap="round" stroke-linejoin="round" stroke-width="9.02725" xlink:href="#d"></use>
                    <use fill="none" stroke="#59666E" stroke-linecap="round" stroke-linejoin="round" stroke-width="9.02725" xlink:href="#e"></use>
                </g>
                <path fill="none" stroke="#59666E" stroke-width="9.26042" d="M-629.803,-110.386c0,27.6808 16.6806,52.636 42.2637,63.229c25.5831,10.593 55.0305,4.73768 74.611,-14.8356c19.5805,-19.5733 25.4379,-49.0099 14.841,-74.5837c-10.5969,-25.5737 -35.13,-42.2455 -62.821,-42.2455l-68.842,0.003"></path>
            </g>
            <path fill="none" stroke="#59666E" stroke-linecap="round" stroke-linejoin="round" stroke-width="9.26042" d="M-1514.97,-863.954h-175.949l90.0418,-75.8658Zm-106.819,100.074h-46.5326v-100.074h129.179v100.074h-46.5326m-36.1145,-0.1181v-48.0593v0h36.1147v48.0593"></path>
            <g transform="matrix(1,0,0,1,-24.145,-1106.22)">
                <g transform="matrix(-1.02602,0,0,1.02564,-903.165,-277.974)">
                    <use fill="none" stroke="#59666E" stroke-linecap="round" stroke-linejoin="round" stroke-width="9.02725" xlink:href="#d"></use>
                    <use fill="none" stroke="#59666E" stroke-linecap="round" stroke-linejoin="round" stroke-width="9.02725" xlink:href="#e"></use>
                </g>
                <path fill="none" stroke="#59666E" stroke-width="9.26042" d="M-740.528,-110.386c0,27.6808 -16.6806,52.636 -42.2637,63.229c-25.5831,10.593 -55.0305,4.73768 -74.611,-14.8356c-19.5805,-19.5733 -25.4379,-49.0099 -14.841,-74.5837c10.5969,-25.5737 35.13,-42.2455 62.821,-42.2455l68.842,0.003"></path>
            </g>
            <g transform="matrix(1,0,0,1,-240.947,-1137.52)">
                <path fill="none" stroke="#59666E" stroke-linecap="round" stroke-linejoin="round" stroke-width="9.26042" d="M-628.694,-1167.38c34.356,34.356 34.356,90.058 0,124.414c-34.356,34.356 -90.058,34.356 -124.414,0c-34.356,-34.356 -34.356,-90.058 0,-124.414c34.356,-34.356 90.058,-34.356 124.414,0" transform="matrix(0.707107,0.707107,-0.707107,0.707107,0,0)"></path>
                <path fill="none" stroke="#59666E" stroke-linecap="round" stroke-linejoin="round" stroke-width="9.26042" d="M-648.803,-1147.27c23.2504,23.2504 23.2504,60.9468 0,84.1973c-23.2504,23.2504 -60.9468,23.2504 -84.1973,0c-23.2504,-23.2504 -23.2504,-60.9468 -1.13687e-13,-84.1973c23.2504,-23.2504 60.9468,-23.2504 84.1973,0" transform="matrix(0.707107,0.707107,-0.707107,0.707107,0,0)"></path>
                <path fill="none" stroke="#59666E" stroke-linecap="round" stroke-linejoin="round" stroke-width="9.26042" d="M335.03,-1227.92l20.0499,20.0499"></path>
                <path fill="none" stroke="#59666E" stroke-linecap="round" stroke-linejoin="round" stroke-width="9.26042" d="M230.783,-1332.16l20.0499,20.0499"></path>
                <path fill="none" stroke="#59666E" stroke-linecap="round" stroke-linejoin="round" stroke-width="9.26042" d="M250.833,-1227.92l-20.0499,20.0499"></path>
                <path fill="none" stroke="#59666E" stroke-linecap="round" stroke-linejoin="round" stroke-width="9.26042" d="M355.08,-1332.16l-20.0499,20.0499"></path>
            </g>
            <g transform="matrix(1,0,0,1,-291.467,-1158.52)">
                <path fill="none" stroke="#59666E" stroke-linecap="round" stroke-linejoin="round" stroke-width="9.26042" d="M474.459,671.185c12.1839,12.3541 12.1839,32.384 0,44.738c-12.1839,12.3541 -31.938,12.3541 -44.1219,0c-12.1839,-12.3541 -12.1839,-32.384 0,-44.738c12.1839,-12.3541 31.938,-12.3541 44.1219,0" transform="matrix(-9.61388e-05,-1,1,9.04817e-05,0,0)"></path>
                <path fill="none" stroke="#59666E" stroke-linecap="round" stroke-linejoin="round" stroke-width="9.26042" d="M837.762,-452.339l-112.587,-0.006"></path>
                <path fill="none" stroke="#59666E" stroke-linecap="round" stroke-linejoin="round" stroke-width="9.26042" d="M781.102,-426.261l0.006,-26.0583"></path>
                <path fill="none" stroke="#59666E" stroke-linecap="round" stroke-linejoin="round" stroke-width="9.26042" d="M799.03,-430.775l0.006,-21.572"></path>
                <path fill="none" stroke="#59666E" stroke-linecap="round" stroke-linejoin="round" stroke-width="9.26042" d="M816.957,-426.283l0.006,-26.0583"></path>
            </g>
            <path fill="none" stroke="#59666E" stroke-linecap="round" stroke-linejoin="round" stroke-width="14.8413" d="M-112.512,-183.042l38.3197,95.4241l102.595,6.9565l-78.9123,65.9319l25.0876,99.7235l-87.0902,-54.676l-87.0902,54.676l25.0876,-99.7235l-78.9123,-65.9319l102.595,-6.95649Z" transform="matrix(0.624269,0,0,0.623655,895.346,-1173.31)"></path>
            <g transform="matrix(1,0,0,1,-1.4089,-1533.7)">
                <path fill="none" stroke="#59666E" stroke-linecap="round" stroke-linejoin="round" stroke-width="9.26111" d="M535.254,602.757c9.36353,9.30311 9.36353,24.3864 0,33.6895c-9.36353,9.30311 -24.5448,9.30311 -33.9083,0c-9.36353,-9.30311 -9.36353,-24.3864 0,-33.6895c9.36353,-9.30311 24.5448,-9.30311 33.9083,0" transform="matrix(0.507505,-0.861649,0.870294,0.492532,0,0)"></path>
                <path fill="none" stroke="#59666E" stroke-linecap="round" stroke-linejoin="round" stroke-width="9.26111" d="M423.377,667.997c9.36353,9.30311 9.36353,24.3864 0,33.6895c-9.36353,9.30311 -24.5448,9.30311 -33.9083,0c-9.36353,-9.30311 -9.36353,-24.3864 0,-33.6895c9.36353,-9.30311 24.5448,-9.30311 33.9083,0" transform="matrix(0.507505,-0.861649,0.870294,0.492532,0,0)"></path>
                <path fill="none" stroke="#59666E" stroke-linecap="round" stroke-linejoin="round" stroke-width="9.26111" d="M542.289,745.544c9.36353,9.30311 9.36353,24.3864 0,33.6895c-9.36353,9.30311 -24.5448,9.30311 -33.9083,0c-9.36353,-9.30311 -9.36353,-24.3864 0,-33.6895c9.36353,-9.30311 24.5448,-9.30311 33.9083,0" transform="matrix(0.507505,-0.861649,0.870294,0.492532,0,0)"></path>
                <path fill="none" stroke="#59666E" stroke-linecap="round" stroke-linejoin="round" stroke-width="9.26042" d="M827.839,-128.567l76.6331,38.5249"></path>
                <path fill="none" stroke="#59666E" stroke-linecap="round" stroke-linejoin="round" stroke-width="9.26042" d="M823.824,-23.7198l84.7388,-42.5998"></path>
            </g>
            <g transform="matrix(6.12323e-17,1,-1,6.12323e-17,-2805.51,-1269.72)">
                <use fill="none" stroke="#59666E" stroke-linecap="round" stroke-linejoin="round" stroke-width="9.26042" xlink:href="#f"></use>
                <use fill="none" stroke="#59666E" stroke-linecap="round" stroke-linejoin="round" stroke-width="9.26042" xlink:href="#g"></use>
            </g>
            <g transform="matrix(0,-1,-1,0,-2440.57,-1139.83)">
                <use fill="none" stroke="#59666E" stroke-linecap="round" stroke-linejoin="round" stroke-width="9.26042" xlink:href="#f"></use>
                <use fill="none" stroke="#59666E" stroke-linecap="round" stroke-linejoin="round" stroke-width="9.26042" xlink:href="#g"></use>
            </g>
            <g transform="matrix(1,0,0,1,-516.093,-545.509)">
                <g transform="matrix(1,0,0,1,-2502.51,196.926)">
                    <g transform="matrix(1,0,0,1,1989.08,-136.045)">
                        <use fill="none" stroke="#59666E" stroke-linecap="round" stroke-linejoin="round" stroke-width="9.26042" xlink:href="#h"></use>
                        <use fill="none" stroke="#59666E" stroke-linecap="round" stroke-linejoin="round" stroke-width="9.26042" xlink:href="#i"></use>
                    </g>
                    <path fill="none" stroke="#59666E" stroke-linecap="round" stroke-width="9.26042" d="M1800.44,-591.196v175.857"></path>
                </g>
            </g>
            <g transform="matrix(1,0,0,1,-398.887,-550.17)">
                <g transform="matrix(-1,0,0,1,-537.454,65.5428)">
                    <use fill="none" stroke="#59666E" stroke-linecap="round" stroke-linejoin="round" stroke-width="9.26042" xlink:href="#h"></use>
                    <use fill="none" stroke="#59666E" stroke-linecap="round" stroke-linejoin="round" stroke-width="9.26042" xlink:href="#i"></use>
                </g>
                <path fill="none" stroke="#59666E" stroke-linecap="round" stroke-width="9.26042" d="M-348.818,-389.608v175.857"></path>
            </g>
            <g transform="matrix(1,0,0,1,1422.77,-675.915)">
                <path fill="none" stroke="#59666E" stroke-linecap="round" stroke-linejoin="round" stroke-width="9.26042" d="M-1804.66,-251.768c16.131,16.1868 16.131,42.4307 0,58.6175c-16.131,16.1868 -42.2845,16.1868 -58.4155,2.84217e-14c-16.131,-16.1868 -16.131,-42.4307 0,-58.6175c16.131,-16.1868 42.2845,-16.1868 58.4155,-2.84217e-14"></path>
                <path fill="none" stroke="#59666E" stroke-linecap="round" stroke-linejoin="round" stroke-width="9.26042" d="M-1921.58,-88.029h175.413m-175.413,2e-06l-7.27187e-07,-9.11693e-06c-0.178441,-2.23716 -0.267775,-4.4803 -0.267799,-6.72429l1.13687e-12,-1.20244e-05c7.33641e-06,-47.6384 39.3874,-86.2569 87.9743,-86.2569l-3.25698e-06,2.72848e-12c48.5869,-4.18349e-05 87.9744,38.6185 87.9744,86.2568c2.13731e-11,2.38576e-05 3.25144e-11,4.76979e-05 3.36513e-11,7.15554e-05v0l1.33059e-09,-0.000474397c0,2.24456 -0.0893554,4.48826 -0.267862,6.72598"></path>
            </g>
            <path fill="none" stroke="#59666E" stroke-linecap="round" stroke-linejoin="round" stroke-width="9.26042" d="M67.9444,-879.662c-5.379,-20.2236 -23.8631,-34.3195 -45.0035,-34.3195c-1.6883,0 -3.3754,0.0908 -5.0537,0.27224m-39.8743,34.0132c-0.5235,-0.0196 -1.0473,-0.0294 -1.5711,-0.0294c-22.901,-1e-05 -41.4659,18.3641 -41.4659,41.0174c0,9.84637 2.1625,21.3593 10.0738,26.7986c42.6468,29.3213 113.167,29.3274 155.809,2e-05c7.9097,-5.43989 10.0648,-16.9523 10.0648,-26.7986c0,-22.6533 -18.5649,-41.0174 -41.4659,-41.0174c-0.5238,0 -1.0476,0.01 -1.5711,0.0294m-89.9315,0.034c5.379,-20.2236 23.8631,-34.3195 45.0035,-34.3195c1.6883,0 3.3754,0.0908 5.0537,0.27224"></path>
            <g transform="matrix(1,0,0,1,-215.526,-1879.87)">
                <path fill="none" stroke="#59666E" stroke-linecap="round" stroke-linejoin="round" stroke-width="9.26042" d="M-239.542,-198.054h175.948v175.948h-175.948Z"></path>
                <path fill="none" stroke="#59666E" stroke-linecap="round" stroke-linejoin="round" stroke-width="9.26042" d="M-218.243,-133.318h25.9292v25.9292h-25.9292Z"></path>
                <path fill="none" stroke="#59666E" stroke-linecap="round" stroke-linejoin="round" stroke-width="9.26042" d="M-164.533,-133.318h25.9292v25.9292h-25.9292Z"></path>
                <path fill="none" stroke="#59666E" stroke-linecap="round" stroke-linejoin="round" stroke-width="9.26042" d="M-110.823,-133.318h25.9292v25.9292h-25.9292Z"></path>
                <path fill="none" stroke="#59666E" stroke-linecap="round" stroke-linejoin="round" stroke-width="9.26042" d="M-218.243,-76.1678h25.9292v25.9292h-25.9292Z"></path>
                <path fill="none" stroke="#59666E" stroke-linecap="round" stroke-linejoin="round" stroke-width="9.26042" d="M-164.533,-76.1678h25.9292v25.9292h-25.9292Z"></path>
                <path fill="none" stroke="#59666E" stroke-linecap="round" stroke-linejoin="round" stroke-width="9.26042" d="M-110.823,-76.1678h25.9292v25.9292h-25.9292Z"></path>
                <path fill="none" stroke="#59666E" stroke-linecap="round" stroke-linejoin="round" stroke-width="9.26042" d="M-239.542,-161.45h175.948v139.344h-175.948Z"></path>
            </g>
            <g transform="matrix(1,0,0,1,-65.3706,-968.711)">
                <path fill="none" stroke="#59666E" stroke-linecap="round" stroke-linejoin="round" stroke-width="9.26042" d="M-1630.55,-1101.34h116.03v175.953h-116.03Z"></path>
                <path fill="none" stroke="#59666E" stroke-linecap="round" stroke-linejoin="round" stroke-width="9.26042" d="M-1696.57,-1013.37h132.042"></path>
                <path fill="none" stroke="#59666E" stroke-linecap="round" stroke-linejoin="round" stroke-width="9.26042" d="M-1564.53,-1013.37l-38.8891,38.0512"></path>
                <path fill="none" stroke="#59666E" stroke-linecap="round" stroke-linejoin="round" stroke-width="9.26042" d="M-1564.53,-1013.37l-38.8891,-38.0511"></path>
            </g>
            <g transform="matrix(1,0,0,1,1214.53,639.867)">
                <path fill="none" stroke="#59666E" stroke-linecap="round" stroke-linejoin="round" stroke-width="9.26042" d="M-2486.66,-2693.84h116.03v175.953h-116.03Z"></path>
                <path fill="none" stroke="#59666E" stroke-linecap="round" stroke-linejoin="round" stroke-width="9.26042" d="M-2420.64,-2605.87h-132.042"></path>
                <path fill="none" stroke="#59666E" stroke-linecap="round" stroke-linejoin="round" stroke-width="9.26042" d="M-2552.69,-2605.87l38.8891,38.0512"></path>
                <path fill="none" stroke="#59666E" stroke-linecap="round" stroke-linejoin="round" stroke-width="9.26042" d="M-2552.69,-2605.87l38.8891,-38.0511"></path>
            </g>
            <g transform="matrix(1,0,0,1,-131.233,-432.595)">
                <path fill="none" stroke="#59666E" stroke-linecap="round" stroke-linejoin="round" stroke-width="9.26042" d="M510.393,-419.255h99.0598"></path>
                <path fill="none" stroke="#59666E" stroke-linecap="round" stroke-linejoin="round" stroke-width="9.26042" d="M510.393,-478.44h99.0598"></path>
                <path fill="none" stroke="#59666E" stroke-linecap="round" stroke-linejoin="round" stroke-width="9.26042" d="M510.393,-360.069h99.0598"></path>
                <path fill="#59666E" stroke="none" stroke-linecap="round" stroke-linejoin="bevel" d="M494.511,-481.714c1.80821,1.80821 1.80821,4.73989 0,6.5481c-1.80821,1.80821 -4.73989,1.80821 -6.5481,0c-1.80821,-1.80821 -1.80821,-4.73989 0,-6.5481c1.80821,-1.80821 4.73989,-1.80821 6.5481,0"></path>
                <path fill="#59666E" stroke="none" stroke-linecap="round" stroke-linejoin="bevel" d="M494.511,-422.529c1.80821,1.80821 1.80821,4.73989 0,6.5481c-1.80821,1.80821 -4.73989,1.80821 -6.5481,0c-1.80821,-1.80821 -1.80821,-4.73989 0,-6.5481c1.80821,-1.80821 4.73989,-1.80821 6.5481,0"></path>
                <path fill="#59666E" stroke="none" stroke-linecap="round" stroke-linejoin="bevel" d="M494.511,-363.343c1.80821,1.80821 1.80821,4.73989 0,6.5481c-1.80821,1.80821 -4.73989,1.80821 -6.5481,0c-1.80821,-1.80821 -1.80821,-4.73989 0,-6.5481c1.80821,-1.80821 4.73989,-1.80821 6.5481,0"></path>
                <path fill="none" stroke="#59666E" stroke-linecap="round" stroke-linejoin="round" stroke-width="9.26042" d="M433.623,-419.255h38.4563"></path>
                <path fill="none" stroke="#59666E" stroke-linecap="round" stroke-linejoin="round" stroke-width="9.26042" d="M433.623,-478.44h38.4563"></path>
                <path fill="none" stroke="#59666E" stroke-linecap="round" stroke-linejoin="round" stroke-width="9.26042" d="M433.623,-360.069h38.4563"></path>
            </g>
            <path fill="none" stroke="#59666E" stroke-linecap="round" stroke-linejoin="round" stroke-width="9.26042" d="M-2794.5,-2031.08c-7.0159,-7.7603 -14.0319,-15.5207 -21.0478,-23.281c-11.7868,0 -23.5737,0 -35.3605,0m-32.9111,23.281c7.0159,-7.7603 14.0319,-15.5207 21.0478,-23.281c11.7868,0 23.5737,0 35.3605,0m111.215,144.569c-58.6493,0 -117.299,0 -175.948,0c0,-40.4294 0,-80.8587 0,-121.288c58.6493,0 117.299,0 175.948,0c0,40.4294 0,80.8587 0,121.288Z"></path>
            <path fill="none" stroke="#59666E" stroke-linecap="round" stroke-linejoin="round" stroke-width="9.26042" d="M744.321,-2034.87h175.948v105.584h-175.948Z"></path>
            <path fill="none" stroke="#59666E" stroke-linecap="round" stroke-linejoin="round" stroke-width="9.26042" d="M920.269,-2034.87l-175.962,-0.3367l87.6909,78.011Z"></path>
            <path fill="none" stroke="#59666E" stroke-linecap="round" stroke-linejoin="round" stroke-width="9.26042" d="M803.846,-1981.92l-59.539,52.9667l175.962,-0.3369l-59.7958,-52.6174l-28.4613,25.0444Z"></path>
            <path fill="none" stroke="#59666E" stroke-width="9.26042" d="M-1185.81,-2341.56v-133.063h-42.6218v155.068h61.8115v-175.943h-83.0773v153.938"></path>
            <g transform="matrix(1,0,0,1,-30.1076,-18.9718)">
                <path fill="none" stroke="#59666E" stroke-linecap="round" stroke-linejoin="round" stroke-width="9.26042" d="M763.417,-840.016l1.70524e-06,-6.21221e-07c16.2698,-5.92711 33.4152,-8.9567 50.6889,-8.95671l-3.16564e-06,-6.82121e-13c17.2728,3.43506e-06 34.4173,3.02926 50.6863,8.95575"></path>
                <path fill="none" stroke="#59666E" stroke-linecap="round" stroke-linejoin="round" stroke-width="9.26042" d="M744.758,-872.992l-2.50797e-07,1.01868e-07c22.0695,-8.96411 45.6042,-13.5684 69.3547,-13.5684h8.75268e-07c23.7444,-1.0601e-06 47.2731,4.60188 69.3377,13.5615"></path>
                <path fill="none" stroke="#59666E" stroke-linecap="round" stroke-linejoin="round" stroke-width="9.26042" d="M726.192,-905.841l1.17111e-05,-5.09015e-06c27.7958,-12.0812 57.693,-18.3083 87.9009,-18.3083l1.50042e-06,2.27374e-13c30.2161,2.33004e-06 60.1212,6.23048 87.9233,18.3181"></path>
                <path fill="none" stroke="#59666E" stroke-linecap="round" stroke-linejoin="round" stroke-width="9.26042" d="M827.37,-811.588c7.32667,7.32905 7.32667,19.2118 0,26.5408c-7.32667,7.32905 -19.2056,7.32905 -26.5322,0c-7.32667,-7.32905 -7.32667,-19.2118 0,-26.5408c7.32667,-7.32905 19.2056,-7.32905 26.5322,0"></path>
            </g>
        </g>
    </g>
</svg>