<?xml version="1.0" encoding="UTF-8"?>
<svg width="20" height="20" version="1.1" viewBox="0 0 20 20" xmlns="http://www.w3.org/2000/svg" xmlns:xlink="http://www.w3.org/1999/xlink">
    <!--Generated by IJSVG (https://github.com/iconjar/IJSVG)-->
    <g transform="scale(0.833333)">
        <path fill="#59666E" d="M12,19c-6.161,0 -11.651,-6.404 -11.882,-6.677c-0.157,-0.187 -0.157,-0.46 0,-0.646c0.231,-0.273 5.721,-6.677 11.882,-6.677c7.18,0 11.722,6.441 11.911,6.716c0.129,0.186 0.116,0.435 -0.029,0.607c-0.231,0.273 -5.721,6.677 -11.882,6.677Zm-10.828,-7c1.193,1.29 5.889,6 10.828,6c4.981,0 9.704,-4.778 10.854,-6.027c-0.996,-1.27 -5.075,-5.973 -10.854,-5.973c-4.946,0 -9.637,4.709 -10.828,6Z"></path>
        <path fill="#59666E" d="M12,16c-2.206,0 -4,-1.794 -4,-4c0,-2.206 1.794,-4 4,-4c2.206,0 4,1.794 4,4c0,2.206 -1.794,4 -4,4Zm0,-7c-1.654,0 -3,1.346 -3,3c0,1.654 1.346,3 3,3c1.654,0 3,-1.346 3,-3c0,-1.654 -1.346,-3 -3,-3Z"></path>
    </g>
</svg>