<?xml version="1.0" encoding="UTF-8"?>
<svg width="20" height="20" version="1.1" viewBox="0 0 20 20" xmlns="http://www.w3.org/2000/svg" xmlns:xlink="http://www.w3.org/1999/xlink">
    <!--Generated by IJSVG (https://github.com/iconjar/IJSVG)-->
    <g transform="scale(0.833333)">
        <path fill="#d30202" d="M20.5,6h-17c-0.276,0 -0.5,-0.224 -0.5,-0.5v-1c0,-1.378 1.121,-2.5 2.5,-2.5h2.691l0.309,-0.618c0.427,-0.853 1.283,-1.382 2.236,-1.382h2.527c0.953,0 1.81,0.529 2.236,1.382l0.31,0.618h2.691c1.379,0 2.5,1.122 2.5,2.5v1c0,0.276 -0.224,0.5 -0.5,0.5Zm-16.5,-1h16v-0.5c0,-0.827 -0.673,-1.5 -1.5,-1.5h-3c-0.189,0 -0.362,-0.107 -0.447,-0.276l-0.447,-0.895c-0.256,-0.511 -0.77,-0.829 -1.342,-0.829h-2.527c-0.573,0 -1.087,0.318 -1.342,0.829l-0.448,0.895c-0.085,0.169 -0.258,0.276 -0.447,0.276h-3c-0.827,0 -1.5,0.673 -1.5,1.5v0.5Z"></path>
        <path fill="#d30202" d="M16.5,24h-9c-1.93,0 -3.5,-1.57 -3.5,-3.5v-15c0,-0.276 0.224,-0.5 0.5,-0.5h15c0.276,0 0.5,0.224 0.5,0.5v15c0,1.93 -1.57,3.5 -3.5,3.5Zm-11.5,-18v14.5c0,1.378 1.121,2.5 2.5,2.5h9c1.379,0 2.5,-1.122 2.5,-2.5v-14.5h-14Z"></path>
        <path fill="#d30202" d="M7.5,21c-0.276,0 -0.5,-0.224 -0.5,-0.5v-12c0,-0.276 0.224,-0.5 0.5,-0.5c0.276,0 0.5,0.224 0.5,0.5v12c0,0.276 -0.224,0.5 -0.5,0.5Z"></path>
        <path fill="#d30202" d="M10.5,21c-0.276,0 -0.5,-0.224 -0.5,-0.5v-12c0,-0.276 0.224,-0.5 0.5,-0.5c0.276,0 0.5,0.224 0.5,0.5v12c0,0.276 -0.224,0.5 -0.5,0.5Z"></path>
        <path fill="#d30202" d="M13.5,21c-0.276,0 -0.5,-0.224 -0.5,-0.5v-12c0,-0.276 0.224,-0.5 0.5,-0.5c0.276,0 0.5,0.224 0.5,0.5v12c0,0.276 -0.224,0.5 -0.5,0.5Z"></path>
        <path fill="#d30202" d="M16.5,21c-0.276,0 -0.5,-0.224 -0.5,-0.5v-12c0,-0.276 0.224,-0.5 0.5,-0.5c0.276,0 0.5,0.224 0.5,0.5v12c0,0.276 -0.224,0.5 -0.5,0.5Z"></path>
    </g>
</svg>