<?xml version="1.0" standalone="no"?>
<!DOCTYPE svg PUBLIC "-//W3C//DTD SVG 20010904//EN"
 "http://www.w3.org/TR/2001/REC-SVG-20010904/DTD/svg10.dtd">
<svg version="1.0" xmlns="http://www.w3.org/2000/svg"
 width="512.000000pt" height="512.000000pt" viewBox="0 0 512.000000 512.000000"
 preserveAspectRatio="xMidYMid meet">

<g transform="translate(0.000000,512.000000) scale(0.100000,-0.100000)"
fill="#000000" stroke="none">
<path d="M1965 5069 c-262 -36 -471 -129 -626 -276 -177 -169 -269 -381 -288
-659 -9 -132 0 -297 24 -437 l17 -99 -40 -41 c-72 -76 -79 -149 -31 -345 35
-142 67 -235 106 -302 35 -61 110 -138 148 -150 28 -9 34 -19 59 -98 33 -100
81 -208 119 -269 27 -42 27 -43 27 -241 l0 -199 -497 -193 c-274 -106 -534
-211 -577 -234 -57 -29 -102 -62 -155 -116 -87 -86 -140 -171 -179 -285 l-27
-80 -3 -477 -3 -478 25 -25 25 -25 2114 0 2114 0 27 21 26 20 0 254 0 254 273
3 c260 3 274 4 314 25 46 25 84 69 108 126 13 32 15 227 15 1683 0 1221 -3
1657 -12 1685 -15 51 -69 114 -122 142 l-41 22 -763 5 -763 5 -23 66 c-56 159
-174 271 -330 310 -43 11 -51 18 -93 83 -107 166 -255 263 -474 311 -89 19
-392 28 -494 14z m479 -169 c167 -42 327 -163 395 -297 33 -66 38 -69 146 -88
59 -10 108 -39 153 -91 124 -140 133 -427 25 -786 -33 -112 -27 -145 32 -168
59 -22 65 -28 65 -63 0 -66 -70 -316 -112 -402 -31 -62 -67 -95 -104 -95 -52
0 -72 -26 -98 -125 -83 -312 -256 -555 -469 -658 -188 -91 -371 -90 -567 5
-71 34 -100 56 -180 137 -132 134 -213 282 -279 510 -16 57 -36 108 -43 112
-7 5 -27 9 -44 9 -43 0 -59 16 -93 90 -33 73 -107 311 -117 377 -8 52 14 93
50 93 31 0 79 56 73 84 -51 234 -67 349 -67 488 0 474 240 770 705 868 132 27
422 28 529 0z m2473 -793 c17 -17 18 -98 21 -1647 1 -1091 -1 -1630 -8 -1630
-5 0 -10 -9 -10 -20 0 -11 -9 -29 -20 -40 -19 -19 -33 -20 -274 -20 l-254 0
-4 153 c-4 132 -8 162 -32 232 -54 158 -173 309 -305 386 -34 20 -293 126
-576 234 l-515 198 0 195 0 194 59 122 c33 66 71 158 86 203 22 68 31 83 53
91 70 24 150 128 201 261 41 106 91 317 91 383 0 62 -36 147 -74 172 l-24 15
25 93 c28 110 50 240 59 361 l7 87 738 -2 c693 -3 739 -4 756 -21z m-3131
-2087 c134 -87 260 -124 424 -124 200 0 379 71 528 208 l43 39 -3 -109 -3
-108 -280 -243 c-154 -133 -284 -243 -289 -243 -4 0 -136 107 -292 237 l-284
238 0 114 0 113 41 -37 c22 -20 74 -58 115 -85z m1194 -251 c36 -15 64 -32 63
-36 -2 -13 -203 -486 -207 -491 -6 -5 -438 118 -449 128 -5 4 103 105 239 224
197 171 253 215 269 210 11 -4 49 -19 85 -35z m-1194 -183 c135 -114 242 -212
237 -216 -16 -14 -465 -132 -472 -124 -11 13 -204 485 -200 488 12 9 166 65
176 63 7 -1 123 -96 259 -211z m1754 -36 c173 -67 340 -134 370 -148 114 -56
229 -192 272 -321 21 -63 22 -87 26 -473 l4 -408 -760 0 -759 0 -117 335 c-66
190 -114 341 -109 348 16 27 175 227 185 233 6 4 62 -6 125 -22 104 -26 116
-27 140 -14 22 12 47 63 135 275 141 339 135 328 156 322 9 -2 159 -59 332
-127z m-2220 -170 c61 -146 118 -275 125 -287 24 -36 61 -36 191 0 l121 33 96
-123 c54 -68 97 -127 97 -132 0 -4 -52 -155 -115 -336 -63 -181 -115 -330
-115 -332 0 -2 -342 -3 -760 -3 l-760 0 0 393 c0 430 2 453 60 566 35 71 122
168 188 210 70 44 745 303 754 288 3 -7 56 -131 118 -277z m1036 -167 c74 -20
134 -39 134 -43 0 -15 -68 -108 -121 -165 -31 -33 -61 -70 -67 -81 -14 -27 -1
-79 58 -244 23 -63 71 -197 106 -297 l63 -183 -319 0 -318 0 114 336 c63 184
114 348 114 362 0 19 -21 53 -70 112 -80 96 -125 158 -119 164 5 5 260 74 278
75 7 1 74 -15 147 -36z"/>
<path d="M3696 3739 c-33 -26 -37 -88 -6 -119 18 -18 33 -20 128 -20 79 0 113
4 129 15 44 31 37 111 -13 134 -14 6 -67 11 -118 11 -79 0 -97 -3 -120 -21z"/>
<path d="M4252 3744 c-13 -9 -27 -27 -32 -40 -11 -29 5 -81 30 -94 10 -6 101
-10 202 -10 146 0 188 3 205 15 44 31 37 111 -13 134 -16 7 -90 11 -197 11
-142 0 -177 -3 -195 -16z"/>
<path d="M3709 3119 c-32 -12 -53 -56 -43 -93 11 -46 38 -56 154 -56 77 0 111
4 127 15 44 31 37 111 -13 134 -30 13 -188 13 -225 0z"/>
<path d="M4252 3114 c-13 -9 -27 -27 -32 -40 -11 -29 5 -81 30 -94 10 -6 101
-10 202 -10 146 0 188 3 205 15 44 31 37 111 -13 134 -16 7 -90 11 -197 11
-142 0 -177 -3 -195 -16z"/>
<path d="M3703 2488 c-47 -23 -53 -103 -10 -133 30 -21 224 -21 254 0 44 31
37 111 -13 134 -31 14 -201 13 -231 -1z"/>
<path d="M4252 2484 c-13 -9 -27 -27 -32 -40 -11 -29 5 -81 30 -94 10 -6 102
-10 203 -10 206 0 221 4 233 67 5 27 1 37 -24 63 l-30 30 -179 0 c-148 0 -183
-3 -201 -16z"/>
<path d="M4235 1850 c-26 -29 -23 -89 5 -112 20 -16 45 -18 210 -18 169 0 190
2 211 19 29 23 31 81 4 111 -17 19 -29 20 -215 20 -186 0 -198 -1 -215 -20z"/>
</g>
</svg>
