<?xml version="1.0" encoding="UTF-8"?>
<svg width="35px" height="25px" viewBox="0 0 35 25" version="1.1" xmlns="http://www.w3.org/2000/svg" xmlns:xlink="http://www.w3.org/1999/xlink">
    <!-- Generator: Sketch 52.6 (67491) - http://www.bohemiancoding.com/sketch -->
    <title>Cloud</title>
    <desc>Created with Sketch.</desc>
    <g id="Page-1" stroke="none" stroke-width="1" fill="none" fill-rule="evenodd">
        <g id="Pricing" transform="translate(-194.000000, -1260.000000)" fill="#4A4A4A" fill-rule="nonzero">
            <g id="Cloud" transform="translate(194.000000, 1259.000000)">
                <path d="M26.9791667,25.7946429 L6.5625,25.7946429 C2.944375,25.7946429 0,22.8743036 0,19.2857143 C0,15.93 2.57395833,13.1600893 5.86541667,12.8129464 C5.84354167,12.54825 5.83333333,12.2980179 5.83333333,12.0535714 C5.83333333,6.07114286 10.7391667,1.20535714 16.7708333,1.20535714 C21.9697917,1.20535714 26.4702083,4.90966071 27.48375,9.91719643 C31.7304167,10.2195 35,13.6576607 35,17.8392857 C35,22.2263036 31.4022917,25.7946429 26.9791667,25.7946429 Z M6.514375,14.2217679 C3.74791667,14.2232143 1.45833333,16.4941071 1.45833333,19.2857143 C1.45833333,22.0773214 3.74791667,24.3482143 6.5625,24.3482143 L26.9791667,24.3482143 C30.5972917,24.3482143 33.5416667,21.427875 33.5416667,17.8392857 C33.5416667,14.2506964 30.5972917,11.3303571 26.9791667,11.3303571 C26.6204167,11.3361429 26.1945833,11.0830179 26.1435417,10.7199643 C25.4829167,6.12032143 21.4535417,2.65178571 16.7708333,2.65178571 C11.5441667,2.65178571 7.29166667,6.86957143 7.29166667,12.0535714 C7.29166667,12.4600179 7.32666667,12.8896071 7.4025,13.4103214 C7.433125,13.6200536 7.36895833,13.8326786 7.2275,13.9917857 C7.08458333,14.1494464 6.87604167,14.2174286 6.6675,14.2362321 C6.63395833,14.2347857 6.54645833,14.2261071 6.514375,14.2217679 Z" id="Shape"></path>
            </g>
        </g>
    </g>
</svg>