<?xml version="1.0" encoding="UTF-8"?>
<svg version="1.1" xmlns="http://www.w3.org/2000/svg" width="512" height="512">
<path d="M0 0 C1.01776016 -0.01409912 2.03552032 -0.02819824 3.0841217 -0.04272461 C4.18972946 -0.03260345 5.29533722 -0.0224823 6.43444824 -0.01205444 C7.60732895 -0.02081604 8.78020966 -0.02957764 9.9886322 -0.03860474 C13.86612933 -0.06061357 17.74248636 -0.04603897 21.61999512 -0.02914429 C24.31373009 -0.0302576 27.00744472 -0.03735646 29.70117188 -0.04364014 C35.34692744 -0.05272989 40.99235569 -0.04076691 46.63806152 -0.01693726 C53.15996866 0.01027329 59.68109423 0.0014586 66.20298243 -0.02606928 C71.80827845 -0.04877899 77.41333956 -0.05195152 83.01866674 -0.03887594 C86.36406141 -0.03109124 89.70879424 -0.03198206 93.05421448 -0.04655838 C96.78436267 -0.05924385 100.51300601 -0.03991838 104.24304199 -0.01205444 C105.34864975 -0.0221756 106.45425751 -0.03229675 107.59336853 -0.04272461 C115.07232508 0.06088203 115.07232508 0.06088203 119.02197266 3.019104 C120.98721907 5.84869307 121.51702988 7.22469337 121.46374512 10.63491821 C121.47663574 11.45991821 121.48952637 12.28491821 121.50280762 13.13491821 C120.49917907 16.91328452 118.94111426 18.25550587 115.83874512 20.63491821 C112.40521653 21.35517346 109.03745835 21.26713604 105.54064941 21.20254517 C104.5060408 21.2032753 103.47143219 21.20400543 102.4054718 21.20475769 C98.99076647 21.20127836 95.57743048 21.16239869 92.16296387 21.12319946 C89.79357142 21.11387262 87.42416933 21.1067559 85.05476379 21.10176086 C78.82218752 21.08268122 72.59019496 21.03357092 66.35784912 20.97824097 C59.99674374 20.92707002 53.63554392 20.90425135 47.27429199 20.87905884 C34.79552007 20.82545408 22.31718116 20.74012866 9.83874512 20.63491821 C9.84064372 21.20221545 9.84254232 21.76951269 9.84449846 22.35400075 C9.95635042 55.96484018 10.04215839 89.57563734 10.09407176 123.18662227 C10.10032542 127.22090157 10.10679702 131.25518049 10.11340332 135.28945923 C10.11471487 136.09262305 10.11602642 136.89578687 10.11737772 137.72328899 C10.13914369 150.73385424 10.17857173 163.7443092 10.2245091 176.75480898 C10.27124067 190.10140271 10.29903351 203.44793861 10.30918759 216.7946108 C10.31605363 225.03254623 10.33775132 233.27016997 10.37832745 241.50800947 C10.40472515 247.15440279 10.41275291 252.8006346 10.406252 258.44708516 C10.40304435 261.70660267 10.4107345 264.96545871 10.43477249 268.22490501 C10.45955358 271.75749759 10.45370333 275.28874332 10.4400177 278.82136536 C10.45458191 279.85346624 10.46914611 280.88556713 10.48415166 281.94894379 C10.43478774 286.64466777 10.37660797 288.90498407 7.52675152 292.77252674 C4.04928905 295.18189468 1.17614593 295.31415118 -2.91125488 295.23648071 C-4.01485352 295.24849014 -4.01485352 295.24849014 -5.14074707 295.26074219 C-7.48148283 295.28373865 -9.82047375 295.27437938 -12.16125488 295.25991821 C-14.50170852 295.25606244 -16.84139465 295.25957267 -19.1817627 295.28051758 C-20.63419045 295.29254559 -22.08683425 295.29003797 -23.53918457 295.27081299 C-27.86999503 295.29464978 -30.86981741 295.7094618 -34.16125488 298.63491821 C-34.52585497 301.47028826 -34.55366694 303.03582488 -32.96910942 305.45496017 C-32.40430024 306.02112318 -31.83949106 306.58728619 -31.25756645 307.17060566 C-30.60987167 307.83195587 -29.96217689 308.49330609 -29.294855 309.17469722 C-28.20958308 310.24426191 -28.20958308 310.24426191 -27.10238647 311.33543396 C-26.34299558 312.10333038 -25.58360468 312.87122679 -24.80120194 313.6623928 C-22.24277985 316.24317453 -19.66675925 318.80563983 -17.0904541 321.36856079 C-15.25681334 323.21060994 -13.42423202 325.05371422 -11.59263611 326.89779663 C-7.12551924 331.39102959 -2.6448819 335.87054164 1.84081931 340.34521387 C5.48584723 343.98169035 9.12616125 347.62282264 12.76314926 351.26733971 C13.28040948 351.78565481 13.79766969 352.30396991 14.33060446 352.83799153 C15.38133699 353.89089495 16.43206158 354.94380631 17.4827783 355.99672552 C27.34105053 365.87443784 37.21499545 375.73636493 47.09408723 385.59324851 C55.57297079 394.0538818 64.03717012 402.52898138 72.49108887 411.01455688 C82.30415264 420.86436472 92.12699699 430.70425581 101.96505153 440.52910727 C103.01386594 441.57658055 104.06266428 442.62406992 105.11144638 443.67157555 C105.62749073 444.18698923 106.14353507 444.70240291 106.67521713 445.23343519 C110.31344977 448.86863789 113.94447874 452.51094174 117.5727272 456.15610695 C122.45551473 461.06131631 127.35381442 465.95055664 132.2630291 470.82931519 C134.06536528 472.62530024 135.86257267 474.42644867 137.65431023 476.23300743 C140.09529113 478.69254163 142.55388516 481.13297101 145.01797485 483.56932068 C145.72810514 484.29351741 146.43823542 485.01771414 147.1698848 485.76385623 C150.00784768 488.53751741 151.99735478 490.38721298 155.83874512 491.5181179 C160.55839905 490.12865227 163.2673227 487.02870682 166.65951538 483.56932068 C167.42826622 482.80922422 168.19701706 482.04912775 168.98906338 481.26599807 C171.56916611 478.70753861 174.12722019 476.12810663 176.68591309 473.54824829 C178.52788845 471.71276374 180.37114616 469.87856531 182.21559143 468.04556274 C186.70730785 463.57668654 191.18269819 459.09179594 195.65257101 454.6010823 C199.28494158 450.95243666 202.92330177 447.30986578 206.56604385 443.67157555 C207.34331327 442.89525214 207.34331327 442.89525214 208.1362851 442.10324543 C209.1889382 441.05193837 210.24160806 440.00064808 211.29429449 438.9493744 C221.16730489 429.0883043 231.02222006 419.20930998 240.87080123 409.32384958 C249.32525397 400.83849883 257.79387521 392.36751344 266.27331543 383.90713501 C276.11653407 374.08601843 285.95172836 364.25698788 295.77360451 354.4145233 C296.82050969 353.36545515 297.86742182 352.31639392 298.91434097 351.26733971 C299.42945967 350.75115465 299.94457836 350.23496959 300.47530671 349.70314256 C304.10926764 346.06270684 307.74882606 342.42792535 311.39049911 338.79520607 C316.28947938 333.90784912 321.17491473 329.00729188 326.05143547 324.09752655 C327.84668728 322.29404239 329.64623988 320.49482809 331.45029259 318.70014763 C333.90521392 316.2565856 336.34431743 313.7982726 338.77987671 311.33543396 C339.50339132 310.62239084 340.22690593 309.90934771 340.97234523 309.17469722 C341.62004001 308.51334701 342.26773479 307.85199679 342.93505669 307.17060566 C343.49986586 306.60444265 344.06467504 306.03827963 344.64659965 305.45496017 C346.23115717 303.03582488 346.2033452 301.47028826 345.83874512 298.63491821 C341.9899044 295.21403726 337.99877066 295.23398597 333.08874512 295.29898071 C331.57832412 295.28647244 330.06790742 295.27343551 328.55749512 295.25991821 C326.19405918 295.25598571 323.8310472 295.25996577 321.46765137 295.27456665 C319.17404637 295.28315336 316.88219561 295.26143819 314.58874512 295.23648071 C313.53541992 295.25649643 313.53541992 295.25649643 312.46081543 295.2769165 C308.98617703 295.22481168 307.02043109 294.76079976 304.15073872 292.77252674 C300.78274121 288.20181438 301.15925213 284.36449914 301.23747253 278.82136536 C301.23320041 277.71861765 301.22892829 276.61586994 301.2245267 275.47970563 C301.21627811 271.77737041 301.2438147 268.07616308 301.27111816 264.37393188 C301.27252823 261.72295577 301.27195777 259.07204916 301.26890564 256.42108154 C301.26628446 250.71012339 301.28196541 244.99945096 301.31009483 239.28856468 C301.35073847 231.0316432 301.3637529 222.7748598 301.37003479 214.51784912 C301.38097665 201.12132835 301.41424782 187.72495984 301.46154785 174.32852173 C301.5074463 161.31550864 301.54283679 148.30253692 301.56408691 135.28945923 C301.56540053 134.48727104 301.56671415 133.68508284 301.56806757 132.85858592 C301.57459278 128.83422418 301.58091132 124.80986215 301.58712709 120.78549993 C301.6389567 87.40186227 301.72701894 54.01840891 301.83874512 20.63491821 C300.5218721 20.64602127 299.20499908 20.65712433 297.84822083 20.66856384 C285.44414404 20.76987723 273.04015109 20.84485385 260.63575459 20.89397907 C254.25833722 20.92008389 247.8812536 20.95549931 241.50402832 21.01211548 C235.35079349 21.06640186 229.19787986 21.09633208 223.04442406 21.10930443 C220.695619 21.11855023 218.34683171 21.13660499 215.99816322 21.1635685 C212.71066789 21.19981249 209.42450347 21.2048653 206.13684082 21.20254517 C204.67703796 21.22950974 204.67703796 21.22950974 203.18774414 21.25701904 C198.55507057 21.22159093 196.51246275 21.15163688 192.73661804 18.25569153 C190.68120974 15.41737756 190.1596368 14.09785081 190.21374512 10.63491821 C190.20085449 9.80991821 190.18796387 8.98491821 190.17468262 8.13491821 C191.19270952 4.30234635 192.65115277 3.02237317 195.83874512 0.63491821 C199.697701 -0.12101802 203.51251067 -0.04795735 207.43444824 -0.01205444 C208.60732895 -0.02081604 209.78020966 -0.02957764 210.9886322 -0.03860474 C214.86612933 -0.06061357 218.74248636 -0.04603897 222.61999512 -0.02914429 C225.31373009 -0.0302576 228.00744472 -0.03735646 230.70117188 -0.04364014 C236.34692744 -0.05272989 241.99235569 -0.04076691 247.63806152 -0.01693726 C254.15996866 0.01027329 260.68109423 0.0014586 267.20298243 -0.02606928 C272.80827845 -0.04877899 278.41333956 -0.05195152 284.01866674 -0.03887594 C287.36406141 -0.03109124 290.70879424 -0.03198206 294.05421448 -0.04655838 C297.78436267 -0.05924385 301.51300601 -0.03991838 305.24304199 -0.01205444 C306.34864975 -0.0221756 307.45425751 -0.03229675 308.59336853 -0.04272461 C309.61112869 -0.02862549 310.62888885 -0.01452637 311.67749023 0 C312.55868279 0.00188513 313.43987534 0.00377026 314.34777069 0.00571251 C318.20633477 0.98036343 319.54250761 2.38373295 321.83874512 5.63491821 C322.56163036 9.24075318 322.49176419 12.78142653 322.4400177 16.44847107 C322.44428982 17.55121878 322.44856195 18.65396649 322.45296353 19.79013079 C322.46121212 23.49246602 322.43367554 27.19367334 322.40637207 30.89590454 C322.404962 33.54688065 322.40553247 36.19778727 322.40858459 38.84875488 C322.41120577 44.55971303 322.39552482 50.27038546 322.3673954 55.98127174 C322.32675176 64.23819323 322.31373733 72.49497662 322.30745544 80.7519873 C322.29651359 94.14850808 322.26324241 107.54487659 322.21594238 120.9413147 C322.17004393 133.95432778 322.13465344 146.9672995 322.11340332 159.9803772 C322.1120897 160.78256539 322.11077609 161.58475358 322.10942266 162.41125051 C322.10289745 166.43561224 322.09657892 170.45997427 322.09036314 174.4843365 C322.03853353 207.86797416 321.95047129 241.25142752 321.83874512 274.63491821 C322.61476074 274.61397095 323.39077637 274.59302368 324.19030762 274.57144165 C327.7396526 274.48779062 331.28878947 274.43610192 334.83874512 274.38491821 C336.0594873 274.35140259 337.28022949 274.31788696 338.53796387 274.28335571 C347.03634881 274.19148128 352.06853978 275.1859568 359.01062012 280.20523071 C365.79797309 286.89178141 368.25054238 294.16690234 368.36999512 303.60366821 C366.77646118 312.69618536 362.6094104 318.74441774 356.12922668 325.09960938 C355.34811702 325.88937341 354.56700736 326.67913745 353.76222771 327.49283373 C351.15635462 330.12019734 348.52969786 332.72570321 345.90246582 335.33169556 C344.02361149 337.21704675 342.14596408 339.10353374 340.2696991 340.99145508 C335.7090853 345.57483315 331.13255431 350.14198733 326.55011735 354.70353596 C322.82482656 358.4125096 319.10565691 362.12752096 315.39073753 365.84688187 C314.86100864 366.37724143 314.33127975 366.907601 313.78549847 367.45403207 C312.70923551 368.53164115 311.63298929 369.60926695 310.55675962 370.68690927 C300.47664836 380.77894269 290.37865274 390.85292403 280.27413651 400.9205143 C271.61272168 409.55103396 262.96566845 418.1957223 254.32922363 426.85122681 C244.2883152 436.91426904 234.23944544 446.96924193 224.17718762 457.01094019 C223.10339537 458.08256961 222.02960998 459.15420591 220.95583153 460.22584915 C220.42756872 460.7530456 219.89930591 461.28024204 219.35503513 461.82341414 C215.64079926 465.5311925 211.9321904 469.24454208 208.22567177 472.96003342 C203.70612625 477.49013644 199.17761846 482.0110513 194.63760481 486.52064459 C192.32337557 488.8197908 190.01461897 491.12398236 187.71384048 493.43659973 C185.21501218 495.94686963 182.70126428 498.44119475 180.18318176 500.93212891 C179.10600473 502.02501317 179.10600473 502.02501317 178.00706655 503.13997591 C172.46284032 508.57355951 166.93046377 512.08560715 159.14343262 513.13101196 C143.43081736 512.86257321 136.55912922 505.49780811 125.84234619 494.79914856 C125.07879232 494.0406825 124.31523844 493.28221645 123.52854657 492.50076658 C120.98994605 489.97776784 118.45484609 487.45128268 115.9197998 484.92471313 C114.09278783 483.10724892 112.26560439 481.28995704 110.43826294 479.4728241 C104.97403155 474.03771109 99.5146975 468.5976927 94.05653369 463.1564872 C92.51338622 461.61814446 90.97015028 460.07989052 89.4268961 458.54165483 C79.82645241 448.97216579 70.22815532 439.40052699 60.63477707 429.82395458 C58.41894195 427.6120683 56.20307972 425.40020919 53.98718262 423.18838501 C53.43650152 422.63871228 52.88582043 422.08903954 52.31845203 421.52271006 C43.38807143 412.60935406 34.4457011 403.70812601 25.49846634 394.81169172 C16.29772001 385.66275467 7.10836973 376.50249272 -2.07013392 367.33124048 C-7.21798117 362.18804835 -12.37072661 357.04998179 -17.5364151 351.9247036 C-22.3928077 347.1062591 -27.23369555 342.27270364 -32.06450272 337.42860985 C-33.83783554 335.65533099 -35.61630004 333.88716663 -37.40027237 332.12459183 C-39.83859571 329.71395717 -42.25760516 327.28542363 -44.67279053 324.85163879 C-45.37939859 324.16182566 -46.08600665 323.47201253 -46.81402707 322.76129597 C-52.25505935 317.2152534 -55.34558595 311.28902918 -56.69250488 303.60366821 C-56.57305215 294.16690234 -54.12048285 286.89178141 -47.33312988 280.20523071 C-39.26594394 274.37248117 -32.93386775 274.11660994 -23.16125488 274.38491821 C-21.9095752 274.40296509 -20.65789551 274.42101196 -19.36828613 274.43960571 C-16.29847246 274.4864731 -13.23027314 274.55207511 -10.16125488 274.63491821 C-10.16315348 274.06762098 -10.16505209 273.50032374 -10.16700822 272.91583568 C-10.27886019 239.30499625 -10.36466816 205.69419909 -10.41658153 172.08321415 C-10.42283518 168.04893485 -10.42930678 164.01465593 -10.43591309 159.9803772 C-10.43722464 159.17721338 -10.43853619 158.37404955 -10.43988749 157.54654744 C-10.46165345 144.53598219 -10.5010815 131.52552723 -10.54701886 118.51502744 C-10.59375044 105.16843372 -10.62154328 91.82189781 -10.63169736 78.47522563 C-10.6385634 70.23729019 -10.66026109 61.99966646 -10.70083722 53.76182695 C-10.72723492 48.11543364 -10.73526267 42.46920183 -10.72876177 36.82275126 C-10.72555411 33.56323375 -10.73324427 30.30437772 -10.75728226 27.04493141 C-10.78206335 23.51233883 -10.7762131 19.98109311 -10.76252747 16.44847107 C-10.77709167 15.41637019 -10.79165588 14.3842693 -10.80666143 13.32089263 C-10.75800828 8.69278055 -10.67168686 6.35762608 -7.94625378 2.49875355 C-4.94833194 0.49242146 -3.55972379 0.00761529 0 0 Z " fill="#000000" transform="translate(100.1612548828125,-0.634918212890625)"/>
<path d="M0 0 C11.19742843 7.67683958 18.76777397 18.49602873 21.8684082 31.75976562 C24.5474189 46.61002069 21.62219821 61.0191102 13.0859375 73.4453125 C5.04474265 84.08706398 -6.71072703 91.43736645 -19.99609375 93.33984375 C-34.89752992 94.79244815 -48.07956045 91.95258139 -59.91015625 82.46875 C-70.88874512 72.9586348 -77.60913503 61.7062446 -78.75 46.875 C-79.76550781 32.40401369 -74.78856572 19.58404766 -65.5625 8.625 C-48.19488583 -9.67198483 -21.57681868 -12.60634572 0 0 Z M-51.75 24.875 C-56.69928952 32.07173365 -58.8078118 39.91513351 -57.26953125 48.58203125 C-54.84708359 57.50895162 -50.08953894 63.39462593 -42.75 68.875 C-34.95030225 73.20816541 -27.64215808 73.67187249 -19.125 71.375 C-10.50502122 68.37674651 -5.74728634 64.15938061 -1.25 56.25 C2.52608168 47.99626955 2.66468057 39.95253885 -0.4375 31.4375 C-4.29185911 23.18196958 -9.82312308 18.99966307 -17.75 14.875 C-30.57762428 10.59912524 -43.0933738 15.03020942 -51.75 24.875 Z " fill="#000000" transform="translate(211.75,253.125)"/>
<path d="M0 0 C0.87032364 -0.00524185 1.74064728 -0.0104837 2.63734436 -0.0158844 C4.47558527 -0.02229954 6.31386726 -0.02097416 8.15209961 -0.01245117 C10.95956816 -0.0039459 13.76499827 -0.03270061 16.57226562 -0.06445312 C18.36067648 -0.06606543 20.14909092 -0.06548704 21.9375 -0.0625 C23.19239479 -0.07935097 23.19239479 -0.07935097 24.47264099 -0.09654236 C28.51873658 -0.04834653 30.5437585 0.12202531 34.04125977 2.33959961 C37.3562343 5.8209926 37.42452118 8.51593847 37.39453125 13.171875 C36.82458759 16.75880304 34.83289576 18.30198269 32.03515625 20.43359375 C29.37337404 21.76448485 27.34776229 21.54628368 24.37109375 21.53125 C23.24960937 21.52802734 22.128125 21.52480469 20.97265625 21.52148438 C19.79703125 21.51310547 18.62140625 21.50472656 17.41015625 21.49609375 C16.22679687 21.49158203 15.0434375 21.48707031 13.82421875 21.48242188 C10.89450986 21.47060853 7.96482684 21.45267265 5.03515625 21.43359375 C5.03515625 27.37359375 5.03515625 33.31359375 5.03515625 39.43359375 C6.63746094 39.39878906 8.23976563 39.36398437 9.890625 39.328125 C12.00129159 39.29998278 14.11196953 39.27268308 16.22265625 39.24609375 C17.27775391 39.22095703 18.33285156 39.19582031 19.41992188 39.16992188 C20.95229492 39.15541992 20.95229492 39.15541992 22.515625 39.140625 C23.45301514 39.12491455 24.39040527 39.1092041 25.35620117 39.09301758 C28.56270716 39.50066142 30.41814533 40.57229722 33.03515625 42.43359375 C35.60705304 45.86278947 35.53729825 49.27298861 35.03515625 53.43359375 C33.01803493 56.90924894 30.92155089 59.13812887 27.03515625 60.43359375 C25.33498781 60.51537489 23.63179328 60.54108876 21.9296875 60.53125 C20.94677734 60.52802734 19.96386719 60.52480469 18.95117188 60.52148438 C17.92701172 60.51310547 16.90285156 60.50472656 15.84765625 60.49609375 C14.29401367 60.48932617 14.29401367 60.48932617 12.70898438 60.48242188 C10.15098359 60.47063385 7.59309892 60.4541789 5.03515625 60.43359375 C5.05610352 61.43737061 5.07705078 62.44114746 5.09863281 63.4753418 C5.17122319 67.21184941 5.21702436 70.94829512 5.25488281 74.68530273 C5.27495517 76.30031833 5.30221955 77.91526164 5.33691406 79.5300293 C5.3856284 81.85613876 5.40816779 84.18128468 5.42578125 86.5078125 C5.44642639 87.22571457 5.46707153 87.94361664 5.48834229 88.68327332 C5.48996003 92.32613118 5.13563336 94.27844832 3.13574219 97.36645508 C0.29937616 100.15765814 -1.39218732 100.63882221 -5.27734375 100.80859375 C-9.07021379 100.77805534 -9.79710941 100.56288897 -12.96484375 98.12109375 C-16.26706651 93.68373192 -16.11823128 89.7744799 -16.12597656 84.46142578 C-16.13094147 83.64971924 -16.13590637 82.8380127 -16.14102173 82.00170898 C-16.15563359 79.3149328 -16.16244348 76.62821565 -16.16796875 73.94140625 C-16.1737207 72.07437132 -16.17947843 70.20733641 -16.1852417 68.34030151 C-16.1957487 64.42461878 -16.20159344 60.50895657 -16.20507812 56.59326172 C-16.21056434 51.57723374 -16.23459636 46.56147701 -16.26305008 41.54553413 C-16.28167802 37.68849903 -16.28688213 33.83152926 -16.288414 29.97445297 C-16.29144035 28.12528881 -16.2994683 26.27612579 -16.31259918 24.42700577 C-16.32966412 21.83931099 -16.32777852 19.25227909 -16.32128906 16.66455078 C-16.33050385 15.90177826 -16.33971863 15.13900574 -16.34921265 14.3531189 C-16.30580845 8.82485284 -15.0157001 5.68384319 -11.33764648 1.64819336 C-7.65090302 -0.23899141 -4.0848321 -0.01429918 0 0 Z " fill="#000000" transform="translate(268.96484375,245.56640625)"/>
<path d="M0 0 C1.88554239 -0.01653985 3.7710226 -0.04380394 5.65625 -0.08203125 C8.37891062 -0.13694285 11.10010156 -0.15869661 13.82324219 -0.17333984 C14.66095154 -0.19600922 15.49866089 -0.21867859 16.36175537 -0.24203491 C20.57922244 -0.22689496 23.26538263 0.05545215 26.60888672 2.75610352 C29.56556895 5.84871513 30.10218603 7.25037932 30.32714844 11.35400391 C29.91648532 14.79414903 28.33196099 16.80388307 26.08886719 19.35009766 C22.7871133 21.48871309 20.11680606 21.58507662 16.22949219 21.54541016 C15.11445313 21.53896484 13.99941406 21.53251953 12.85058594 21.52587891 C11.69171875 21.50912109 10.53285156 21.49236328 9.33886719 21.47509766 C8.16453125 21.46607422 6.99019531 21.45705078 5.78027344 21.44775391 C2.8830509 21.42419925 -0.01406677 21.38832873 -2.91113281 21.35009766 C-2.91113281 27.29009766 -2.91113281 33.23009766 -2.91113281 39.35009766 C-1.30882812 39.31529297 0.29347656 39.28048828 1.94433594 39.24462891 C4.05500253 39.21648669 6.16568047 39.18918699 8.27636719 39.16259766 C9.33146484 39.13746094 10.3865625 39.11232422 11.47363281 39.08642578 C13.00600586 39.07192383 13.00600586 39.07192383 14.56933594 39.05712891 C15.50672607 39.04141846 16.44411621 39.02570801 17.40991211 39.00952148 C20.6164181 39.41716532 22.47185627 40.48880112 25.08886719 42.35009766 C27.65332864 45.76937959 27.38528203 49.20028986 27.08886719 53.35009766 C26.19115807 56.28805477 25.3685475 57.15118064 22.85180664 58.94116211 C19.78286097 60.50614271 17.98513747 60.70031448 14.56933594 60.64306641 C13.54775391 60.63339844 12.52617187 60.62373047 11.47363281 60.61376953 C10.41853516 60.58863281 9.3634375 60.56349609 8.27636719 60.53759766 C6.6647168 60.51729492 6.6647168 60.51729492 5.02050781 60.49658203 C2.37611263 60.46132343 -0.26725029 60.41204132 -2.91113281 60.35009766 C-2.86400146 61.90120239 -2.86400146 61.90120239 -2.81591797 63.48364258 C-2.70705849 67.33179385 -2.63834439 71.17981007 -2.58154297 75.02905273 C-2.55142736 76.69269723 -2.51052432 78.35618368 -2.45849609 80.01928711 C-2.3854396 82.4151102 -2.351628 84.80883019 -2.32519531 87.20556641 C-2.2942276 87.94534225 -2.26325989 88.6851181 -2.23135376 89.4473114 C-2.22947933 92.34402834 -2.33639721 94.64633977 -4.21209717 96.94311523 C-6.93051485 99.27428184 -9.26065783 101.05114922 -12.91113281 100.97509766 C-13.52988281 100.98798828 -14.14863281 101.00087891 -14.78613281 101.01416016 C-18.18290902 99.95266759 -20.69971301 98.08570515 -22.91113281 95.35009766 C-23.77284551 92.46073986 -23.71260418 89.6902218 -23.65576172 86.69189453 C-23.66671371 85.40074486 -23.66671371 85.40074486 -23.67788696 84.08351135 C-23.69407016 81.2444816 -23.66690887 78.40774557 -23.63769531 75.56884766 C-23.63665772 73.59257 -23.63769462 71.61629026 -23.64071655 69.64001465 C-23.64053723 65.50058119 -23.6197072 61.36192783 -23.58349609 57.22265625 C-23.53812036 51.91949485 -23.53703424 46.61747294 -23.55053139 41.31417084 C-23.55721781 37.23400768 -23.54393827 33.15410382 -23.52427292 29.07398987 C-23.51658034 27.11879331 -23.51426777 25.16356788 -23.51744461 23.20835876 C-23.5181873 20.4744482 -23.49291264 17.74199249 -23.46044922 15.00830078 C-23.46540405 14.20191666 -23.47035889 13.39553253 -23.47546387 12.56471252 C-23.38036045 7.54089325 -22.54251999 4.86110472 -18.91113281 1.35009766 C-13.79086093 -1.21003828 -5.69974439 0.03665112 0 0 Z " fill="#000000" transform="translate(348.9111328125,245.64990234375)"/>
<path d="M0 0 C3.49890004 2.11391877 4.70578686 3.11736059 6 7 C6.93459347 14.10034666 3.89781886 19.17515026 0.734375 25.3984375 C0.18573792 26.50563141 -0.36289917 27.61282532 -0.92816162 28.75357056 C-2.39335275 31.70483385 -3.87011937 34.64989651 -5.35314941 37.59222412 C-6.81192528 40.49200527 -8.25705118 43.39855622 -9.703125 46.3046875 C-11.4260311 49.76696692 -13.14959185 53.2288898 -14.87765503 56.68859863 C-22.01750981 70.99775919 -28.90042862 85.42906314 -35.72949219 99.88864136 C-37.23424197 103.06914593 -38.74884178 106.24488629 -40.26611328 109.41943359 C-41.02125017 111.00651786 -41.7710459 112.59615198 -42.51611328 114.18798828 C-43.62991156 116.5643765 -44.76216641 118.93116636 -45.8984375 121.296875 C-46.22355316 122.00197205 -46.54866882 122.70706909 -46.88363647 123.43353271 C-49.19973247 128.19063252 -51.63357748 130.96718238 -56 134 C-59.46661281 134.619038 -61.6722863 134.80972674 -64.7421875 132.9375 C-68.11381963 130.22728853 -69.7864866 128.42603444 -70.42578125 124.15625 C-70.30903257 118.09154545 -66.86222859 112.7827521 -64.1875 107.5 C-63.55959525 106.23411164 -62.933172 104.96748753 -62.30810547 103.70019531 C-60.94603003 100.94224037 -59.57700048 98.18788536 -58.20361328 95.43554688 C-54.69563169 88.39174102 -51.26979437 81.3077003 -47.83087158 74.23001099 C-46.21730002 70.91151899 -44.59956969 67.59506202 -42.98187256 64.27857971 C-39.48210998 57.10316782 -35.99032595 49.92397416 -32.51171875 42.73828125 C-32.15388306 41.99925568 -31.79604736 41.2602301 -31.42736816 40.49880981 C-29.75886625 37.05232311 -28.09159183 33.6052507 -26.42626953 30.15722656 C-24.93869751 27.07875958 -23.44041013 24.00564857 -21.93902588 20.93389893 C-20.91828066 18.83170118 -19.91335536 16.72225426 -18.90771484 14.61279297 C-18.2032351 13.15701568 -17.49832975 11.70144426 -16.79296875 10.24609375 C-16.47314529 9.56619888 -16.15332184 8.88630402 -15.82380676 8.18580627 C-12.14511399 0.66466724 -8.12817494 -1.33296274 0 0 Z " fill="#000000" transform="translate(288,58)"/>
<path d="M0 0 C7.19736698 5.0871442 11.60213244 12.78075639 13.3125 21.375 C14.49936015 31.22154346 12.02099709 40.94398077 5.84765625 48.81640625 C-0.9573897 55.72534603 -9.56745385 59.42843857 -19.1875 59.75 C-28.98095341 59.42264223 -37.62531575 55.60261511 -44.48046875 48.5234375 C-51.35681157 40.00016812 -52.63728477 31.13030926 -51.6875 20.375 C-50.22315849 11.87918079 -45.08541319 4.79852957 -38.375 -0.5 C-26.24470051 -8.30769834 -11.98909445 -7.20546578 0 0 Z M-27.6875 18.375 C-30.85705197 22.30961624 -31.22098798 25.39577887 -30.6875 30.375 C-29.28876781 33.79412313 -28.03363174 35.13351274 -25 37.25 C-20.850024 38.65942581 -17.85006909 38.75395807 -13.6875 37.375 C-10.05531819 34.82474469 -8.4604928 32.67934937 -7.6875 28.375 C-7.6875 23.39655975 -8.91731643 21.47127002 -12.0234375 17.79296875 C-16.53550966 13.94817486 -23.43252049 14.62060631 -27.6875 18.375 Z " fill="#000000" transform="translate(326.6875,136.625)"/>
<path d="M0 0 C8.37561548 4.91737095 13.90533317 11.37025172 16.8125 20.67578125 C18.78427431 29.78291383 17.8889747 38.33328732 13.4375 46.5625 C8.3156696 54.0008429 2.32530941 59.39184424 -6.5625 61.5625 C-17.21591977 63.13911041 -26.67562915 62.09381472 -35.5625 55.5625 C-42.75667623 49.11577065 -47.00742738 42.11690294 -47.72265625 32.3828125 C-48.04873918 23.28084545 -46.11548663 15.50814574 -40.296875 8.37890625 C-29.66227751 -2.75867896 -14.23022407 -6.51765988 0 0 Z M-24.5625 22.5625 C-26.85103994 25.83184278 -27.03412218 28.6323152 -26.5625 32.5625 C-24.52256092 36.2203218 -23.05830738 38.23196174 -19.5625 40.5625 C-15.05967589 41.28767392 -11.56964346 41.16250036 -7.625 38.8125 C-4.78043535 35.70933856 -3.73340358 33.87276074 -3.1875 29.6875 C-3.66388502 25.71762486 -5.09290426 23.66713464 -7.5625 20.5625 C-13.36726369 16.69265754 -19.80075982 17.36787435 -24.5625 22.5625 Z " fill="#000000" transform="translate(219.5625,56.4375)"/>
<path d="M0 0 C3.125 1.875 3.125 1.875 5 5 C5.98876625 10.02622846 5.7769173 13.70513784 3.125 18.125 C-1.29486216 20.7769173 -4.97377154 20.98876625 -10 20 C-13.125 18.125 -13.125 18.125 -15 15 C-15.98876625 9.97377154 -15.7769173 6.29486216 -13.125 1.875 C-8.70513784 -0.7769173 -5.02622846 -0.98876625 0 0 Z " fill="#000000" transform="translate(261,0)"/>
</svg>
