<?xml version="1.0" standalone="no"?>
<!DOCTYPE svg PUBLIC "-//W3C//DTD SVG 20010904//EN"
 "http://www.w3.org/TR/2001/REC-SVG-20010904/DTD/svg10.dtd">
<svg version="1.0" xmlns="http://www.w3.org/2000/svg"
 width="512.000000pt" height="512.000000pt" viewBox="0 0 512.000000 512.000000"
 preserveAspectRatio="xMidYMid meet">

<g transform="translate(0.000000,512.000000) scale(0.100000,-0.100000)"
fill="#000000" stroke="none">
<path d="M555 4786 c-50 -16 -105 -44 -105 -54 1 -4 476 -275 1056 -604 l1055
-596 1054 596 c580 329 1054 601 1055 605 0 4 -26 20 -57 35 l-58 27 -1980 2
c-1577 1 -1988 -1 -2020 -11z"/>
<path d="M333 4573 c-5 -16 -8 -566 -8 -1223 l0 -1195 34 -63 c38 -70 69 -100
145 -140 50 -26 55 -27 266 -30 l215 -4 28 57 c40 83 126 168 210 210 38 19
75 35 81 35 6 0 24 40 39 90 186 587 793 967 1397 875 283 -43 517 -161 720
-365 153 -153 256 -319 317 -510 27 -86 29 -89 67 -101 101 -34 214 -135 265
-237 l26 -54 215 4 c211 3 216 4 266 30 76 40 107 70 145 140 l34 63 3 1160
c3 1115 1 1244 -17 1274 -6 10 -275 -138 -1104 -608 -603 -342 -1105 -621
-1116 -621 -15 0 -1566 870 -2168 1216 -23 13 -44 24 -47 24 -3 0 -9 -12 -13
-27z"/>
<path d="M2375 3024 c-454 -80 -819 -432 -909 -874 l-13 -64 -59 -11 c-113
-21 -196 -82 -244 -180 -25 -49 -25 -54 -25 -295 l0 -245 27 -51 c40 -76 70
-107 140 -145 l63 -34 232 0 c218 0 233 1 259 21 15 11 37 33 48 48 20 27 21
39 21 404 l0 377 -24 34 c-13 18 -44 42 -68 53 -27 12 -43 25 -43 36 1 37 68
192 112 257 124 186 309 309 526 351 371 71 752 -146 889 -506 18 -47 32 -93
33 -102 0 -11 -16 -24 -43 -36 -24 -11 -55 -35 -68 -53 l-24 -34 -5 -410 -5
-410 -27 -72 c-64 -178 -183 -310 -343 -383 -97 -44 -101 -45 -113 -13 -15 45
-61 92 -101 104 -21 6 -86 9 -153 7 -126 -3 -147 -11 -192 -72 -19 -25 -21
-42 -21 -166 0 -151 5 -167 69 -214 26 -19 41 -21 209 -20 196 0 257 10 386
60 153 61 308 177 409 307 67 87 148 253 169 347 l17 78 131 4 c125 4 132 5
193 38 70 37 100 68 140 144 l27 51 0 245 0 245 -27 51 c-15 28 -38 64 -52 81
-34 41 -120 85 -190 98 l-59 11 -13 64 c-43 209 -156 414 -314 570 -253 248
-623 365 -965 304z"/>
</g>
</svg>
