<?xml version="1.0" standalone="no"?>
<!DOCTYPE svg PUBLIC "-//W3C//DTD SVG 20010904//EN"
 "http://www.w3.org/TR/2001/REC-SVG-20010904/DTD/svg10.dtd">
<svg version="1.0" xmlns="http://www.w3.org/2000/svg"
 width="512.000000pt" height="512.000000pt" viewBox="0 0 512.000000 512.000000"
 preserveAspectRatio="xMidYMid meet">

<g transform="translate(0.000000,512.000000) scale(0.100000,-0.100000)"
fill="#000000" stroke="none">
<path d="M2495 4948 c-35 -13 -88 -50 -163 -113 -59 -50 -65 -51 -175 -30
-107 20 -153 19 -205 -6 -55 -27 -90 -80 -133 -201 -36 -100 -39 -102 -163
-144 -157 -54 -211 -133 -186 -275 7 -35 14 -89 17 -119 5 -54 4 -57 -38 -109
-163 -199 -166 -255 -20 -429 69 -83 69 -84 45 -224 -12 -73 -13 -100 -4 -137
22 -89 64 -122 236 -185 78 -29 77 -28 123 -151 40 -105 71 -148 124 -174 51
-25 114 -27 207 -6 105 23 111 22 197 -50 94 -79 145 -105 203 -105 58 0 109
26 203 105 86 72 92 73 197 50 94 -21 156 -19 208 6 53 26 84 71 126 182 17
45 36 90 42 100 5 10 52 33 103 52 151 56 189 88 211 176 9 36 8 64 -4 135
-25 140 -24 143 45 226 80 95 103 140 103 203 0 63 -23 108 -104 203 l-62 72
5 58 c3 31 10 87 17 124 13 75 4 124 -32 178 -26 37 -75 65 -198 112 l-84 33
-36 95 c-20 53 -46 112 -58 132 -49 79 -131 101 -273 74 -47 -9 -95 -16 -107
-16 -11 0 -56 29 -99 65 -43 36 -94 72 -113 82 -44 21 -116 26 -155 11z m106
-708 c11 -6 51 -74 89 -150 39 -77 73 -140 78 -140 4 0 66 -9 137 -20 72 -11
136 -20 143 -20 25 0 62 -48 62 -81 0 -27 -17 -49 -113 -148 l-114 -116 23
-130 c29 -165 29 -183 2 -212 -36 -38 -74 -30 -217 46 l-130 69 -131 -69
c-143 -75 -179 -83 -217 -47 -28 27 -28 45 1 213 l23 130 -114 116 c-96 99
-113 121 -113 148 0 58 30 75 165 94 66 10 135 21 153 24 31 5 37 14 102 144
38 76 77 142 87 148 23 13 59 14 84 1z"/>
<path d="M1195 2109 c-21 -10 -414 -544 -435 -590 -15 -34 3 -77 40 -96 35
-18 1356 -19 1394 -1 16 6 93 104 192 240 91 125 169 228 174 228 5 0 83 -103
174 -228 99 -136 176 -234 192 -240 38 -18 1359 -17 1394 1 37 19 55 62 40 96
-23 52 -415 580 -438 591 -31 14 -2698 13 -2727 -1z"/>
<path d="M2501 1374 c-21 -26 -21 -36 -21 -540 l0 -514 -586 0 -586 0 -29 29
-29 29 0 422 0 422 -29 29 c-36 36 -73 37 -107 4 l-25 -25 3 -447 c3 -406 5
-451 21 -480 24 -45 77 -96 123 -119 38 -18 76 -19 1309 -22 1394 -2 1314 -6
1395 58 21 17 50 54 64 82 l26 52 0 438 0 439 -25 24 c-33 33 -70 32 -106 -4
l-29 -29 0 -421 0 -420 -24 -28 -24 -28 -591 -3 -591 -2 0 513 c0 505 0 515
-21 541 -16 20 -29 26 -59 26 -30 0 -43 -6 -59 -26z"/>
</g>
</svg>
