<?xml version="1.0" encoding="UTF-8"?>
<svg version="1.1" viewBox="0 0 24 24" xmlns="http://www.w3.org/2000/svg" xmlns:xlink="http://www.w3.org/1999/xlink">
    <!--Generated by IJSVG (https://github.com/iconjar/IJSVG)-->
    <path d="M19.5,2h-2.592c-0.207,-0.581 -0.757,-1 -1.408,-1h-1.774c-0.353,-0.61 -1.008,-1 -1.726,-1c-0.718,0 -1.373,0.39 -1.726,1h-1.774c-0.651,0 -1.201,0.419 -1.408,1h-2.592c-0.827,0 -1.5,0.673 -1.5,1.5v19c0,0.827 0.673,1.5 1.5,1.5h15c0.827,0 1.5,-0.673 1.5,-1.5v-19c0,-0.827 -0.673,-1.5 -1.5,-1.5Zm-11.5,0.5c0,0 0,0 0,0c0,0 0,0 0,0c0,-0.276 0.224,-0.5 0.5,-0.5h2.092c0.211,0 0.4,-0.134 0.471,-0.333c0.142,-0.399 0.519,-0.667 0.937,-0.667c0.418,0 0.795,0.268 0.937,0.667c0.071,0.2 0.26,0.333 0.471,0.333h2.092c0.276,0 0.5,0.224 0.5,0.5v0.5h-8v-0.5Zm12,20c0,0.276 -0.224,0.5 -0.5,0.5h-15c-0.276,0 -0.5,-0.224 -0.5,-0.5v-19c0,-0.276 0.224,-0.5 0.5,-0.5h2.5v0.5c0,0.276 0.224,0.5 0.5,0.5h9c0.276,0 0.5,-0.224 0.5,-0.5v-0.5h2.5c0.276,0 0.5,0.224 0.5,0.5v19Zm-13.5,-9.5h4c0.276,0 0.5,-0.224 0.5,-0.5v-4c0,-0.276 -0.224,-0.5 -0.5,-0.5h-4c-0.276,0 -0.5,0.224 -0.5,0.5v4c0,0.276 0.224,0.5 0.5,0.5Zm0.5,-4h3v3h-3v-3Zm4.179,7.116l-2.649,2.208l-0.677,-0.677c-0.195,-0.195 -0.512,-0.195 -0.707,0c-0.097,0.097 -0.146,0.225 -0.146,0.352v-0.999h2.5c0.276,0 0.5,-0.224 0.5,-0.5c0,-0.276 -0.224,-0.5 -0.5,-0.5h-3c-0.276,0 -0.5,0.224 -0.5,0.5v4c0,0.276 0.224,0.5 0.5,0.5h4c0.276,0 0.5,-0.224 0.5,-0.5v-1.5c0,-0.276 -0.224,-0.5 -0.5,-0.5c-0.276,0 -0.5,0.224 -0.5,0.5v1h-3v-1.998c0,0.128 0.049,0.255 0.146,0.352l1,1c0.098,0.097 0.226,0.146 0.354,0.146c0.113,0 0.227,-0.038 0.32,-0.115l3,-2.5c0.212,-0.177 0.241,-0.493 0.064,-0.705c-0.178,-0.211 -0.492,-0.24 -0.705,-0.064Zm6.321,-6.116h-5c-0.276,0 -0.5,0.224 -0.5,0.5c0,0.276 0.224,0.5 0.5,0.5h5c0.276,0 0.5,-0.224 0.5,-0.5c0,-0.276 -0.224,-0.5 -0.5,-0.5Zm0,8h-5c-0.276,0 -0.5,0.224 -0.5,0.5c0,0.276 0.224,0.5 0.5,0.5h5c0.276,0 0.5,-0.224 0.5,-0.5c0,-0.276 -0.224,-0.5 -0.5,-0.5Z" fill="#4A4A4A"></path>
</svg>