<?xml version="1.0" standalone="no"?>
<!DOCTYPE svg PUBLIC "-//W3C//DTD SVG 20010904//EN"
 "http://www.w3.org/TR/2001/REC-SVG-20010904/DTD/svg10.dtd">
<svg version="1.0" xmlns="http://www.w3.org/2000/svg"
 width="512.000000pt" height="512.000000pt" viewBox="0 0 512.000000 512.000000"
 preserveAspectRatio="xMidYMid meet">

<g transform="translate(0.000000,512.000000) scale(0.100000,-0.100000)"
fill="#000000" stroke="none">
<path d="M2460 4944 c-509 -44 -937 -319 -1187 -764 -81 -144 -145 -347 -166
-531 l-12 -104 -534 -5 c-513 -5 -533 -6 -547 -24 -12 -17 -14 -259 -14 -1658
l0 -1639 25 -24 24 -25 2511 0 2511 0 24 25 25 24 0 1638 c-1 1445 -2 1640
-16 1658 -14 19 -30 20 -547 25 l-532 5 -12 102 c-85 726 -670 1267 -1403
1296 -58 3 -125 3 -150 1z m333 -169 c226 -39 467 -156 632 -307 218 -199 341
-403 413 -686 25 -99 27 -122 26 -302 0 -185 -2 -201 -31 -312 -133 -502 -511
-862 -1016 -969 -144 -31 -370 -31 -514 0 -558 118 -969 559 -1044 1119 -17
130 -6 344 25 468 64 259 182 462 374 646 303 291 717 416 1135 343z m-1684
-1480 c63 -481 370 -908 809 -1125 187 -92 375 -139 587 -147 157 -6 270 6
415 42 393 100 731 367 932 735 79 145 145 357 163 525 l7 65 417 0 416 -1
-36 -32 c-20 -18 -534 -498 -1143 -1067 -609 -569 -1111 -1035 -1116 -1035 -4
0 -200 180 -436 400 -236 220 -743 694 -1129 1054 -385 359 -707 660 -715 667
-12 12 49 14 401 14 l416 0 12 -95z m-329 -591 c481 -448 813 -758 879 -819
l23 -23 -760 -716 c-419 -394 -763 -716 -766 -716 -4 0 -6 644 -6 1432 l0
1432 48 -45 c26 -25 288 -270 582 -545z m4188 -1559 l-3 -716 -745 725 c-410
398 -745 728 -745 733 0 5 335 322 745 705 l745 697 3 -715 c1 -392 1 -1036 0
-1429z m-862 -88 c406 -395 741 -723 742 -728 2 -5 -911 -9 -2290 -9 l-2293 0
60 59 c33 33 377 357 764 720 l705 662 45 -44 c25 -24 191 -180 369 -345 271
-254 327 -302 352 -302 32 0 45 11 545 483 132 125 245 225 251 224 6 -1 343
-325 750 -720z"/>
<path d="M2495 4390 c-145 -17 -278 -78 -384 -176 -134 -124 -199 -262 -210
-444 l-6 -105 -60 -3 c-100 -5 -95 12 -95 -338 l0 -303 26 -20 c25 -19 40 -21
204 -21 164 0 179 2 204 21 l26 20 0 300 c0 286 -1 300 -20 319 -15 15 -33 20
-75 20 l-55 0 0 65 c0 143 49 264 146 360 105 104 229 155 377 155 151 0 279
-52 382 -155 100 -100 145 -210 145 -352 l0 -73 -60 0 c-104 0 -100 12 -100
-335 l0 -296 25 -24 c18 -18 35 -25 65 -25 l40 0 0 -53 c0 -76 -15 -87 -120
-87 l-83 0 -35 40 c-50 59 -103 83 -168 78 -104 -9 -177 -89 -177 -193 0 -80
47 -147 125 -179 83 -35 187 -2 232 75 l17 29 103 0 c88 0 109 3 147 23 24 13
57 43 74 66 26 37 30 53 34 122 l3 79 53 0 c38 0 60 6 79 21 l26 20 0 303 c0
343 3 332 -80 338 l-45 3 -6 110 c-11 181 -60 288 -194 422 -65 64 -100 90
-166 122 -126 61 -267 86 -394 71z m-445 -1070 l0 -190 -80 0 -80 0 0 190 0
190 80 0 80 0 0 -190z m1180 0 l0 -190 -70 0 -70 0 0 190 0 190 70 0 70 0 0
-190z m-520 -524 c28 -35 -11 -93 -47 -70 -36 22 -23 84 17 84 10 0 23 -7 30
-14z"/>
</g>
</svg>
