<?xml version="1.0" encoding="UTF-8"?>
<svg version="1.1" viewBox="0 0 24 24" xmlns="http://www.w3.org/2000/svg" xmlns:xlink="http://www.w3.org/1999/xlink">
    <!--Generated by IJSVG (https://github.com/iconjar/IJSVG)-->
    <g fill="#4A4A4A">
        <path d="M17.5,17.5h-17c-0.276,0 -0.5,-0.224 -0.5,-0.5v-15c0,-0.276 0.224,-0.5 0.5,-0.5h17c0.276,0 0.5,0.224 0.5,0.5v15c0,0.276 -0.224,0.5 -0.5,0.5Zm-16.5,-1h16v-14h-16v14Z"></path>
        <path d="M17.5,17.5c-0.184,0 -0.36,-0.101 -0.448,-0.276l-5.081,-10.165l-3.537,6.189c-0.077,0.135 -0.213,0.227 -0.368,0.248c-0.153,0.02 -0.31,-0.032 -0.42,-0.142l-2.562,-2.562l-4.164,6.479c-0.149,0.232 -0.458,0.3 -0.691,0.15c-0.232,-0.149 -0.299,-0.458 -0.15,-0.691l4.5,-7c0.082,-0.127 0.217,-0.21 0.367,-0.227c0.148,-0.016 0.3,0.037 0.407,0.144l2.537,2.537l3.675,-6.432c0.092,-0.16 0.258,-0.261 0.448,-0.252c0.185,0.005 0.351,0.111 0.434,0.276l5.5,11c0.124,0.247 0.023,0.547 -0.224,0.671c-0.071,0.036 -0.147,0.053 -0.223,0.053Z"></path>
        <path d="M5.5,8.5c-1.378,0 -2.5,-1.122 -2.5,-2.5c0,-1.378 1.122,-2.5 2.5,-2.5c1.378,0 2.5,1.122 2.5,2.5c0,1.378 -1.122,2.5 -2.5,2.5Zm0,-4c-0.827,0 -1.5,0.673 -1.5,1.5c0,0.827 0.673,1.5 1.5,1.5c0.827,0 1.5,-0.673 1.5,-1.5c0,-0.827 -0.673,-1.5 -1.5,-1.5Z"></path>
        <path d="M16.499,22.5c-0.082,0 -0.166,-0.02 -0.242,-0.063l-9,-5c-0.242,-0.134 -0.329,-0.438 -0.194,-0.68c0.134,-0.241 0.439,-0.329 0.68,-0.194l8.572,4.762l6.516,-11.17l-5.608,-3.739c-0.23,-0.153 -0.292,-0.463 -0.139,-0.693c0.153,-0.229 0.462,-0.292 0.693,-0.139l6,4c0.22,0.146 0.288,0.439 0.155,0.668l-7,12c-0.093,0.159 -0.26,0.248 -0.433,0.248Z"></path>
    </g>
</svg>