<?xml version="1.0" encoding="UTF-8"?>
<svg version="1.1" viewBox="0 0 24 24" xmlns="http://www.w3.org/2000/svg" xmlns:xlink="http://www.w3.org/1999/xlink">
    <!--Generated by IJSVG (https://github.com/iconjar/IJSVG)-->
    <g fill="#4A4A4A">
        <path d="M4.5,13c-0.063,0 -0.127,-0.012 -0.189,-0.037c-0.256,-0.104 -0.378,-0.396 -0.274,-0.652c0.533,-1.304 3.323,-7.811 5.963,-7.811c0.574,0 0.964,0.169 1.278,0.305c0.251,0.109 0.45,0.195 0.722,0.195c0.276,0 0.5,0.224 0.5,0.5c0,0.276 -0.224,0.5 -0.5,0.5c-0.48,0 -0.82,-0.147 -1.12,-0.277c-0.276,-0.12 -0.514,-0.223 -0.88,-0.223c-1.45,0 -3.818,4.204 -5.037,7.189c-0.079,0.194 -0.266,0.311 -0.463,0.311Z"></path>
        <path d="M15,14h-6c-0.189,0 -0.362,-0.107 -0.447,-0.276c-0.085,-0.17 -0.067,-0.372 0.047,-0.524l3,-4c0.188,-0.252 0.611,-0.252 0.8,0l3,4c0.114,0.151 0.132,0.354 0.047,0.523c-0.085,0.17 -0.258,0.277 -0.447,0.277Zm-5,-1h4l-2,-2.667l-2,2.667Z"></path>
        <path d="M19.5,13c-0.197,0 -0.384,-0.117 -0.463,-0.311c-1.136,-2.779 -3.507,-7.189 -5.037,-7.189c-0.366,0 -0.604,0.103 -0.88,0.223c-0.3,0.13 -0.64,0.277 -1.12,0.277c-0.276,0 -0.5,-0.224 -0.5,-0.5c0,-0.276 0.224,-0.5 0.5,-0.5c0.272,0 0.471,-0.086 0.722,-0.195c0.314,-0.136 0.704,-0.305 1.278,-0.305c2.64,0 5.43,6.507 5.963,7.811c0.104,0.255 -0.018,0.547 -0.274,0.652c-0.062,0.025 -0.126,0.037 -0.189,0.037Z"></path>
    </g>
    <path fill="none" stroke="#4A4A4A" stroke-linecap="round" stroke-linejoin="round" stroke-width="1" d="M10.5,11.5"></path>
    <g fill="#4A4A4A">
        <path d="M12,4c-1.103,0 -2,-0.897 -2,-2v-1.5c0,-0.276 0.224,-0.5 0.5,-0.5h3c0.276,0 0.5,0.224 0.5,0.5v1.5c0,1.103 -0.897,2 -2,2Zm-1,-3v1c0,0.551 0.449,1 1,1c0.551,0 1,-0.449 1,-1v-1h-2Z"></path>
        <path d="M23.5,24h-23c-0.161,0 -0.312,-0.077 -0.406,-0.208c-0.094,-0.13 -0.12,-0.298 -0.068,-0.451l2,-6c0.045,-0.137 0.148,-0.248 0.282,-0.303l6,-2.5c0.254,-0.106 0.547,0.015 0.654,0.269c0.106,0.255 -0.014,0.548 -0.269,0.654l-5.79,2.413l-1.709,5.126h21.612l-1.708,-5.126l-5.79,-2.413c-0.255,-0.106 -0.375,-0.399 -0.269,-0.654c0.106,-0.254 0.401,-0.375 0.654,-0.269l6,2.5c0.133,0.056 0.236,0.166 0.282,0.303l2,6c0.051,0.152 0.025,0.32 -0.068,0.451c-0.095,0.131 -0.246,0.208 -0.407,0.208Z"></path>
        <path d="M15.5,15.5c-0.218,0 -0.418,-0.144 -0.48,-0.364c-0.075,-0.266 0.079,-0.542 0.345,-0.617c2.159,-0.61 3.227,-1.688 3.579,-2.11l-1.917,-5.751c-0.018,-0.051 -0.027,-0.104 -0.027,-0.158v-2c0,-2.414 -2.924,-3.5 -5,-3.5c-2.076,0 -5,1.086 -5,3.5v2c0,0.054 -0.009,0.107 -0.026,0.158l-1.917,5.751c0.35,0.42 1.418,1.499 3.579,2.11c0.266,0.075 0.42,0.351 0.345,0.617c-0.076,0.266 -0.355,0.419 -0.617,0.345c-3.112,-0.879 -4.242,-2.642 -4.289,-2.716c-0.079,-0.126 -0.097,-0.281 -0.05,-0.423l1.975,-5.923v-1.919c0,-2.923 3.091,-4.5 6,-4.5c2.909,0 6,1.577 6,4.5v1.919l1.974,5.923c0.047,0.142 0.029,0.296 -0.05,0.423c-0.047,0.075 -1.177,1.837 -4.289,2.716c-0.045,0.013 -0.09,0.019 -0.135,0.019Z"></path>
        <path d="M15,14c-0.027,0 -0.055,-0.002 -0.083,-0.007c-0.272,-0.045 -0.457,-0.303 -0.411,-0.575l0.427,-2.56l-2.933,-0.838l-2.934,0.838l0.427,2.56c0.045,0.272 -0.139,0.53 -0.411,0.575c-0.273,0.048 -0.53,-0.139 -0.575,-0.411l-0.5,-3c-0.042,-0.25 0.111,-0.493 0.356,-0.563l3.5,-1c0.09,-0.025 0.185,-0.025 0.274,0l3.5,1c0.245,0.07 0.398,0.313 0.356,0.563l-0.5,3c-0.04,0.245 -0.252,0.418 -0.493,0.418Z"></path>
        <path d="M16.5,24c-0.276,0 -0.5,-0.224 -0.5,-0.5v-3.5h-9v3.5c0,0.276 -0.224,0.5 -0.5,0.5c-0.276,0 -0.5,-0.224 -0.5,-0.5v-4c0,-0.276 0.224,-0.5 0.5,-0.5h10c0.276,0 0.5,0.224 0.5,0.5v4c0,0.276 -0.224,0.5 -0.5,0.5Z"></path>
        <path d="M10.5,22h-2c-0.276,0 -0.5,-0.224 -0.5,-0.5c0,-0.276 0.224,-0.5 0.5,-0.5h2c0.276,0 0.5,0.224 0.5,0.5c0,0.276 -0.224,0.5 -0.5,0.5Z"></path>
        <path d="M14.5,22h-2c-0.276,0 -0.5,-0.224 -0.5,-0.5c0,-0.276 0.224,-0.5 0.5,-0.5h2c0.276,0 0.5,0.224 0.5,0.5c0,0.276 -0.224,0.5 -0.5,0.5Z"></path>
        <path d="M11,8h-2c-0.186,0 -0.356,-0.103 -0.442,-0.267c-0.087,-0.165 -0.075,-0.363 0.03,-0.516c0.183,-0.266 0.686,-0.717 1.412,-0.717c0.851,0 1.346,0.628 1.4,0.7c0.114,0.151 0.132,0.354 0.047,0.523c-0.085,0.17 -0.258,0.277 -0.447,0.277Z"></path>
        <path d="M15,8h-2c-0.189,0 -0.362,-0.107 -0.447,-0.276c-0.085,-0.17 -0.067,-0.372 0.047,-0.524c0.054,-0.072 0.549,-0.7 1.4,-0.7c0.726,0 1.229,0.451 1.412,0.717c0.105,0.153 0.117,0.352 0.03,0.516c-0.086,0.164 -0.256,0.267 -0.442,0.267Z"></path>
    </g>
</svg>