<?xml version="1.0" encoding="UTF-8"?>
<svg version="1.1" viewBox="0 0 24 24" xmlns="http://www.w3.org/2000/svg" xmlns:xlink="http://www.w3.org/1999/xlink">
    <!--Generated by IJSVG (https://github.com/iconjar/IJSVG)-->
    <g fill="#4A4A4A">
        <path d="M17.533,15.206c-0.105,0 -0.212,-0.033 -0.302,-0.102c-0.221,-0.167 -0.264,-0.48 -0.097,-0.701l5.028,-6.627c-2.989,-2.145 -6.492,-3.276 -10.162,-3.276c-1.492,0 -2.988,0.196 -4.446,0.582c-0.27,0.07 -0.541,-0.089 -0.611,-0.355c-0.07,-0.267 0.089,-0.541 0.355,-0.611c1.541,-0.409 3.123,-0.616 4.702,-0.616c4.056,0 7.918,1.306 11.17,3.777c0.22,0.167 0.263,0.48 0.096,0.7l-5.334,7.031c-0.099,0.129 -0.248,0.198 -0.399,0.198Z"></path>
        <path d="M12,22.5c-0.156,0 -0.304,-0.073 -0.398,-0.198l-10.868,-14.325c-0.167,-0.22 -0.124,-0.533 0.096,-0.7c1.292,-0.982 2.737,-1.8 4.294,-2.429c0.185,-0.077 0.399,-0.032 0.541,0.11l11.002,11.002c0.177,0.177 0.196,0.457 0.045,0.656l-4.313,5.687c-0.095,0.124 -0.243,0.197 -0.399,0.197Zm-10.162,-14.724l10.162,13.397l3.651,-4.814l-10.457,-10.458c-1.2,0.511 -2.326,1.14 -3.356,1.875Z"></path>
        <path d="M23,23.5c-0.128,0 -0.256,-0.049 -0.354,-0.146l-22,-22c-0.195,-0.195 -0.195,-0.512 0,-0.707c0.195,-0.195 0.512,-0.195 0.707,0l22,22c0.195,0.195 0.195,0.512 0,0.707c-0.097,0.097 -0.225,0.146 -0.353,0.146Z"></path>
    </g>
</svg>