<?xml version="1.0" encoding="UTF-8"?>
<svg width="35px" height="29px" viewBox="0 0 35 29" version="1.1" xmlns="http://www.w3.org/2000/svg" xmlns:xlink="http://www.w3.org/1999/xlink">
    <!-- Generator: Sketch 52.6 (67491) - http://www.bohemiancoding.com/sketch -->
    <title>Update Time</title>
    <desc>Created with Sketch.</desc>
    <g id="Page-1" stroke="none" stroke-width="1" fill="none" fill-rule="evenodd">
        <g id="Pricing" transform="translate(-571.000000, -1257.000000)" fill="#4A4A4A">
            <g id="Update-Time" transform="translate(571.000000, 1257.000000)">
                <path d="M22.16673,19.16673 C22.050063,19.16673 21.933396,19.16673 21.816729,19.050063 L17.150049,15.550053 C17.033382,15.433386 16.916715,15.316719 16.916715,15.083385 L16.916715,4.583355 C16.916715,4.233354 17.150049,4.00002 17.50005,4.00002 C17.850051,4.00002 18.083385,4.233354 18.083385,4.583355 L18.083385,14.850051 L22.516731,18.116727 C22.750065,18.350061 22.866732,18.700062 22.633398,18.933396 C22.516731,19.050063 22.400064,19.16673 22.16673,19.16673 Z" id="Path"></path>
                <path d="M17.50005,28.50009 C11.6667,28.50009 6.416685,24.766746 4.433346,19.283397 C4.316679,18.933396 4.433346,18.700062 4.783347,18.583395 C5.133348,18.466728 5.366682,18.583395 5.483349,18.933396 C7.350021,23.950077 12.133368,27.33342 17.50005,27.33342 C24.50007,27.33342 30.33342,21.616737 30.33342,14.50005 C30.33342,14.150049 30.566754,13.916715 30.916755,13.916715 C31.266756,13.916715 31.50009,14.150049 31.50009,14.50005 C31.50009,22.200072 25.200072,28.50009 17.50005,28.50009 Z" id="Path"></path>
                <path d="M4.083345,15.083385 C3.850011,15.083385 3.50001,14.850051 3.50001,14.50005 C3.50001,6.800028 9.800028,0.50001 17.50005,0.50001 C23.3334,0.50001 28.583415,4.233354 30.566754,9.716703 C30.683421,10.066704 30.566754,10.300038 30.216753,10.416705 C29.866752,10.533372 29.633418,10.416705 29.516751,10.066704 C27.650079,5.050023 22.866732,1.66668 17.50005,1.66668 C10.50003,1.66668 4.66668,7.383363 4.66668,14.50005 C4.66668,14.850051 4.433346,15.083385 4.083345,15.083385 Z" id="Path"></path>
                <path d="M4.083345,16.250055 C3.966678,16.250055 3.733344,16.250055 3.616677,16.133388 L0.700002,13.216713 C0.466668,12.983379 0.466668,12.633378 0.700002,12.400044 C0.933336,12.16671 1.283337,12.16671 1.516671,12.400044 L3.966678,14.850051 L6.416685,12.400044 C6.650019,12.16671 7.00002,12.16671 7.233354,12.400044 C7.466688,12.633378 7.466688,12.983379 7.233354,13.216713 L4.316679,16.133388 C4.433346,16.250055 4.200012,16.250055 4.083345,16.250055 Z" id="Path"></path>
                <path d="M33.83343,16.83339 C33.716763,16.83339 33.483429,16.83339 33.366762,16.716723 L30.916755,14.266716 L28.466748,16.716723 C28.233414,16.950057 27.883413,16.950057 27.650079,16.716723 C27.416745,16.483389 27.416745,16.133388 27.650079,15.900054 L30.566754,12.983379 C30.800088,12.750045 31.150089,12.750045 31.383423,12.983379 L34.300098,15.900054 C34.533432,16.133388 34.533432,16.483389 34.300098,16.716723 C34.183431,16.83339 33.950097,16.83339 33.83343,16.83339 Z" id="Path"></path>
            </g>
        </g>
    </g>
</svg>