<?xml version="1.0" standalone="no"?>
<!DOCTYPE svg PUBLIC "-//W3C//DTD SVG 20010904//EN"
 "http://www.w3.org/TR/2001/REC-SVG-20010904/DTD/svg10.dtd">
<svg version="1.0" xmlns="http://www.w3.org/2000/svg"
 width="512.000000pt" height="512.000000pt" viewBox="0 0 512.000000 512.000000"
 preserveAspectRatio="xMidYMid meet">

<g transform="translate(0.000000,512.000000) scale(0.100000,-0.100000)"
fill="#000000" stroke="none">
<path d="M2950 4640 c-145 -27 -220 -188 -146 -314 36 -62 81 -89 200 -121
396 -106 743 -355 971 -695 425 -635 380 -1452 -111 -2040 -34 -41 -83 -95
-108 -120 l-46 -44 -178 177 c-175 174 -179 177 -221 177 -36 0 -49 -6 -77
-34 l-34 -34 0 -486 c0 -423 2 -491 16 -517 30 -58 38 -59 549 -59 511 0 519
1 549 59 36 69 23 90 -158 270 l-145 145 92 95 c294 304 483 679 562 1116 23
121 31 442 16 576 -100 868 -705 1583 -1542 1822 -103 30 -144 36 -189 27z"/>
<path d="M853 4575 c-33 -14 -63 -59 -63 -95 0 -39 28 -75 174 -220 l146 -144
-88 -91 c-315 -323 -518 -742 -576 -1190 -18 -136 -21 -390 -6 -515 81 -669
465 -1260 1037 -1597 219 -129 525 -244 652 -245 166 -1 270 174 187 316 -35
59 -81 89 -181 116 -414 110 -773 367 -1001 715 -329 504 -370 1131 -109 1670
82 169 211 350 339 475 l46 44 178 -177 c175 -174 179 -177 221 -177 36 0 49
6 77 34 l34 34 0 486 c0 541 1 534 -65 562 -50 20 -954 20 -1002 -1z"/>
<path d="M3380 3284 c-22 -9 -233 -213 -575 -554 -297 -297 -545 -540 -550
-540 -6 0 -118 108 -250 240 -222 223 -244 242 -293 256 -185 54 -336 -144
-237 -311 37 -62 653 -671 697 -690 50 -20 124 -19 173 4 27 13 244 223 677
657 577 579 638 643 648 683 44 168 -132 323 -290 255z"/>
</g>
</svg>
