<?xml version="1.0" encoding="utf-8"?>
<!-- Generator: Adobe Illustrator 22.1.0, SVG Export Plug-In . SVG Version: 6.00 Build 0)  -->
<svg version="1.1" id="Layer_1" xmlns="http://www.w3.org/2000/svg" xmlns:xlink="http://www.w3.org/1999/xlink" x="0px" y="0px"
	 viewBox="0 0 1158.2 249.7" style="enable-background:new 0 0 1158.2 249.7;" xml:space="preserve">
<style type="text/css">
	.st0{fill:#575756;}
	.st1{fill:#3C3C3B;}
	.st2{fill:#CE0E2D;}
	.st3{opacity:0.5;}
	.st4{fill:#020203;}
	.st5{fill:#FFFFFF;}
</style>
<path class="st2" d="M65.6,222.7C27.4,222.8,0.1,196,1.9,160.4c1.4-28.3,20.6-40.2,45.7-27.2c9.1,4.7,15,6.9,24.5-0.3
	c12-9,27.1-10.1,41.5-4.2c12.7,5.1,19.4,14.8,19.1,28.6C131.8,190.1,98.3,222.6,65.6,222.7z M64.8,205.6
	c21.9,0.3,47.8-21.8,51.1-43.6c2-13.4-4.3-20.7-17.7-20c-7.4,0.4-15.5,1.9-20.1,7.4c-11.6,13.9-21.5,15.4-34.6,1.4
	c-3.5-3.8-13.5-7.5-19.7-3.6c-5.8,3.6-5.2,11.8-5.1,18.6C19.4,187.3,40.2,205.2,64.8,205.6z"/>
<g id="XMLID_6_" class="st3">
	<g>
		<path class="st2" d="M84.3,153.7c11.4-0.6,16.8,5.7,15.1,17.1c-2.8,18.7-24.9,37.6-43.7,37.3c-21.1-0.3-38.8-15.7-39.3-34
			c-0.1-5.8-0.7-12.8,4.3-15.9c5.3-3.3,13.8-0.1,16.8,3.1c11.2,12,19.7,10.7,29.6-1.2C71,155.4,77.9,154.1,84.3,153.7z"/>
	</g>
</g>
<path class="st5" d="M63.2,126.4c17.1-29.1,29.3-61,35.2-94.3c1.8-10.1,4.5-23.7-7-29c-9.8-4.5-20.7,0.6-26.2,9.1
	c-13.4,21-11.5,54.6,11.9,67.3c22.5,12.2,49.9-2.7,54.2-27.4c-2.4,1-4.8,2-7.2,2.9c3.3,1.5,1.7,13,3.1,16.5
	c2.1,5.1,6.5,8.1,11.8,9.2c15.7,3.3,24.6-10.8,36-18.4c-2.4-1-4.8-2-7.2-2.9c1.6,11.7,12.1,18.2,23.1,19.7
	c15.4,2.1,27.9-7.3,42.1-11.2c29.3-8,57.7,18.9,86.6,3.9c5.6-2.9,0.7-11.4-5-8.5c-22.2,11.5-48-7.4-71.2-6.9
	c-12.2,0.3-22.5,5.9-33.7,10c-10.9,4-30.3,6-32.4-9.7c-0.4-3.1-4.8-4.5-7.2-2.9c-6.4,4.2-28.4,28.4-34,12.9
	c-2.6-7.4,1.9-15.9-7.1-20.1c-2.6-1.2-6.6-0.4-7.2,2.9C118.5,69,97.3,80.9,79.8,69.6c-9-5.8-13.3-15.5-12.8-26
	c0.5-8.8,2.1-25.4,10.6-30.6c6.5-4,12.2,1.1,12.6,7.8c0.3,4.8-1.7,10.7-2.7,15.4c-2,9.6-4.4,19-7.4,28.3
	c-6.3,19.9-15,38.8-25.6,56.8C51.5,126.9,60,131.9,63.2,126.4L63.2,126.4z"/>
<g>
	<path class="st5" d="M211,158c-2.6-2.7-5.4-4.8-8.2-6.2c-2.9-1.4-6.3-2.1-10.3-2.1c-3.9,0-7.3,0.7-10.1,2.1
		c-2.9,1.4-5.3,3.4-7.2,5.8c-1.9,2.5-3.4,5.3-4.4,8.5c-1,3.2-1.5,6.5-1.5,10c0,3.5,0.6,6.7,1.7,9.8c1.2,3.1,2.8,5.8,4.9,8.1
		c2.1,2.3,4.6,4.1,7.5,5.4c2.9,1.3,6.2,2,9.9,2c4,0,7.4-0.7,10.2-2.1c2.8-1.4,5.4-3.5,7.9-6.2l10.1,10.1c-3.7,4.1-7.9,7-12.8,8.8
		s-10,2.7-15.5,2.7c-5.8,0-11-0.9-15.8-2.8c-4.8-1.9-8.9-4.5-12.3-7.9c-3.5-3.4-6.1-7.5-8-12.3c-1.9-4.8-2.8-10-2.8-15.8
		c0-5.8,0.9-11,2.8-15.9c1.9-4.8,4.5-9,7.9-12.4c3.4-3.5,7.5-6.1,12.3-8.1c4.8-1.9,10.1-2.9,15.9-2.9c5.4,0,10.7,1,15.6,2.9
		c5,1.9,9.3,4.9,13,8.9L211,158z"/>
	<path class="st5" d="M225.6,93.9h14.1v55.8h0.3c1.8-4,4.9-7.2,9.3-9.7c4.4-2.5,9.5-3.7,15.2-3.7c3.6,0,7,0.5,10.3,1.6
		c3.3,1.1,6.2,2.8,8.6,5.1c2.5,2.3,4.4,5.3,5.9,8.9c1.5,3.6,2.2,7.9,2.2,12.8v47.9h-14.1v-44c0-3.5-0.5-6.4-1.4-8.9
		c-0.9-2.5-2.2-4.4-3.8-6c-1.6-1.5-3.4-2.6-5.4-3.3c-2-0.7-4.2-1-6.4-1c-2.9,0-5.7,0.5-8.2,1.4c-2.5,0.9-4.7,2.4-6.6,4.5
		c-1.9,2-3.4,4.6-4.4,7.8c-1,3.1-1.6,6.9-1.6,11.2v38.3h-14.1V93.9z"/>
	<path class="st5" d="M315.7,180.6c0,3.2,0.7,6.2,2.1,8.9c1.4,2.7,3.3,4.9,5.6,6.8c2.3,1.9,5,3.4,8,4.4c3,1,6.2,1.6,9.4,1.6
		c4.4,0,8.2-1,11.5-3.1c3.2-2,6.2-4.7,9-8.1l10.7,8.2c-7.9,10.2-18.8,15.2-33,15.2c-5.9,0-11.2-1-15.9-3c-4.8-2-8.8-4.7-12.1-8.2
		c-3.3-3.5-5.8-7.6-7.6-12.4c-1.8-4.8-2.7-9.9-2.7-15.5c0-5.5,1-10.7,2.9-15.5c1.9-4.8,4.6-8.9,8-12.4c3.4-3.5,7.5-6.3,12.2-8.2
		c4.7-2,9.8-3,15.4-3c6.6,0,12.2,1.2,16.7,3.5c4.6,2.3,8.3,5.3,11.2,9c2.9,3.7,5.1,7.9,6.4,12.6c1.3,4.7,2,9.4,2,14.2v5H315.7z
		 M360.3,169.3c-0.1-3.1-0.6-6-1.5-8.6c-0.9-2.6-2.2-4.9-4-6.8c-1.8-1.9-4-3.5-6.7-4.6s-5.8-1.6-9.3-1.6c-3.5,0-6.6,0.7-9.5,2
		c-2.9,1.3-5.3,3-7.3,5.1c-2,2.1-3.5,4.4-4.6,7c-1.1,2.6-1.6,5.1-1.6,7.6H360.3z"/>
	<path class="st5" d="M384.5,138.2h14.1v11.5h0.3c0.9-2,2.2-3.8,3.8-5.4c1.6-1.6,3.3-3,5.3-4.2c1.9-1.2,4.1-2.1,6.4-2.7
		c2.3-0.7,4.6-1,6.9-1c2.3,0,4.4,0.3,6.3,0.9l-0.6,15.2c-1.2-0.3-2.3-0.6-3.5-0.8c-1.2-0.2-2.3-0.3-3.5-0.3
		c-6.9,0-12.2,1.9-15.9,5.8c-3.7,3.9-5.5,9.9-5.5,18.1v37.4h-14.1V138.2z"/>
	<path class="st5" d="M434.8,138.2h14.1v11.5h0.3c0.9-2,2.2-3.8,3.8-5.4c1.6-1.6,3.3-3,5.3-4.2c1.9-1.2,4.1-2.1,6.4-2.7
		c2.3-0.7,4.6-1,6.9-1c2.3,0,4.4,0.3,6.3,0.9l-0.6,15.2c-1.2-0.3-2.3-0.6-3.5-0.8c-1.2-0.2-2.3-0.3-3.5-0.3
		c-6.9,0-12.2,1.9-15.9,5.8c-3.7,3.9-5.5,9.9-5.5,18.1v37.4h-14.1V138.2z"/>
	<path class="st5" d="M476.2,138.2h16.3l22,58.1h0.3l21.1-58.1h15.1l-35.3,90.5c-1.3,3.2-2.6,6.2-3.9,8.9c-1.4,2.7-3,4.9-4.8,6.8
		c-1.9,1.9-4.1,3.3-6.8,4.4c-2.7,1-5.9,1.6-9.8,1.6c-2.1,0-4.2-0.1-6.3-0.4c-2.1-0.3-4.2-0.8-6.2-1.6l1.7-12.9
		c2.8,1.2,5.6,1.7,8.4,1.7c2.2,0,4-0.3,5.5-0.9c1.5-0.6,2.8-1.4,3.9-2.5c1.1-1.1,2-2.4,2.7-3.8c0.7-1.5,1.5-3.1,2.2-5l4.6-11.8
		L476.2,138.2z"/>
	<path class="st5" d="M553.4,136.3H576v10.4h0.3c0.7-1.5,1.8-2.9,3.1-4.4c1.4-1.5,3-2.8,4.9-3.9c1.9-1.2,4-2.1,6.4-2.8
		c2.4-0.7,5-1.1,7.9-1.1c5.3,0,10.1,1.1,14.2,3.3c4.1,2.2,7.2,5.7,9.3,10.4c2.7-4.9,6-8.4,9.9-10.5c3.9-2.1,8.6-3.1,14.3-3.1
		c5.1,0,9.4,0.9,13,2.6c3.5,1.7,6.3,4.1,8.3,7.1c2,3,3.5,6.5,4.4,10.5c0.9,4,1.3,8.4,1.3,13v45.1h-23.6v-44.4c0-3.6-0.8-6.6-2.3-9.2
		c-1.5-2.6-4.2-3.8-8.1-3.8c-2.7,0-5,0.4-6.8,1.3c-1.8,0.9-3.3,2.1-4.4,3.7s-1.9,3.4-2.4,5.5c-0.5,2.1-0.7,4.3-0.7,6.6v40.4h-23.6
		v-40.4c0-1.4-0.1-3-0.2-5c-0.1-2-0.5-3.9-1.1-5.7c-0.6-1.8-1.6-3.3-3.1-4.6c-1.4-1.3-3.5-1.9-6.2-1.9c-3,0-5.5,0.5-7.4,1.6
		s-3.3,2.6-4.3,4.4c-1,1.8-1.6,3.9-2,6.2c-0.3,2.3-0.5,4.7-0.5,7.2v38h-23.6V136.3z"/>
	<path class="st5" d="M754.4,199.5c-3.8,4.8-8.5,8.5-14.3,11.2c-5.8,2.6-11.7,3.9-17.9,3.9c-5.9,0-11.4-0.9-16.6-2.8
		c-5.2-1.9-9.7-4.6-13.5-8.1c-3.8-3.5-6.8-7.7-9-12.6c-2.2-4.9-3.3-10.4-3.3-16.5c0-6.1,1.1-11.6,3.3-16.5c2.2-4.9,5.2-9.1,9-12.6
		c3.8-3.5,8.3-6.2,13.5-8.1c5.2-1.9,10.7-2.8,16.6-2.8c5.4,0,10.4,0.9,14.8,2.8c4.4,1.9,8.2,4.6,11.3,8.1c3.1,3.5,5.5,7.7,7.1,12.6
		c1.7,4.9,2.5,10.4,2.5,16.5v7.4h-54.7c0.9,4.5,3,8.1,6.1,10.8c3.1,2.7,7,4,11.6,4c3.9,0,7.1-0.9,9.8-2.6c2.7-1.7,5-4,7-6.7
		L754.4,199.5z M734.5,165.9c0.1-4-1.2-7.4-3.9-10.2c-2.7-2.8-6.2-4.2-10.5-4.2c-2.6,0-4.9,0.4-6.9,1.3c-2,0.8-3.7,1.9-5.1,3.2
		c-1.4,1.3-2.5,2.8-3.3,4.6s-1.2,3.5-1.3,5.4H734.5z"/>
	<path class="st5" d="M764.5,136.3h22.6v10.4h0.3c0.7-1.5,1.8-2.9,3.1-4.4c1.4-1.5,3-2.8,4.9-3.9c1.9-1.2,4-2.1,6.4-2.8
		c2.4-0.7,5-1.1,7.9-1.1c6,0,10.8,0.9,14.5,2.7c3.7,1.8,6.5,4.4,8.6,7.6c2,3.2,3.4,7.1,4.2,11.5c0.7,4.4,1.1,9.2,1.1,14.3v42.1
		h-23.6v-37.4c0-2.2-0.1-4.5-0.2-6.8c-0.2-2.4-0.6-4.5-1.4-6.5c-0.8-2-2-3.6-3.6-4.9c-1.6-1.3-4-1.9-7-1.9c-3,0-5.5,0.5-7.4,1.6
		s-3.3,2.6-4.3,4.4c-1,1.8-1.6,3.9-2,6.2c-0.3,2.3-0.5,4.7-0.5,7.2v38h-23.6V136.3z"/>
	<path class="st5" d="M920.3,212.7h-22.6v-10.4h-0.3c-0.8,1.5-1.9,2.9-3.2,4.4c-1.3,1.5-2.9,2.8-4.8,3.9c-1.9,1.2-4,2.1-6.4,2.8
		c-2.4,0.7-5,1.1-7.9,1.1c-6,0-10.8-0.9-14.5-2.7c-3.7-1.8-6.6-4.4-8.6-7.6c-2-3.2-3.4-7.1-4.1-11.5c-0.7-4.4-1-9.2-1-14.3v-42.1
		h23.6v37.4c0,2.2,0.1,4.5,0.2,6.8c0.2,2.4,0.6,4.5,1.4,6.5c0.8,2,2,3.6,3.6,4.9c1.6,1.3,4,1.9,7,1.9c3,0,5.5-0.5,7.4-1.6
		s3.3-2.6,4.3-4.4c1-1.8,1.6-3.9,2-6.2c0.3-2.3,0.5-4.7,0.5-7.2v-38h23.6V212.7z"/>
	<path class="st5" d="M935.9,213.3c-2,0-3.6-0.7-5.1-2.1s-2.1-3.1-2.1-5.1s0.7-3.6,2.1-5.1s3.1-2.1,5.1-2.1c2,0,3.6,0.7,5.1,2.1
		s2.1,3.1,2.1,5.1s-0.7,3.6-2.1,5.1S937.8,213.3,935.9,213.3z"/>
	<path class="st5" d="M989.9,174.8c-1.8-1.9-3.7-3.3-5.7-4.3c-2-1-4.4-1.5-7.1-1.5c-2.7,0-5,0.5-7,1.5c-2,1-3.7,2.3-5,4
		c-1.3,1.7-2.4,3.7-3,5.9c-0.7,2.2-1,4.5-1,6.9c0,2.4,0.4,4.7,1.2,6.8c0.8,2.1,1.9,4,3.4,5.6c1.5,1.6,3.2,2.8,5.2,3.8
		c2,0.9,4.3,1.4,6.9,1.4c2.8,0,5.1-0.5,7.1-1.5c2-1,3.8-2.4,5.4-4.3l7,7c-2.5,2.8-5.5,4.9-8.9,6.1c-3.4,1.2-6.9,1.9-10.7,1.9
		c-4,0-7.6-0.7-10.9-2c-3.3-1.3-6.2-3.1-8.5-5.5c-2.4-2.4-4.2-5.2-5.6-8.5c-1.3-3.3-2-6.9-2-10.9c0-4,0.7-7.7,2-11
		c1.3-3.3,3.1-6.2,5.5-8.6c2.4-2.4,5.2-4.3,8.5-5.6c3.3-1.3,7-2,11-2c3.8,0,7.4,0.7,10.8,2c3.4,1.3,6.4,3.4,9,6.2L989.9,174.8z"/>
	<path class="st5" d="M997.5,186.9c0-3.8,0.7-7.3,2.1-10.6s3.4-6.1,5.8-8.6c2.5-2.5,5.4-4.4,8.7-5.8c3.3-1.4,6.9-2.1,10.8-2.1
		c3.8,0,7.4,0.7,10.8,2.1c3.3,1.4,6.2,3.4,8.7,5.8c2.5,2.5,4.4,5.3,5.8,8.6s2.1,6.8,2.1,10.6c0,3.8-0.7,7.3-2.1,10.6
		c-1.4,3.3-3.4,6.2-5.8,8.6c-2.5,2.4-5.4,4.4-8.7,5.8c-3.3,1.4-6.9,2.1-10.8,2.1c-3.8,0-7.4-0.7-10.8-2.1c-3.3-1.4-6.2-3.3-8.7-5.8
		c-2.5-2.4-4.4-5.3-5.8-8.6C998.2,194.2,997.5,190.6,997.5,186.9z M1007.9,186.9c0,2.6,0.4,5,1.2,7.2c0.8,2.2,1.9,4.1,3.4,5.7
		c1.5,1.6,3.2,2.8,5.3,3.7c2.1,0.9,4.5,1.4,7.1,1.4c2.6,0,5-0.5,7.1-1.4c2.1-0.9,3.9-2.1,5.3-3.7c1.5-1.6,2.6-3.4,3.4-5.7
		c0.8-2.2,1.2-4.6,1.2-7.2c0-2.6-0.4-5-1.2-7.2c-0.8-2.2-1.9-4.1-3.4-5.7c-1.5-1.6-3.2-2.8-5.3-3.7c-2.1-0.9-4.5-1.4-7.1-1.4
		c-2.6,0-5,0.5-7.1,1.4c-2.1,0.9-3.9,2.1-5.3,3.7c-1.5,1.6-2.6,3.4-3.4,5.7C1008.3,181.8,1007.9,184.2,1007.9,186.9z"/>
	<path class="st5" d="M1059.2,161.1h9.1v8.1h0.2c0.2-0.7,0.8-1.6,1.7-2.7c0.9-1.1,2.1-2.1,3.5-3.1s3.1-1.8,5-2.5c1.9-0.7,4-1,6.4-1
		c3.8,0,7.1,0.8,9.7,2.4c2.6,1.6,4.8,4,6.4,7.2c1.7-3.2,4-5.6,7.1-7.2c3-1.6,6.1-2.4,9.3-2.4c4,0,7.3,0.7,9.8,2c2.5,1.3,4.5,3,6,5.2
		c1.5,2.1,2.4,4.6,3,7.3c0.5,2.7,0.8,5.5,0.8,8.4v30h-9.8v-28.7c0-2-0.1-3.8-0.4-5.7c-0.3-1.8-0.8-3.4-1.6-4.8
		c-0.8-1.4-1.9-2.5-3.4-3.3c-1.5-0.8-3.4-1.3-5.8-1.3c-4.7,0-8.1,1.5-10.1,4.4c-2,2.9-3,6.6-3,11.2v28.2h-9.8v-27
		c0-2.5-0.1-4.7-0.4-6.7c-0.3-2-0.8-3.8-1.5-5.3c-0.8-1.5-1.9-2.6-3.3-3.5c-1.4-0.8-3.3-1.3-5.7-1.3c-1.7,0-3.4,0.3-5.1,1
		c-1.6,0.7-3.1,1.7-4.3,3.1c-1.2,1.4-2.2,3.1-2.9,5.3c-0.7,2.1-1.1,4.7-1.1,7.6v26.8h-9.8V161.1z"/>
</g>
</svg>
